<svg width="73" height="21" viewBox="0 0 73 21" fill="none" xmlns="http://www.w3.org/2000/svg">
<path d="M3.09108 14.3523H8.46677V16H0.844267V14.5188L6.20332 6.08076H0.844267V4.4331H8.46677V5.91433L3.09108 14.3523ZM9.90834 11.3732C9.90834 10.4523 10.097 9.63682 10.4742 8.92671C10.8625 8.21661 11.384 7.66739 12.0387 7.27905C12.7044 6.87962 13.4367 6.67991 14.2355 6.67991C14.9567 6.67991 15.5836 6.82414 16.1162 7.11262C16.6599 7.39001 17.0926 7.73951 17.4144 8.16113V6.82969H19.3283V16H17.4144V14.6353C17.0926 15.068 16.6543 15.4286 16.0996 15.7171C15.5448 16.0055 14.9123 16.1498 14.2022 16.1498C13.4145 16.1498 12.6933 15.9501 12.0387 15.5506C11.384 15.1401 10.8625 14.5742 10.4742 13.853C10.097 13.1208 9.90834 12.2942 9.90834 11.3732ZM17.4144 11.4065C17.4144 10.7741 17.2812 10.2249 17.0149 9.75886C16.7597 9.29286 16.4213 8.93781 15.9997 8.69371C15.5781 8.44961 15.1232 8.32756 14.635 8.32756C14.1468 8.32756 13.6919 8.44961 13.2702 8.69371C12.8486 8.92671 12.5047 9.27622 12.2384 9.74222C11.9832 10.1971 11.8556 10.7408 11.8556 11.3732C11.8556 12.0057 11.9832 12.5604 12.2384 13.0375C12.5047 13.5146 12.8486 13.8808 13.2702 14.136C13.703 14.3801 14.1579 14.5021 14.635 14.5021C15.1232 14.5021 15.5781 14.3801 15.9997 14.136C16.4213 13.8919 16.7597 13.5368 17.0149 13.0708C17.2812 12.5937 17.4144 12.039 17.4144 11.4065ZM23.7176 8.17778C24.0394 7.75615 24.4777 7.4011 25.0324 7.11262C25.5872 6.82414 26.2141 6.67991 26.9131 6.67991C27.712 6.67991 28.4387 6.87962 29.0933 7.27905C29.7591 7.66739 30.2805 8.21661 30.6578 8.92671C31.035 9.63682 31.2236 10.4523 31.2236 11.3732C31.2236 12.2942 31.035 13.1208 30.6578 13.853C30.2805 14.5742 29.7591 15.1401 29.0933 15.5506C28.4387 15.9501 27.712 16.1498 26.9131 16.1498C26.2141 16.1498 25.5928 16.0111 25.0491 15.7337C24.5054 15.4452 24.0616 15.0902 23.7176 14.6686V20.3605H21.8203V6.82969H23.7176V8.17778ZM29.2931 11.3732C29.2931 10.7408 29.1599 10.1971 28.8936 9.74222C28.6384 9.27622 28.2945 8.92671 27.8618 8.69371C27.4401 8.44961 26.9852 8.32756 26.497 8.32756C26.0199 8.32756 25.565 8.44961 25.1323 8.69371C24.7107 8.93781 24.3667 9.29286 24.1004 9.75886C23.8452 10.2249 23.7176 10.7741 23.7176 11.4065C23.7176 12.039 23.8452 12.5937 24.1004 13.0708C24.3667 13.5368 24.7107 13.8919 25.1323 14.136C25.565 14.3801 26.0199 14.5021 26.497 14.5021C26.9852 14.5021 27.4401 14.3801 27.8618 14.136C28.2945 13.8808 28.6384 13.5146 28.8936 13.0375C29.1599 12.5604 29.2931 12.0057 29.2931 11.3732ZM34.9972 8.17778C35.319 7.75615 35.7572 7.4011 36.312 7.11262C36.8668 6.82414 37.4936 6.67991 38.1926 6.67991C38.9915 6.67991 39.7183 6.87962 40.3729 7.27905C41.0386 7.66739 41.5601 8.21661 41.9373 8.92671C42.3146 9.63682 42.5032 10.4523 42.5032 11.3732C42.5032 12.2942 42.3146 13.1208 41.9373 13.853C41.5601 14.5742 41.0386 15.1401 40.3729 15.5506C39.7183 15.9501 38.9915 16.1498 38.1926 16.1498C37.4936 16.1498 36.8723 16.0111 36.3286 15.7337C35.785 15.4452 35.3411 15.0902 34.9972 14.6686V20.3605H33.0999V6.82969H34.9972V8.17778ZM40.5726 11.3732C40.5726 10.7408 40.4395 10.1971 40.1732 9.74222C39.918 9.27622 39.574 8.92671 39.1413 8.69371C38.7197 8.44961 38.2648 8.32756 37.7766 8.32756C37.2995 8.32756 36.8446 8.44961 36.4118 8.69371C35.9902 8.93781 35.6463 9.29286 35.38 9.75886C35.1248 10.2249 34.9972 10.7741 34.9972 11.4065C34.9972 12.039 35.1248 12.5937 35.38 13.0708C35.6463 13.5368 35.9902 13.8919 36.4118 14.136C36.8446 14.3801 37.2995 14.5021 37.7766 14.5021C38.2648 14.5021 38.7197 14.3801 39.1413 14.136C39.574 13.8808 39.918 13.5146 40.1732 13.0375C40.4395 12.5604 40.5726 12.0057 40.5726 11.3732ZM52.7842 11.1902C52.7842 11.5341 52.762 11.8448 52.7176 12.1222H45.7109C45.7664 12.8545 46.0382 13.4425 46.5264 13.8863C47.0146 14.3301 47.6137 14.5521 48.3238 14.5521C49.3446 14.5521 50.0658 14.1249 50.4874 13.2705H52.5345C52.2571 14.1138 51.7523 14.8072 51.02 15.3509C50.2988 15.8835 49.4001 16.1498 48.3238 16.1498C47.4473 16.1498 46.6595 15.9556 45.9605 15.5673C45.2726 15.1678 44.7289 14.6131 44.3295 13.903C43.9412 13.1818 43.747 12.3496 43.747 11.4065C43.747 10.4634 43.9356 9.63682 44.3129 8.92671C44.7012 8.20552 45.2393 7.65075 45.9272 7.26241C46.6262 6.87407 47.4251 6.67991 48.3238 6.67991C49.1893 6.67991 49.9604 6.86853 50.6372 7.24577C51.314 7.62301 51.8411 8.15559 52.2183 8.8435C52.5955 9.52031 52.7842 10.3025 52.7842 11.1902ZM50.8036 10.591C50.7925 9.89201 50.5429 9.33169 50.0547 8.91007C49.5665 8.48845 48.9618 8.27764 48.2406 8.27764C47.586 8.27764 47.0257 8.48845 46.5597 8.91007C46.0937 9.3206 45.8163 9.88091 45.7275 10.591H50.8036ZM56.5486 3.68416V16H54.6513V3.68416H56.5486ZM60.0049 5.61475C59.6609 5.61475 59.3725 5.49825 59.1395 5.26525C58.9065 5.03225 58.79 4.74377 58.79 4.39981C58.79 4.05585 58.9065 3.76738 59.1395 3.53437C59.3725 3.30137 59.6609 3.18487 60.0049 3.18487C60.3378 3.18487 60.6207 3.30137 60.8537 3.53437C61.0867 3.76738 61.2032 4.05585 61.2032 4.39981C61.2032 4.74377 61.0867 5.03225 60.8537 5.26525C60.6207 5.49825 60.3378 5.61475 60.0049 5.61475ZM60.9369 6.82969V16H59.0396V6.82969H60.9369ZM68.0547 6.67991C68.7759 6.67991 69.4194 6.82969 69.9853 7.12927C70.5622 7.42884 71.0116 7.87265 71.3333 8.46071C71.6551 9.04876 71.816 9.75886 71.816 10.591V16H69.9353V10.8739C69.9353 10.0529 69.7301 9.426 69.3195 8.99329C68.909 8.54947 68.3487 8.32756 67.6386 8.32756C66.9285 8.32756 66.3626 8.54947 65.941 8.99329C65.5305 9.426 65.3252 10.0529 65.3252 10.8739V16H63.4279V6.82969H65.3252V7.8782C65.6359 7.50096 66.0298 7.20693 66.5069 6.99612C66.9951 6.78531 67.511 6.67991 68.0547 6.67991Z" fill="url(#paint0_linear_192_10819)"/>
<defs>
<linearGradient id="paint0_linear_192_10819" x1="0" y1="10" x2="73" y2="10" gradientUnits="userSpaceOnUse">
<stop stop-color="#1E8846"/>
<stop offset="1" stop-color="#1AC159"/>
</linearGradient>
</defs>
</svg>
