<svg width="106" height="21" viewBox="0 0 106 21" fill="none" xmlns="http://www.w3.org/2000/svg">
<path d="M35.4246 14.8523H40.8003V16.5H33.1778V15.0188L38.5368 6.58076H33.1778V4.9331H40.8003V6.41433L35.4246 14.8523ZM42.2418 11.8732C42.2418 10.9523 42.4305 10.1368 42.8077 9.42671C43.196 8.71661 43.7175 8.16739 44.3721 7.77905C45.0379 7.37962 45.7702 7.17991 46.569 7.17991C47.2902 7.17991 47.9171 7.32414 48.4497 7.61262C48.9934 7.89001 49.4261 8.23951 49.7478 8.66113V7.32969H51.6618V16.5H49.7478V15.1353C49.4261 15.568 48.9878 15.9286 48.433 16.2171C47.8783 16.5055 47.2458 16.6498 46.5357 16.6498C45.748 16.6498 45.0268 16.4501 44.3721 16.0506C43.7175 15.6401 43.196 15.0742 42.8077 14.353C42.4305 13.6208 42.2418 12.7942 42.2418 11.8732ZM49.7478 11.9065C49.7478 11.2741 49.6147 10.7249 49.3484 10.2589C49.0932 9.79286 48.7548 9.43781 48.3332 9.19371C47.9116 8.94961 47.4567 8.82756 46.9685 8.82756C46.4803 8.82756 46.0254 8.94961 45.6037 9.19371C45.1821 9.42671 44.8382 9.77622 44.5719 10.2422C44.3167 10.6971 44.1891 11.2408 44.1891 11.8732C44.1891 12.5057 44.3167 13.0604 44.5719 13.5375C44.8382 14.0146 45.1821 14.3808 45.6037 14.636C46.0365 14.8801 46.4914 15.0021 46.9685 15.0021C47.4567 15.0021 47.9116 14.8801 48.3332 14.636C48.7548 14.3919 49.0932 14.0368 49.3484 13.5708C49.6147 13.0937 49.7478 12.539 49.7478 11.9065ZM56.0511 8.67778C56.3729 8.25615 56.8112 7.9011 57.3659 7.61262C57.9207 7.32414 58.5476 7.17991 59.2466 7.17991C60.0455 7.17991 60.7722 7.37962 61.4268 7.77905C62.0926 8.16739 62.614 8.71661 62.9913 9.42671C63.3685 10.1368 63.5571 10.9523 63.5571 11.8732C63.5571 12.7942 63.3685 13.6208 62.9913 14.353C62.614 15.0742 62.0926 15.6401 61.4268 16.0506C60.7722 16.4501 60.0455 16.6498 59.2466 16.6498C58.5476 16.6498 57.9262 16.5111 57.3826 16.2337C56.8389 15.9452 56.3951 15.5902 56.0511 15.1686V20.8605H54.1538V7.32969H56.0511V8.67778ZM61.6265 11.8732C61.6265 11.2408 61.4934 10.6971 61.2271 10.2422C60.9719 9.77622 60.628 9.42671 60.1952 9.19371C59.7736 8.94961 59.3187 8.82756 58.8305 8.82756C58.3534 8.82756 57.8985 8.94961 57.4658 9.19371C57.0442 9.43781 56.7002 9.79286 56.4339 10.2589C56.1787 10.7249 56.0511 11.2741 56.0511 11.9065C56.0511 12.539 56.1787 13.0937 56.4339 13.5708C56.7002 14.0368 57.0442 14.3919 57.4658 14.636C57.8985 14.8801 58.3534 15.0021 58.8305 15.0021C59.3187 15.0021 59.7736 14.8801 60.1952 14.636C60.628 14.3808 60.9719 14.0146 61.2271 13.5375C61.4934 13.0604 61.6265 12.5057 61.6265 11.8732ZM67.3307 8.67778C67.6524 8.25615 68.0907 7.9011 68.6455 7.61262C69.2003 7.32414 69.8271 7.17991 70.5261 7.17991C71.325 7.17991 72.0518 7.37962 72.7064 7.77905C73.3721 8.16739 73.8936 8.71661 74.2708 9.42671C74.6481 10.1368 74.8367 10.9523 74.8367 11.8732C74.8367 12.7942 74.6481 13.6208 74.2708 14.353C73.8936 15.0742 73.3721 15.6401 72.7064 16.0506C72.0518 16.4501 71.325 16.6498 70.5261 16.6498C69.8271 16.6498 69.2058 16.5111 68.6621 16.2337C68.1185 15.9452 67.6746 15.5902 67.3307 15.1686V20.8605H65.4334V7.32969H67.3307V8.67778ZM72.9061 11.8732C72.9061 11.2408 72.773 10.6971 72.5067 10.2422C72.2515 9.77622 71.9075 9.42671 71.4748 9.19371C71.0532 8.94961 70.5983 8.82756 70.1101 8.82756C69.633 8.82756 69.1781 8.94961 68.7453 9.19371C68.3237 9.43781 67.9798 9.79286 67.7135 10.2589C67.4583 10.7249 67.3307 11.2741 67.3307 11.9065C67.3307 12.539 67.4583 13.0937 67.7135 13.5708C67.9798 14.0368 68.3237 14.3919 68.7453 14.636C69.1781 14.8801 69.633 15.0021 70.1101 15.0021C70.5983 15.0021 71.0532 14.8801 71.4748 14.636C71.9075 14.3808 72.2515 14.0146 72.5067 13.5375C72.773 13.0604 72.9061 12.5057 72.9061 11.8732ZM85.1177 11.6902C85.1177 12.0341 85.0955 12.3448 85.0511 12.6222H78.0444C78.0998 13.3545 78.3717 13.9425 78.8599 14.3863C79.3481 14.8301 79.9472 15.0521 80.6573 15.0521C81.6781 15.0521 82.3993 14.6249 82.8209 13.7705H84.868C84.5906 14.6138 84.0858 15.3072 83.3535 15.8509C82.6323 16.3835 81.7336 16.6498 80.6573 16.6498C79.7808 16.6498 78.993 16.4556 78.294 16.0673C77.6061 15.6678 77.0624 15.1131 76.663 14.403C76.2747 13.6818 76.0805 12.8496 76.0805 11.9065C76.0805 10.9634 76.2691 10.1368 76.6464 9.42671C77.0347 8.70552 77.5728 8.15075 78.2607 7.76241C78.9597 7.37407 79.7586 7.17991 80.6573 7.17991C81.5228 7.17991 82.2939 7.36853 82.9707 7.74577C83.6475 8.12301 84.1746 8.65559 84.5518 9.3435C84.929 10.0203 85.1177 10.8025 85.1177 11.6902ZM83.1371 11.091C83.126 10.392 82.8764 9.83169 82.3882 9.41007C81.9 8.98845 81.2953 8.77764 80.5741 8.77764C79.9195 8.77764 79.3592 8.98845 78.8932 9.41007C78.4272 9.8206 78.1498 10.3809 78.061 11.091H83.1371ZM88.8821 4.18416V16.5H86.9848V4.18416H88.8821ZM92.3384 6.11475C91.9944 6.11475 91.706 5.99825 91.473 5.76525C91.24 5.53225 91.1235 5.24377 91.1235 4.89981C91.1235 4.55585 91.24 4.26738 91.473 4.03437C91.706 3.80137 91.9944 3.68487 92.3384 3.68487C92.6713 3.68487 92.9542 3.80137 93.1872 4.03437C93.4202 4.26738 93.5367 4.55585 93.5367 4.89981C93.5367 5.24377 93.4202 5.53225 93.1872 5.76525C92.9542 5.99825 92.6713 6.11475 92.3384 6.11475ZM93.2704 7.32969V16.5H91.3731V7.32969H93.2704ZM100.388 7.17991C101.109 7.17991 101.753 7.32969 102.319 7.62927C102.896 7.92884 103.345 8.37265 103.667 8.96071C103.989 9.54876 104.149 10.2589 104.149 11.091V16.5H102.269V11.3739C102.269 10.5529 102.064 9.926 101.653 9.49329C101.242 9.04947 100.682 8.82756 99.9721 8.82756C99.262 8.82756 98.6961 9.04947 98.2745 9.49329C97.864 9.926 97.6587 10.5529 97.6587 11.3739V16.5H95.7614V7.32969H97.6587V8.3782C97.9694 8.00096 98.3633 7.70693 98.8404 7.49612C99.3286 7.28531 99.8445 7.17991 100.388 7.17991Z" fill="url(#paint0_linear_312_1170)"/>
<path d="M13.7119 16.8213C10.9297 16.8213 8.36065 16.2411 6.28809 15.2607C5.90756 15.0807 5.4595 14.8127 5 14.5C7.38776 15.1964 9.61245 15.5773 11.6426 15.7335C17.7746 16.2053 22.1316 14.6269 23.846 13.5C21.5906 15.5101 17.8932 16.8213 13.7119 16.8213Z" fill="#31C955"/>
<path d="M24.7178 4.53613C26.0405 5.90929 26.8095 7.54258 26.8096 9.29785C26.8095 10.9511 26.1251 12.4941 24.9404 13.8154C25.0844 13.6541 25.2224 13.4907 25.3516 13.3232C25.2858 13.19 25.2265 13.0618 25.1787 12.9414C24.7428 11.8412 24.5011 10.6216 24.501 9.33887C24.501 7.88119 24.8147 6.50613 25.3691 5.29395C25.1702 5.03406 24.9525 4.78073 24.7178 4.53613ZM23.7285 12.9414C23.6739 12.8036 23.6226 12.6639 23.5742 12.5225C23.6226 12.6638 23.6749 12.8037 23.7295 12.9414C23.769 13.0411 23.8151 13.1461 23.8672 13.2549C23.815 13.146 23.7681 13.0412 23.7285 12.9414Z" fill="#A4F0A6"/>
<path d="M11.6795 20.4185H16.3754C16.6758 20.4185 16.9487 20.2724 17.0793 20.0446L18.6455 17.3185L17.0793 17.8456L14.0002 18L9.7876 17.8456L10.968 20.0309C11.0959 20.2665 11.3739 20.4185 11.6795 20.4185Z" fill="url(#paint1_linear_312_1170)"/>
<path d="M17.9731 17.7363C18.1634 17.4063 17.8954 17.2692 18.2852 17.4307C18.6727 17.5913 18.8345 16.9895 18.6454 17.3186L17.0791 20.0447C16.9485 20.2725 16.6756 20.4186 16.3752 20.4186H15.0444C15.3448 20.4186 15.6178 20.2725 15.7484 20.0447L17.3146 17.3186C17.4277 17.1218 17.4152 17.9004 17.3042 17.7198L17.9731 17.7363Z" fill="url(#paint2_linear_312_1170)"/>
<path d="M1.1219 18.1944C2.26205 18.1357 3.68337 17.5382 5.38638 16.4022C5.51279 16.3179 5.67533 16.3081 5.8114 16.3759C3.60136 14.9854 2.10834 13.4748 1.63809 12.8933C1.76365 13.0815 1.84977 13.2959 1.85324 13.5219C1.87124 14.6906 1.49622 15.906 0.725888 17.1683L0.619857 17.3387C0.454265 17.599 0.53162 17.9438 0.792961 18.1088C0.890971 18.1706 1.00602 18.2003 1.1219 18.1944Z" fill="url(#paint3_linear_312_1170)"/>
<path d="M26.8214 9.30697C26.8214 4.44301 20.9292 0.5 13.6607 0.5C6.39226 0.5 0.5 4.44301 0.5 9.30697C0.5 10.5842 0.906613 11.7978 1.63752 12.8933C2.36843 13.9888 4.4814 15.7137 5.81083 16.3759C8.00241 17.4675 10.7187 18.1139 13.6607 18.1139C20.9292 18.1139 26.8214 14.1709 26.8214 9.30697Z" stroke="url(#paint4_linear_312_1170)"/>
<path d="M14 1.5C17.1959 1.5 20.1104 2.26545 22.3144 3.5236C20.22 2.83651 17.8044 2.44475 15.2323 2.44475C9.22611 2.44475 4.07285 4.581 1.87175 7.6255C3.14449 4.11642 8.09142 1.5 14 1.5Z" fill="#D4FFA6"/>
<g filter="url(#filter0_d_312_1170)">
<path d="M16.9795 10.2957C16.4183 10.2957 15.9633 9.84077 15.9633 9.27957C15.9633 8.71837 16.4183 8.26343 16.9795 8.26343C17.5407 8.26343 17.9956 8.71837 17.9956 9.27957C17.9956 9.84077 17.5407 10.2957 16.9795 10.2957Z" fill="#6AD46D"/>
</g>
<g filter="url(#filter1_d_312_1170)">
<path d="M13.6543 10.2957C13.0931 10.2957 12.6381 9.84077 12.6381 9.27957C12.6381 8.71837 13.0931 8.26343 13.6543 8.26343C14.2155 8.26343 14.6704 8.71837 14.6704 9.27957C14.6704 9.84077 14.2155 10.2957 13.6543 10.2957Z" fill="#6AD46D"/>
</g>
<g filter="url(#filter2_d_312_1170)">
<path d="M10.3476 10.2957C9.78642 10.2957 9.33148 9.84077 9.33148 9.27957C9.33148 8.71837 9.78642 8.26343 10.3476 8.26343C10.9088 8.26343 11.3638 8.71837 11.3638 9.27957C11.3638 9.84077 10.9088 10.2957 10.3476 10.2957Z" fill="#6AD46D"/>
</g>
<defs>
<filter id="filter0_d_312_1170" x="15.8402" y="8.26343" width="2.36083" height="2.40191" filterUnits="userSpaceOnUse" color-interpolation-filters="sRGB">
<feFlood flood-opacity="0" result="BackgroundImageFix"/>
<feColorMatrix in="SourceAlpha" type="matrix" values="0 0 0 0 0 0 0 0 0 0 0 0 0 0 0 0 0 0 127 0" result="hardAlpha"/>
<feOffset dx="0.041076" dy="0.20538"/>
<feGaussianBlur stdDeviation="0.082152"/>
<feComposite in2="hardAlpha" operator="out"/>
<feColorMatrix type="matrix" values="0 0 0 0 0 0 0 0 0 0 0 0 0 0 0 0 0 0 0.25 0"/>
<feBlend mode="normal" in2="BackgroundImageFix" result="effect1_dropShadow_312_1170"/>
<feBlend mode="normal" in="SourceGraphic" in2="effect1_dropShadow_312_1170" result="shape"/>
</filter>
<filter id="filter1_d_312_1170" x="12.515" y="8.26343" width="2.36083" height="2.40191" filterUnits="userSpaceOnUse" color-interpolation-filters="sRGB">
<feFlood flood-opacity="0" result="BackgroundImageFix"/>
<feColorMatrix in="SourceAlpha" type="matrix" values="0 0 0 0 0 0 0 0 0 0 0 0 0 0 0 0 0 0 127 0" result="hardAlpha"/>
<feOffset dx="0.041076" dy="0.20538"/>
<feGaussianBlur stdDeviation="0.082152"/>
<feComposite in2="hardAlpha" operator="out"/>
<feColorMatrix type="matrix" values="0 0 0 0 0 0 0 0 0 0 0 0 0 0 0 0 0 0 0.25 0"/>
<feBlend mode="normal" in2="BackgroundImageFix" result="effect1_dropShadow_312_1170"/>
<feBlend mode="normal" in="SourceGraphic" in2="effect1_dropShadow_312_1170" result="shape"/>
</filter>
<filter id="filter2_d_312_1170" x="9.20831" y="8.26343" width="2.36083" height="2.40191" filterUnits="userSpaceOnUse" color-interpolation-filters="sRGB">
<feFlood flood-opacity="0" result="BackgroundImageFix"/>
<feColorMatrix in="SourceAlpha" type="matrix" values="0 0 0 0 0 0 0 0 0 0 0 0 0 0 0 0 0 0 127 0" result="hardAlpha"/>
<feOffset dx="0.041076" dy="0.20538"/>
<feGaussianBlur stdDeviation="0.082152"/>
<feComposite in2="hardAlpha" operator="out"/>
<feColorMatrix type="matrix" values="0 0 0 0 0 0 0 0 0 0 0 0 0 0 0 0 0 0 0.25 0"/>
<feBlend mode="normal" in2="BackgroundImageFix" result="effect1_dropShadow_312_1170"/>
<feBlend mode="normal" in="SourceGraphic" in2="effect1_dropShadow_312_1170" result="shape"/>
</filter>
<linearGradient id="paint0_linear_312_1170" x1="32.3335" y1="10.5" x2="105.333" y2="10.5" gradientUnits="userSpaceOnUse">
<stop stop-color="#1E8846"/>
<stop offset="1" stop-color="#1AC159"/>
</linearGradient>
<linearGradient id="paint1_linear_312_1170" x1="14.2062" y1="17.7191" x2="14.2062" y2="19.7915" gradientUnits="userSpaceOnUse">
<stop stop-color="#17762E"/>
<stop offset="1" stop-color="#2DBC4F"/>
</linearGradient>
<linearGradient id="paint2_linear_312_1170" x1="17.3436" y1="19.8834" x2="18.0509" y2="17.1957" gradientUnits="userSpaceOnUse">
<stop stop-color="#31C955"/>
<stop offset="1" stop-color="#207F3B"/>
</linearGradient>
<linearGradient id="paint3_linear_312_1170" x1="3.17012" y1="16.9714" x2="6.16867" y2="13.8086" gradientUnits="userSpaceOnUse">
<stop stop-color="#3BC14D"/>
<stop offset="1" stop-color="#107026"/>
</linearGradient>
<linearGradient id="paint4_linear_312_1170" x1="8.30444" y1="-1.18412" x2="8.69467" y2="14.7945" gradientUnits="userSpaceOnUse">
<stop stop-color="#BFF56D"/>
<stop offset="1" stop-color="#28B34F"/>
</linearGradient>
</defs>
</svg>
