<svg width="216" height="216" viewBox="0 0 216 216" fill="none" xmlns="http://www.w3.org/2000/svg">
<path d="M182.349 1.06922C186.728 0.478706 190.756 3.54959 191.347 7.92823L210.459 149.645L175.307 195.757L33.5895 214.869C29.2108 215.46 25.1825 212.389 24.592 208.01L1.06922 33.5895C0.478708 29.2108 3.54959 25.1825 7.92823 24.592L182.349 1.06922Z" fill="#FFDB73"/>
<path d="M170.897 163.053C170.306 158.675 173.377 154.646 177.756 154.056L210.46 149.645L175.307 195.757L170.897 163.053Z" fill="#EDC962"/>
<path d="M33.6348 56.8383C36.1269 65.9077 38.4905 75.3975 40.0823 79.1041C40.3708 79.7758 41.1003 79.9689 41.4382 79.749C44.533 77.7358 42.8357 68.5266 43.4357 62.2534C43.5613 60.9397 43.6609 59.8648 43.7308 59.0303C43.8007 58.1958 43.9058 57.6424 45.0875 59.7215C52.9439 73.5432 54.0312 80.2237 54.8438 80.2122C61.616 80.1158 60.1582 67.7862 61.1486 67.7398C62.416 67.6804 63.1205 69.5597 64.3479 69.9388C67.0141 70.7622 69.9113 68.8291 75.7188 68.3181C84.7031 67.5278 91.2163 65.2315 92.6771 65.3013C93.3806 65.335 93.5985 66.702 94.2688 66.9874C95.8281 67.6514 97.8038 65.6175 106.623 63.6112C114.631 62.2535 129.811 60.2062 137.996 59.1923C146.181 58.1783 146.911 58.2596 148.198 58.2712" stroke="#725505" stroke-width="3" stroke-linecap="round"/>
<path d="M41.2997 101.552C45.7499 100.952 56.5247 98.0613 65.0505 96.081C67.5116 95.5093 69.6358 95.0078 71.1396 96.0631C72.2271 96.8262 72.0942 99.7086 72.8242 100.457C79.3665 107.165 85.7087 89.7668 95.0303 88.8157C96.9855 88.6162 99.2429 88.3861 101.857 88.1163C118.07 86.292 149.56 82.5843 182.005 78.7642" stroke="#725505" stroke-width="3" stroke-linecap="round"/>
<path d="M40.5664 184.978C41.5972 185.917 42.7943 189.383 44.2755 192.995C44.913 194.55 45.3137 195.949 45.928 196.506C49.0881 199.371 50.0578 190.783 51.1168 189.913C51.6256 189.495 52.4476 189.726 53.0715 190.273C54.5142 191.539 55.1504 193.533 56.0706 194.318C58.6213 196.496 59.9083 187.096 60.6189 185.642C60.94 184.985 61.0003 184.411 61.5622 185.226C62.1241 186.041 63.1396 188.24 63.9394 189.426C64.7393 190.611 65.2926 190.716 65.771 190.205C66.9963 188.896 67.9778 187.384 69.6884 186.847C74.9942 185.181 81.5991 184.125 83.305 183.663C84.8011 183.369 87.2723 183.036 89.8184 182.692" stroke="#725505" stroke-width="3" stroke-linecap="round"/>
</svg>
