<svg width="216" height="216" viewBox="0 0 216 216" fill="none" xmlns="http://www.w3.org/2000/svg">
<path d="M182.372 1.06196C186.751 0.475454 190.776 3.55003 191.363 7.9292L210.345 149.664L175.151 195.743L33.4161 214.726C29.037 215.312 25.0115 212.238 24.425 207.859L1.06196 33.4161C0.475456 29.037 3.55003 25.0115 7.9292 24.425L182.372 1.06196Z" fill="#FFDC99"/>
<path d="M170.769 163.035C170.183 158.656 173.257 154.631 177.637 154.044L210.345 149.664L175.15 195.743L170.769 163.035Z" fill="#EDC883"/>
<path d="M29.8086 56.6615C33.1619 65.8188 38.4452 73.2653 41.4369 74.8052C43.1382 75.6809 45.4088 74.0676 47.2213 72.4402C52.4195 67.7727 51.049 58.5589 51.0886 57.2235C51.2814 50.7238 53.1123 69.1677 54.7459 70.234C55.7026 70.8585 57.5178 70.2997 58.4386 69.8583C59.8032 69.2042 59.3055 65.8001 59.2571 62.2724C59.2118 58.9678 64.1531 58.9115 66.7305 58.1487C67.6664 57.8716 68.0512 56.0633 68.3244 54.8412C68.5977 53.6191 68.4582 52.5775 78.5936 50.6739C88.7289 48.7703 109.143 46.0362 130.176 43.2193" stroke="#C5A360" stroke-width="3" stroke-linecap="round"/>
<path d="M86.7941 59.953C87.6273 59.8414 88.4606 59.7298 90.8409 59.199C93.2212 58.6682 97.1233 57.7215 110.695 55.6854C124.266 53.6493 147.389 50.5525 171.212 47.3619" stroke="#C5A360" stroke-width="3" stroke-linecap="round"/>
<path d="M44.642 90.6584C46.1107 96.8745 48.2197 99.8114 49.3041 100.736C50.3138 101.597 52.047 101.233 53.608 100.918C54.3487 100.768 54.9328 100.422 55.4552 99.5009C58.0821 94.8675 56.9747 91.5834 57.39 91.5181C60.1671 91.0818 61.188 95.9348 63.3714 96.2849C64.4462 96.4573 65.499 96.2184 66.1881 95.702C68.9261 93.6502 68.4216 90.6929 68.6073 89.7042C68.7918 88.7214 70.7982 89.2951 71.8497 89.1575C74.3886 88.8252 73.3635 84.46 74.7327 83.528C75.5327 83.0964 76.5463 82.7486 88.109 81.0907C99.6716 79.4329 121.753 76.4756 144.503 73.4287" stroke="#C5A360" stroke-width="3" stroke-linecap="round"/>
<path d="M90.3898 91.5995C91.223 91.4879 92.4855 91.3188 95.1783 90.7461C97.0378 90.2851 99.8984 89.4778 108.975 88.0437C118.052 86.6096 133.259 84.5729 148.926 82.4746" stroke="#C5A360" stroke-width="3" stroke-linecap="round"/>
<path d="M35.3984 117.599C40.6597 137.836 46.0888 147.859 47.018 149.232C47.4848 149.921 48.5164 150.104 49.2869 150.219C50.0573 150.335 50.6822 150.251 51.1706 149.867C54.3397 147.379 52.7127 133.362 52.6942 130.801C52.6887 130.048 53.2171 132.331 53.7083 132.808C54.1996 133.285 54.8524 133.41 55.7504 132.126C58.3088 128.47 59.0668 123.233 59.6297 120.262C60.245 117.015 65.6932 121.705 68.9586 121.196C74.0154 120.406 80.864 118.939 91.3806 116.749C101.903 114.906 118.957 112.41 136.527 109.838" stroke="#C5A360" stroke-width="3" stroke-linecap="round"/>
<path d="M79.3828 124.56C79.4107 124.768 79.4386 124.976 87.7854 123.968C96.1322 122.959 112.797 120.727 129.967 118.428" stroke="#C5A360" stroke-width="3" stroke-linecap="round"/>
</svg>
