<svg width="217" height="217" viewBox="0 0 217 217" fill="none" xmlns="http://www.w3.org/2000/svg">
<path d="M209.074 25.7671C213.449 26.3858 216.494 30.4338 215.875 34.8086L195.85 176.399L149.512 211.254L7.92117 191.228C3.54643 190.61 0.501579 186.562 1.12031 182.187L25.7671 7.92117C26.3858 3.54643 30.4338 0.501579 34.8086 1.12031L209.074 25.7671Z" fill="#FFEECC"/>
<path d="M154.133 178.579C154.752 174.204 158.8 171.159 163.175 171.778L195.85 176.399L149.512 211.254L154.133 178.579Z" fill="#E8D5B0"/>
<path d="M51.8796 31.9624C52.6162 32.0666 53.3529 32.1708 75.675 35.5783C97.9971 38.9858 141.882 45.6935 164.998 49.0957C188.114 52.4979 189.131 52.3912 191.667 52.4919" stroke="#AD9C7A" stroke-width="3" stroke-linecap="round"/>
<path d="M56.8874 39.5016L121.625 48.6576" stroke="#AD9C7A" stroke-width="3" stroke-linecap="round"/>
<path d="M41.5162 67.6872C45.1995 68.2082 48.8829 68.7291 58.0243 70.022C67.1657 71.3149 81.6535 73.364 89.2558 73.4373C96.8582 73.5106 97.136 71.5462 98.2973 71.3044C101.676 70.6008 104.821 74.3636 106.49 75.9772C109.468 78.8558 106.543 83.7075 107.48 85.1038C107.93 85.7737 108.732 86.0437 109.865 86.0825C112.551 86.1744 116.194 81.5811 119.62 76.1151C121.476 73.1544 126.604 79.4633 136.493 80.9948C142.806 81.2538 147.551 81.6744 155.119 82.3653C160.933 83.0587 170.755 84.4478 180.875 85.8791" stroke="#AD9C7A" stroke-width="3" stroke-linecap="round"/>
<path d="M126.991 85.848C127.938 86.2325 128.886 86.617 135.758 87.718C142.631 88.819 155.4 90.625 168.556 92.4856" stroke="#AD9C7A" stroke-width="3" stroke-linecap="round"/>
<path d="M51.0905 75.1136L90.5284 80.6914" stroke="#AD9C7A" stroke-width="3" stroke-linecap="round"/>
</svg>
