<svg width="229" height="229" viewBox="0 0 229 229" fill="none" xmlns="http://www.w3.org/2000/svg">
<path d="M179.676 1.72406C183.991 0.771888 188.26 3.49756 189.212 7.81202L220.03 147.452L188.829 196.324L49.1895 227.142C44.875 228.094 40.6056 225.368 39.6534 221.054L1.72406 49.1895C0.771891 44.875 3.49756 40.6056 7.81202 39.6534L179.676 1.72406Z" fill="#F8DA87"/>
<path d="M181.717 164.1C180.765 159.785 183.49 155.516 187.805 154.564L220.029 147.452L188.829 196.324L181.717 164.1Z" fill="#EECE76"/>
<path d="M168.02 40.7012C168.849 44.4142 168.231 53.9588 166.68 55.822C161.821 61.6626 157.862 42.6524 156.263 42.238C153.151 41.4314 149.777 48.3599 142.822 49.7449C137.127 50.879 132.346 47.6842 129.708 45.3787C126.975 42.9909 124.603 49.6746 113.43 52.7444C103.113 55.5788 83.1101 60.0396 72.4407 62.6985C61.7713 65.3574 60.9771 65.8324 57.1388 66.8338C53.3005 67.8353 46.4422 69.3489 39.376 70.9083" stroke="#C5A241" stroke-width="3" stroke-linecap="round"/>
<path d="M171.131 83.6047C170.047 86.8408 168.724 90.4746 167.2 93.8351C166.544 95.2804 165.709 95.9894 164.509 95.3643C156.718 91.3078 154.711 84.5042 150.052 81.3141C148.192 80.0405 147.485 77.9348 145.841 76.6358C144.197 75.3372 141.818 75.544 139.689 76.1637C138.585 76.485 137.471 76.9831 136.325 77.5919C130.059 80.9205 123.706 84.0295 116.855 85.8762C113.989 86.6487 110.399 87.5947 105.519 88.8493C93.8219 91.5851 71.2467 96.5673 47.9873 101.701" stroke="#C5A241" stroke-width="3" stroke-linecap="round"/>
</svg>
