<svg width="29" height="17" viewBox="0 0 29 17" fill="none" xmlns="http://www.w3.org/2000/svg">
  <defs>
    <filter id="aviao-sombra" x="-20%" y="-20%" width="140%" height="140%">
      <feDropShadow dx="0.8" dy="1" stdDeviation="0.6" flood-color="rgba(0,0,0,0.2)" flood-opacity="1"/>
    </filter>
  </defs>
  <path d="M3.70321 15.5104L1.09696 13.6683L1 7.70626L2.63957 7.6796C3.05628 7.67152 3.46909 7.76124 3.84487 7.94155C4.22064 8.12186 4.54892 8.38774 4.80336 8.71786L4.95004 8.93613C5.20448 9.26625 5.53276 9.53214 5.90853 9.71245C6.28431 9.89276 6.69712 9.98247 7.11383 9.97439L8.78946 9.96503L8.64402 1.02194L9.98548 1.00013C10.4798 0.995287 10.9657 1.12794 11.389 1.38328C11.8123 1.63861 12.1563 2.00658 12.3825 2.44609L15.4846 8.3712C15.7109 8.81363 16.0565 9.184 16.4821 9.44051C16.9078 9.69702 17.3967 9.82948 17.8936 9.82293L24.1187 9.76344C24.918 9.74782 25.6945 10.0308 26.2964 10.557L27.3009 11.4531C27.5098 11.6356 27.6753 11.8623 27.7855 12.1168C27.8957 12.3713 27.9478 12.6472 27.938 12.9243C27.9283 13.2015 27.8569 13.473 27.729 13.7191C27.6012 13.9652 27.4201 14.1797 27.1989 14.3471L26.3037 15.0415C25.7619 15.4618 25.0979 15.7052 24.3945 15.7226L5.28515 15.9737C4.72342 15.9808 4.17382 15.8102 3.71475 15.4864L3.70321 15.5104Z" fill="#FFFFFF" filter="url(#aviao-sombra)"/>
</svg>
