<svg width="41" height="24" viewBox="0 0 41 24" fill="none" xmlns="http://www.w3.org/2000/svg">
<g clip-path="url(#clip0_243_5780)">
<path d="M36.2442 12.9387C36.2438 12.0693 35.9048 11.2519 35.2897 10.6373C34.6747 10.0228 33.857 9.68459 32.9877 9.68501L32.2027 9.6859L11.4293 9.7093L6.06856 5.32717C5.67368 5.00382 5.17493 4.83024 4.6652 4.8372L2.54592 4.86646C2.37056 4.869 2.2076 4.95528 2.10789 5.09927C2.00788 5.24256 1.98327 5.42554 2.04179 5.5903L4.01899 11.1633C4.59638 12.7891 5.8358 14.0495 7.36873 14.6837C8.0772 14.9768 8.84901 15.136 9.64619 15.1355L34.0753 15.1102C34.6551 15.1099 35.1998 14.8839 35.6092 14.4736C36.0192 14.0634 36.2446 13.5185 36.2442 12.9387Z" fill="#D7DBE0"/>
<path d="M36.0156 13.2467L11.5865 13.272C10.7894 13.2725 10.0176 13.1132 9.30908 12.8202C7.77615 12.186 6.53673 10.9256 5.95935 9.29976L4.37757 4.84117L2.54571 4.86647C2.37035 4.86901 2.2074 4.95528 2.10768 5.09928C2.00768 5.24256 1.98306 5.42555 2.04158 5.59031L4.01879 11.1633C4.59617 12.7891 5.8356 14.0496 7.36853 14.6837C8.07699 14.9768 8.84881 15.1361 9.64598 15.1356L34.0751 15.1102C34.6549 15.1099 35.1996 14.8839 35.609 14.4737C35.9497 14.1328 36.154 13.6968 36.216 13.2271C36.149 13.2332 36.0837 13.2467 36.0156 13.2467Z" fill="#29C854"/>
<path d="M23.5603 16.7308L15.9645 16.7342L15.9733 13.8743L23.5628 13.8708C24.1645 13.8706 24.6516 14.3599 24.6485 14.9616L24.6449 15.6451C24.6452 16.2445 24.1596 16.7305 23.5603 16.7308Z" fill="#8A8895"/>
<path d="M31.1497 12.3588C31.0195 12.3049 30.9119 12.1962 30.8613 12.0635C30.8031 11.9339 30.8018 11.7803 30.8577 11.6451C30.9116 11.5149 31.021 11.4071 31.1538 11.3565C31.4107 11.2454 31.7519 11.3866 31.8602 11.6487C31.9184 11.7783 31.9143 11.9296 31.8604 12.0599C31.8045 12.195 31.7005 12.3051 31.5677 12.3557C31.4382 12.4139 31.2853 12.4149 31.1497 12.3588Z" fill="#5C546A"/>
<path d="M13.2522 12.3645C13.1166 12.3084 13.0071 12.2046 12.9564 12.0719C12.8983 11.9423 12.9022 11.7914 12.9583 11.6558C13.0122 11.5255 13.116 11.416 13.2509 11.36C13.5112 11.256 13.8491 11.3901 13.9559 11.6573C14.0134 11.7872 14.0148 11.9402 13.9609 12.0705C13.9048 12.2062 13.7976 12.3086 13.6634 12.3643C13.5334 12.4223 13.3825 12.4184 13.2522 12.3645Z" fill="#5C546A"/>
<path d="M11.6184 12.3646C11.4882 12.3108 11.3809 12.2016 11.3275 12.074C11.272 11.9393 11.2706 11.7861 11.3245 11.6559C11.3786 11.5252 11.4878 11.4178 11.622 11.3621C11.8794 11.2513 12.2202 11.3922 12.329 11.6546C12.3851 11.789 12.3812 11.9399 12.3271 12.0707C12.2732 12.2009 12.1694 12.3104 12.0345 12.3665C11.9051 12.4242 11.754 12.4207 11.6184 12.3646Z" fill="#5C546A"/>
<path d="M29.5235 12.3563C29.3933 12.3024 29.2834 12.1979 29.2277 12.0636C29.175 11.9358 29.1736 11.7827 29.2295 11.6475C29.2836 11.5168 29.3928 11.4095 29.5271 11.3537C29.7874 11.2498 30.1252 11.3839 30.234 11.6462C30.2902 11.7807 30.2862 11.9316 30.2322 12.0623C30.1783 12.1925 30.0745 12.3021 29.9395 12.3581C29.8048 12.4136 29.6586 12.4122 29.5235 12.3563Z" fill="#5C546A"/>
<path d="M27.9727 12.3563C27.8425 12.3024 27.7326 12.1979 27.6769 12.0636C27.6242 11.9358 27.6228 11.7827 27.6787 11.6475C27.7328 11.5168 27.842 11.4095 27.9763 11.3537C28.2366 11.2498 28.5744 11.3839 28.6832 11.6462C28.7394 11.7807 28.7355 11.9316 28.6814 12.0623C28.6275 12.1925 28.5237 12.3021 28.3887 12.3581C28.254 12.4136 28.1078 12.4122 27.9727 12.3563Z" fill="#5C546A"/>
<path d="M27.0073 12.2798C26.9504 12.0321 26.7295 11.8564 26.478 11.8585L15.6271 11.8633C15.5027 11.8634 15.3817 11.9063 15.2849 11.9849L6.60702 19.0422C6.42901 19.187 6.36123 19.4284 6.43851 19.6451C6.4909 19.7929 6.60311 19.907 6.74217 19.9645C6.80678 19.9912 6.87695 20.0059 6.94991 20.0057L11.8327 20.0033C11.9142 20.0032 11.9946 19.9849 12.0678 19.9492L26.7139 12.8895C26.9421 12.7798 27.064 12.5269 27.0073 12.2798Z" fill="#B8BAC0"/>
<path d="M35.7928 11.3117L33.9409 11.3124C33.6416 11.3125 33.3988 11.5555 33.3987 11.8553C33.3987 12.0812 33.5375 12.2751 33.7339 12.3564C33.798 12.3829 33.8682 12.3976 33.9416 12.3976L36.1903 12.3967C36.1256 12.0111 35.9884 11.6474 35.7928 11.3117Z" fill="#5C546A"/>
</g>
<defs>
<clipPath id="clip0_243_5780">
<rect width="40.5787" height="24" fill="white"/>
</clipPath>
</defs>
</svg>
