<?xml version="1.0" encoding="utf-8"?><!-- Uploaded to: SVG Repo, www.svgrepo.com, Generator: SVG Repo Mixer Tools -->
<svg width="800px" height="800px" viewBox="0 0 128 128" xmlns="http://www.w3.org/2000/svg" xmlns:xlink="http://www.w3.org/1999/xlink" aria-hidden="true" role="img" class="iconify iconify--noto" preserveAspectRatio="xMidYMid meet"><linearGradient id="IconifyId17ecdb2904d178eab5761" x1="1448.8" x2="1565.4" y1="-1698.3" y2="-1698.3" gradientTransform="translate(-1439.5 1765.5)" gradientUnits="userSpaceOnUse"><stop stop-color="#FFB300" offset=".128"></stop><stop stop-color="#FFCA28" offset=".647"></stop></linearGradient><path d="M78.23 108.17c-15.57 0-24.59-.54-26.8-1.59c-5.12-2.45-5.57-7.65-4.98-9.79c.75-2.73-1.77-5.1-2.89-5.99c-1.06-.85-2.5-2.25-3.31-4.14c-1-2.34-1.19-4.5-.56-6.43c.73-2.22.03-4.72-1.74-6.23c-2.35-2-4.76-5.65-2.94-11.71a1.492 1.492 0 0 0-1.43-1.93l-19.59.04c-2.61 0-8.34-2.21-8.34-8.79c0-5.59 5.92-6.85 7.99-6.85l57.07-.12c.82 0 1.48-.66 1.5-1.48c.01-.82-.63-1.5-1.45-1.52c-.03-.01-1.79-.25-8.53-4.13c-6.71-3.88-10.73-7.76-8.48-14.1c1.15-3.23 4.8-3.58 6.31-3.58c1.92 0 3.52.49 4.2.94c5.37 3.58 10.57 5.69 16.08 7.93c5.82 2.36 11.85 4.8 18.69 9.25c1.27.83 2.4 1.85 3.33 3.04c4.37 5.55 10.05 9.27 16.42 10.75l1.29.3c1.12.26 1.92 1.25 1.93 2.41l.34 39.69c.01 1.13-.73 2.13-1.82 2.44c-.09.02-.17.06-.25.1c-.24.11-23.68 11.46-40.13 11.49h-1.91z" fill="url(#IconifyId17ecdb2904d178eab5761)"></path><path d="M60.06 21.33c1.76 0 3.03.46 3.37.69c5.5 3.67 10.77 5.81 16.35 8.07c5.76 2.34 11.71 4.75 18.44 9.12c1.14.74 2.14 1.65 2.97 2.71c4.59 5.82 10.55 9.72 17.25 11.29l1.29.3c.45.1.77.5.77.96l.35 39.7c.01.45-.29.85-.73.97c-.17.05-.34.11-.5.19c-.23.11-23.36 11.31-39.47 11.34h-1.91c-20.14 0-25.04-.91-26.17-1.45c-4.22-2.02-4.64-6.36-4.18-8.04c.69-2.53-.55-5.28-3.41-7.56c-.93-.74-2.18-1.96-2.86-3.55c-.85-2-1.03-3.8-.51-5.37a7.28 7.28 0 0 0-2.19-7.84c-2.92-2.49-3.75-5.9-2.48-10.14c.27-.91.1-1.89-.47-2.66a3.012 3.012 0 0 0-2.41-1.21h-.01l-19.58.04c-1.36 0-6.84-1.3-6.84-7.29c0-5.12 6.43-5.35 6.5-5.35l57.05-.12h.03c.08 0 .16 0 .24-.01c1.61-.12 2.82-1.5 2.76-3.11c-.06-1.51-1.25-2.73-2.73-2.87c-.3-.07-2.25-.62-8.01-3.95c-8.42-4.86-9.23-8.31-7.81-12.3c.8-2.22 3.42-2.56 4.9-2.56m0-3c-3.09 0-6.51 1.14-7.73 4.58c-2.23 6.28.58 10.96 9.14 15.9c7.14 4.12 8.99 4.33 9.23 4.33h.03h-.02l-57.07.12c-3.15 0-9.49 2-9.49 8.35c0 7.67 6.67 10.29 9.84 10.29l19.59-.04c-2.09 6.96.88 11.13 3.4 13.28c1.32 1.13 1.82 2.97 1.28 4.62c-.57 1.74-.77 4.26.61 7.48c.9 2.1 2.43 3.67 3.75 4.72s2.83 2.8 2.38 4.42c-.81 2.98.16 8.85 5.78 11.54c3.16 1.51 16.28 1.74 27.47 1.74h1.92c17-.04 40.78-11.64 40.78-11.64a3.997 3.997 0 0 0 2.91-3.89l-.35-39.69a4.005 4.005 0 0 0-3.09-3.85l-1.29-.3c-6.24-1.45-11.61-5.19-15.58-10.22c-.94-1.19-2.15-2.36-3.69-3.37c-13.46-8.74-23.88-9.92-34.76-17.17c-1.02-.68-2.95-1.2-5.04-1.2z" fill="#EDA600"></path><path d="M53.71 59.36l-21.17-.46l1.7 2.45c0 .59.77 1.04 1.65.97l17.84-.77c1.78-.14 1.76-2.1-.02-2.19z" fill="#EDA600"></path><path d="M78.73 43.2l-6.97-2.81l-2.47-.94l.87 3.32l.94 3.23l7.48-.09c1.38.01 1.24-2.15.15-2.71z" fill="#EDA600"></path><path d="M54.11 76.47l-13.07-.77c-.59-.05-.25 2.52-.25 2.52c0 .59.53 1.04 1.13.97l12.23-.77c1.21-.13 1.18-1.85-.04-1.95z" fill="#EDA600"></path><path d="M53.88 93.1l-7.04-.77c-.32-.05-.13 2.52-.13 2.52c0 .59.28 1.04.61.97l6.58-.77c.65-.14.63-1.86-.02-1.95z" fill="#EDA600"></path></svg>