<svg width="28" height="28" viewBox="0 0 28 28" fill="none" xmlns="http://www.w3.org/2000/svg">
<g clip-path="url(#clip0_340_3552)">
<rect width="28" height="28" rx="14" fill="url(#paint0_linear_340_3552)"/>
<path d="M34.2848 7.63813C34.6648 7.28417 35.1744 7.06763 35.7346 7.06763C36.6038 7.06763 37.3513 7.589 37.6816 8.33618V21.7257H5.26439C5.7421 20.516 6.92142 19.6602 8.30057 19.6602C8.40068 19.6602 8.49974 19.6647 8.59756 19.6735C8.9146 18.9985 9.60038 18.5311 10.3953 18.5311C10.873 18.5311 11.3113 18.6999 11.6538 18.981C11.9058 18.1738 12.659 17.588 13.549 17.588C14.0249 17.588 14.4617 17.7555 14.8037 18.0348C15.0392 16.5874 16.2947 15.4826 17.8082 15.4826C18.6268 15.4826 19.3699 15.8058 19.917 16.3316C20.2228 15.2181 21.2421 14.4 22.4525 14.4L22.4633 14.4C22.4561 14.3091 22.4525 14.2171 22.4525 14.1244C22.4525 12.4446 23.6478 11.0442 25.2339 10.7277C25.3418 8.91197 26.8479 7.47277 28.6902 7.47277C29.9965 7.47277 31.1338 8.19643 31.7235 9.26485C31.8601 9.22243 32.0054 9.19959 32.1559 9.19959L32.1774 9.19975C32.1611 9.11252 32.1526 9.02256 32.1526 8.9306C32.1526 8.12546 32.8051 7.47277 33.61 7.47277C33.8535 7.47277 34.083 7.53251 34.2848 7.63813Z" fill="#CFEEFF"/>
<path d="M33.5596 14.0381C33.8312 13.7851 34.1954 13.6304 34.5958 13.6304C35.217 13.6304 35.7512 14.003 35.9873 14.5369V24.1056L31.7291 29.253L12.8192 24.1056C13.1607 23.2411 14.0035 22.6295 14.9892 22.6295C15.0607 22.6295 15.1315 22.6327 15.2014 22.639C15.428 22.1566 15.9181 21.8226 16.4862 21.8226C16.8276 21.8226 17.1408 21.9432 17.3856 22.1441C17.5658 21.5673 18.1041 21.1486 18.7401 21.1486C19.0803 21.1486 19.3924 21.2683 19.6368 21.4679C19.8052 20.4336 20.7024 19.644 21.7841 19.644C22.3691 19.644 22.9002 19.875 23.2912 20.2508C23.5098 19.455 24.2383 18.8703 25.1033 18.8703L25.111 18.8704C25.1059 18.8054 25.1033 18.7397 25.1033 18.6734C25.1033 17.473 25.9575 16.4722 27.0911 16.246C27.1682 14.9484 28.2446 13.9199 29.5613 13.9199C30.4949 13.9199 31.3077 14.4371 31.7291 15.2006C31.8267 15.1703 31.9306 15.154 32.0382 15.154L32.0535 15.1541C32.0419 15.0917 32.0358 15.0274 32.0358 14.9617C32.0358 14.3863 32.5021 13.9199 33.0774 13.9199C33.2514 13.9199 33.4154 13.9626 33.5596 14.0381Z" fill="#F7FEFE"/>
<path d="M-1.75771 12.369C-2.19032 11.9659 -2.77053 11.7192 -3.40829 11.7192C-4.39791 11.7192 -5.24893 12.3131 -5.625 13.1641V28.4147H31.2816C30.7378 27.0368 29.3951 26.062 27.825 26.062C27.711 26.062 27.5982 26.0672 27.4869 26.0772C27.1259 25.3084 26.3452 24.776 25.4401 24.776C24.8963 24.776 24.3973 24.9683 24.0074 25.2885C23.7204 24.3691 22.8629 23.7018 21.8497 23.7018C21.3079 23.7018 20.8106 23.8926 20.4212 24.2108C20.1531 22.5622 18.7237 21.3038 17.0007 21.3038C16.0687 21.3038 15.2227 21.6719 14.5998 22.2708C14.2516 21.0025 13.0912 20.0707 11.7132 20.0707L11.7009 20.0708C11.7091 19.9672 11.7132 19.8625 11.7132 19.7568C11.7132 17.8436 10.3524 16.2485 8.54657 15.8881C8.42378 13.8199 6.70902 12.1807 4.61167 12.1807C3.12445 12.1807 1.8296 13.0049 1.15831 14.2219C1.00275 14.1735 0.83738 14.1475 0.66594 14.1475L0.641491 14.1477C0.66002 14.0484 0.669719 13.9459 0.669719 13.8412C0.669719 12.9241 -0.0731182 12.1807 -0.989454 12.1807C-1.26667 12.1807 -1.52801 12.2487 -1.75771 12.369Z" fill="#CFEEFF"/>
<path d="M-5.15107 17.3215C-5.46026 17.0337 -5.87493 16.8577 -6.33075 16.8577C-7.03803 16.8577 -7.64626 17.2816 -7.91504 17.889V28.7752H18.4623C18.0736 27.7917 17.114 27.0959 15.9918 27.0959C15.9103 27.0959 15.8297 27.0995 15.7502 27.1067C15.4922 26.5579 14.9342 26.1779 14.2874 26.1779C13.8987 26.1779 13.5421 26.3151 13.2634 26.5437C13.0583 25.8874 12.4454 25.4111 11.7212 25.4111C11.334 25.4111 10.9786 25.5473 10.7003 25.7744C10.5087 24.5976 9.48711 23.6993 8.25562 23.6993C7.58955 23.6993 6.98489 23.9621 6.53974 24.3896C6.29086 23.4843 5.46148 22.8192 4.47667 22.8192L4.46786 22.8192C4.47369 22.7452 4.47667 22.6705 4.47667 22.5951C4.47667 21.2294 3.50407 20.0908 2.21344 19.8335C2.12569 18.3572 0.90014 17.1871 -0.598844 17.1871C-1.66177 17.1871 -2.5872 17.7754 -3.06697 18.6441C-3.17816 18.6096 -3.29635 18.591 -3.41888 18.591L-3.43635 18.5912C-3.42311 18.5202 -3.41618 18.4471 -3.41618 18.3723C-3.41618 17.7177 -3.94708 17.1871 -4.60199 17.1871C-4.80012 17.1871 -4.9869 17.2356 -5.15107 17.3215Z" fill="#F7FEFE"/>
<path d="M17.5915 8.45201C16.833 7.98985 15.7466 7.68237 15.1316 8.5545C14.8036 9.01852 15.113 9.88693 15.7894 10.0826C16.9337 10.4162 17.1331 10.828 17.366 11.1616C17.6474 11.5529 17.9139 12.043 18.3891 12.1194C18.8643 12.1958 19.1345 11.838 19.114 11.1485C19.1103 10.0453 18.5344 9.02411 17.5915 8.45201Z" fill="#FF847A"/>
<path d="M6.92547 15.1886C8.56126 21.0494 14.451 23.5208 16.5656 22.9278C18.6803 22.3348 22.3174 16.7421 20.8023 11.3113C19.7301 7.47857 15.7552 5.24225 11.9225 6.31441C8.08984 7.38657 5.85352 11.3615 6.92568 15.1942L6.92547 15.1886Z" fill="#F44336"/>
<path d="M15.2381 6.85583C14.3953 6.77992 13.3364 6.97367 13.1747 7.97596C13.088 8.50956 13.7162 9.12063 14.3772 9.0036C15.4965 8.80785 15.8395 9.07553 16.1785 9.26235C16.5832 9.47811 17.0164 9.78441 17.4552 9.6501C17.8941 9.5158 17.9757 9.09708 17.6697 8.51739C17.205 7.57767 16.2848 6.9481 15.2381 6.85583Z" fill="#FF847A"/>
<path d="M17.1022 24.9317C17.805 26.013 16.0838 27.253 16.9104 28.4004C18.1504 30.1217 21.1795 27.0681 22.5921 30.8436C23.5913 34.0454 17.9342 37.6849 10.0378 36.4015" stroke="#64B5F6" stroke-width="0.55906" stroke-miterlimit="10"/>
<path d="M16.6306 25.45L17.672 25.224C17.7533 25.2068 17.8295 25.1707 17.8945 25.1187C17.9594 25.0667 18.0113 25.0003 18.046 24.9246C18.0806 24.849 18.0971 24.7663 18.094 24.6832C18.091 24.6001 18.0686 24.5188 18.0285 24.4459C17.6639 23.7881 17.1872 23.199 16.6198 22.7053C16.5582 23.2466 16.2697 24.0949 16.0219 24.742C15.9879 24.8314 15.9787 24.9283 15.9952 25.0225C16.0117 25.1166 16.0533 25.2046 16.1156 25.2771C16.1779 25.3496 16.2587 25.404 16.3493 25.4344C16.44 25.4648 16.5371 25.4702 16.6306 25.45Z" fill="#F44336"/>
<path d="M16.3358 24.0597L17.288 23.7942C17.5888 23.7101 17.7654 23.3994 17.6812 23.0986C17.5971 22.7978 17.2864 22.6213 16.9856 22.7054L16.0278 22.9711C15.7271 23.0552 15.5505 23.3659 15.6346 23.6667C15.7188 23.9675 16.0294 24.144 16.3302 24.0599L16.3358 24.0597Z" fill="#C62828"/>
<path d="M18.4587 14.1148C18.347 13.9992 18.1973 13.9278 18.0371 13.9137C17.8769 13.8996 17.717 13.9437 17.5868 14.0379C16.6685 14.6173 15.475 15.0593 14.2422 15.3901C13.0539 15.7131 11.8252 15.8629 10.5941 15.8349C10.4342 15.8182 10.2736 15.8598 10.1419 15.952C10.0102 16.0442 9.91607 16.1807 9.8769 16.3367C9.80024 16.6565 9.997 16.9509 10.1986 17.1963C11.3399 18.5749 13.1602 19.0946 15.087 18.5854L15.1048 18.5806C17.0301 18.0658 18.313 16.7808 18.609 15.0203C18.6612 14.707 18.6848 14.3537 18.4587 14.1148Z" fill="white"/>
<path d="M12.1382 13.9782L12.1155 13.9604L12.0513 13.912L11.9754 13.8643C11.9434 13.843 11.9074 13.824 11.8718 13.8026C11.8362 13.7811 11.7943 13.7625 11.7569 13.7474C11.722 13.7329 11.6852 13.7201 11.6473 13.7123C11.6218 13.706 11.5946 13.7026 11.5676 13.7038C11.5595 13.7048 11.5516 13.7069 11.5442 13.7101L11.5253 13.7151L11.5553 13.7071L11.4941 13.7235C11.4885 13.725 11.4774 13.7279 11.4941 13.7235L11.503 13.7211L11.4908 13.7244C11.4667 13.7368 11.4446 13.7522 11.4248 13.7718C11.3972 13.7983 11.3703 13.8269 11.3473 13.8569C11.3216 13.89 11.2976 13.9251 11.2764 13.9618C11.2326 14.0343 11.1949 14.1028 11.1731 14.1551L11.1331 14.2374L11.1155 14.2743C11.0611 14.3814 10.969 14.4647 10.8569 14.5081C10.7448 14.5515 10.6206 14.552 10.5082 14.5094C10.4358 14.4832 10.3723 14.437 10.325 14.3762C10.2777 14.3154 10.2486 14.2425 10.2411 14.1658C10.2411 14.1658 10.237 14.1192 10.237 14.0346C10.2403 13.9132 10.2579 13.7917 10.2895 13.6735C10.3395 13.4813 10.4285 13.3013 10.5511 13.1445C10.6315 13.0395 10.7273 12.9471 10.8359 12.8716C10.8657 12.8493 10.8975 12.8301 10.9296 12.8119C10.9634 12.791 10.998 12.7734 11.0341 12.7566L11.0993 12.7284L11.1542 12.7066L11.3601 12.6515C11.398 12.6414 11.4374 12.6416 11.4756 12.6373C11.5501 12.6305 11.6264 12.6304 11.7011 12.6379C11.8329 12.6491 11.962 12.6814 12.0841 12.7322C12.2686 12.8069 12.4355 12.9185 12.5748 13.0601C12.6247 13.1087 12.6712 13.1619 12.7123 13.2177C12.7468 13.2621 12.778 13.3074 12.8065 13.3559C12.8214 13.3805 12.8352 13.4054 12.8457 13.4312L12.8532 13.4591C12.9473 13.6772 12.8458 13.9309 12.6277 14.025C12.6224 14.0276 12.6168 14.0291 12.6116 14.0317C12.4553 14.0985 12.2756 14.0774 12.1382 13.9782Z" fill="#810606"/>
<path d="M16.5289 12.804L16.5052 12.7865L16.4409 12.7381L16.365 12.6905C16.3331 12.6692 16.297 12.6502 16.2614 12.6287C16.2259 12.6072 16.1839 12.5886 16.1465 12.5736C16.1116 12.5591 16.0748 12.5463 16.037 12.5385C16.0115 12.5322 15.9843 12.5287 15.9572 12.53C15.9492 12.531 15.9413 12.5331 15.9338 12.5363L15.9149 12.5413L15.945 12.5333L15.8838 12.5497C15.8782 12.5511 15.8671 12.5541 15.8838 12.5497L15.8927 12.5473L15.8804 12.5505C15.8563 12.563 15.8342 12.5784 15.8144 12.598C15.7866 12.6233 15.7611 12.6528 15.7381 12.6828C15.7113 12.7162 15.6872 12.7513 15.666 12.7879C15.6222 12.8605 15.5845 12.929 15.5627 12.9813L15.5227 13.0635L15.5063 13.1001C15.4516 13.2074 15.3593 13.2907 15.2471 13.3342C15.1348 13.3776 15.0105 13.3781 14.8979 13.3356C14.8254 13.3094 14.7619 13.2632 14.7146 13.2024C14.6674 13.1416 14.6383 13.0687 14.6307 12.992C14.6307 12.992 14.6266 12.9454 14.6277 12.8604C14.6308 12.738 14.6472 12.6167 14.6803 12.4994C14.7302 12.3072 14.8181 12.1275 14.9407 11.9707C15.0212 11.8657 15.1169 11.7733 15.2255 11.6978C15.2553 11.6755 15.2871 11.6562 15.3193 11.6381C15.353 11.6172 15.3877 11.5996 15.4237 11.5828L15.49 11.5543L15.5439 11.5327L15.7498 11.4777C15.7876 11.4676 15.827 11.4678 15.8652 11.4635C15.9408 11.4564 16.016 11.4566 16.0907 11.464C16.2225 11.4753 16.3516 11.5076 16.4737 11.5584C16.6582 11.6331 16.8252 11.7446 16.9644 11.8863C17.0144 11.9349 17.0608 11.9881 17.102 12.0439C17.1362 12.0872 17.1674 12.1325 17.1955 12.1798C17.2105 12.2045 17.2243 12.2294 17.2348 12.2552L17.2422 12.283C17.2883 12.3875 17.291 12.5061 17.2498 12.6126C17.2085 12.7191 17.1266 12.8049 17.0221 12.8511C17.0187 12.852 17.0157 12.854 17.0123 12.8549C16.854 12.927 16.6686 12.9074 16.5289 12.804Z" fill="#810606"/>
<path d="M18.4759 14.5423C18.4676 14.5516 17.9236 15.242 16.733 15.9134L16.3968 14.6558C16.2569 14.717 16.1129 14.7758 15.9671 14.8327L16.3146 16.1325C15.8245 16.3733 15.3133 16.5708 14.7888 16.723L14.4192 15.3408L13.974 15.4598L14.3436 16.842C14.3918 16.8303 14.3921 16.8314 14.3442 16.8442L14.3414 16.8426C13.8237 16.9715 13.2976 17.0597 12.766 17.1052L12.4033 15.7486C12.2466 15.7691 12.0923 15.7853 11.9397 15.7986L12.2959 17.1308C10.8968 17.1698 10.1022 16.8468 10.0912 16.8414C10.0465 16.8222 9.99686 16.8179 9.94958 16.8292C10.0182 16.9611 10.1016 17.0855 10.1987 17.199C10.2606 17.2743 10.3249 17.3454 10.3914 17.4158C11.0556 17.5685 11.738 17.6269 12.4185 17.5893L12.7119 18.6866C12.8753 18.718 13.0414 18.7416 13.2073 18.7556L12.8874 17.5593C13.4175 17.5082 13.9442 17.4174 14.4604 17.2878L14.4632 17.2894L14.461 17.29L14.8243 18.6488C14.91 18.6259 14.9992 18.6116 15.0871 18.5881L15.2719 18.5387L14.9056 17.1687C15.4304 17.0177 15.9425 16.8235 16.4366 16.5888L16.7702 17.8364C16.9079 17.7447 17.0409 17.6448 17.1675 17.5382L16.8565 16.3752C17.4937 16.0379 18.0788 15.6084 18.592 15.1015C18.5966 15.074 18.604 15.0482 18.6086 15.0208C18.6458 14.8343 18.6519 14.6431 18.6242 14.4549C18.5657 14.4634 18.5123 14.4956 18.4759 14.5423Z" fill="#DFDFDF"/>
<path d="M18.4881 14.0381C18.3752 13.9222 18.2246 13.8505 18.0634 13.8361C17.9023 13.8217 17.7413 13.8654 17.6096 13.9594C16.5568 14.5974 15.417 15.0799 14.2269 15.3921C13.039 15.7159 11.8105 15.8664 10.5795 15.8391C10.4198 15.8228 10.2596 15.8644 10.1281 15.9565C9.99658 16.0486 9.90263 16.185 9.86338 16.3406C9.78672 16.6604 9.98237 16.9551 10.185 17.2002C10.2754 17.3108 10.3719 17.4174 10.4738 17.5177C10.4738 17.5177 10.0086 16.7144 10.1439 16.4087C10.1638 16.347 10.1981 16.291 10.2439 16.2451C10.2897 16.1993 10.3457 16.165 10.4073 16.1451C10.4596 16.1311 10.5132 16.1263 10.5675 16.1285C11.8207 16.1595 13.072 16.0097 14.2834 15.6835L14.3223 15.6731C15.5349 15.3512 16.694 14.8565 17.7645 14.2042C17.8104 14.1752 17.8592 14.1526 17.9115 14.1386C18.0402 14.1114 18.1749 14.1469 18.2725 14.2353C18.5456 14.4317 18.541 15.3643 18.541 15.3643C18.5781 15.2268 18.6144 15.0859 18.6383 14.9436C18.6905 14.6303 18.7144 14.2781 18.4881 14.0381Z" fill="#D3362B"/>
</g>
<defs>
<linearGradient id="paint0_linear_340_3552" x1="14" y1="0" x2="13.991" y2="13.0354" gradientUnits="userSpaceOnUse">
<stop stop-color="#01C4FA"/>
<stop offset="1" stop-color="#C1ECFE"/>
</linearGradient>
<clipPath id="clip0_340_3552">
<rect width="28" height="28" rx="14" fill="white"/>
</clipPath>
</defs>
</svg>
