<svg width="27" height="20" viewBox="0 0 27 20" fill="none" xmlns="http://www.w3.org/2000/svg">
<path d="M15.9401 19.9998H11.225C10.9182 19.9998 10.639 19.8473 10.5107 19.6107L8.93914 16.7014C8.75781 16.3651 8.93111 15.9701 9.32539 15.8159C9.72025 15.6624 10.1865 15.81 10.3679 16.1442L16.8058 16.3025C16.997 15.9711 17.4666 15.8334 17.858 15.9956C18.2471 16.1569 18.4095 16.5568 18.2195 16.8872L16.6469 19.6244C16.5157 19.8531 16.2417 19.9998 15.9401 19.9998Z" fill="url(#paint0_linear_252_6308)"/>
<path d="M17.5446 16.3026C17.7358 15.9712 17.4666 15.8336 17.858 15.9957C18.2471 16.157 18.4095 16.5568 18.2196 16.8872L16.647 19.6245C16.5159 19.8532 16.2418 19.9999 15.9402 20H14.604C14.9056 19.9999 15.1797 19.8532 15.3108 19.6245L16.8835 16.8872C16.997 16.6897 16.9845 16.4674 16.873 16.286L17.5446 16.3026Z" fill="url(#paint1_linear_252_6308)"/>
<path d="M0.624305 17.7666C1.76911 17.7077 3.19624 17.1077 4.9062 15.9671C5.03313 15.8824 5.19633 15.8727 5.33296 15.9407C3.11389 14.5446 1.61478 13.0278 1.14261 12.4439C1.26868 12.6329 1.35514 12.8482 1.35864 13.075C1.3767 14.2485 1.00016 15.4689 0.226677 16.7364L0.120213 16.9075C-0.0460555 17.1688 0.0316151 17.515 0.294024 17.6807C0.392434 17.7428 0.507958 17.7726 0.624305 17.7666Z" fill="url(#paint2_linear_252_6308)"/>
<path d="M26.429 8.84294C26.429 3.95912 20.5126 0 13.2145 0C5.91632 0 0 3.95912 0 8.84294C0 10.1254 0.408274 11.3439 1.14217 12.4439C1.87606 13.5439 3.99766 15.2758 5.33252 15.9407C7.53305 17.0368 10.2605 17.6859 13.2145 17.6859C20.5126 17.6859 26.429 13.7268 26.429 8.84294Z" fill="url(#paint3_linear_252_6308)"/>
<path d="M13.3628 0.701111C16.5718 0.701111 19.4982 1.46969 21.7112 2.73297C19.6083 2.04308 17.1827 1.64972 14.6002 1.64972C8.56946 1.64972 3.39515 3.79469 1.18506 6.85163C2.463 3.32821 7.43014 0.701113 13.3628 0.701111Z" fill="#F3FDC3"/>
<g filter="url(#filter0_d_252_6308)">
<path d="M16.5466 9.83575C15.9831 9.83575 15.5263 9.37895 15.5263 8.81546C15.5263 8.25197 15.9831 7.79517 16.5466 7.79517C17.1101 7.79517 17.5669 8.25197 17.5669 8.81546C17.5669 9.37895 17.1101 9.83575 16.5466 9.83575Z" fill="#FFFDFA"/>
</g>
<g filter="url(#filter1_d_252_6308)">
<path d="M13.2077 9.83575C12.6442 9.83575 12.1874 9.37895 12.1874 8.81546C12.1874 8.25197 12.6442 7.79517 13.2077 7.79517C13.7712 7.79517 14.228 8.25197 14.228 8.81546C14.228 9.37895 13.7712 9.83575 13.2077 9.83575Z" fill="#FFFDFA"/>
</g>
<g filter="url(#filter2_d_252_6308)">
<path d="M9.88791 9.83575C9.32442 9.83575 8.86762 9.37895 8.86762 8.81546C8.86762 8.25197 9.32442 7.79517 9.88791 7.79517C10.4514 7.79517 10.9082 8.25197 10.9082 8.81546C10.9082 9.37895 10.4514 9.83575 9.88791 9.83575Z" fill="#FFFDFA"/>
</g>
<path d="M24.0595 3.79449C25.545 5.22456 26.4176 6.96001 26.4176 8.83359C26.4176 10.7041 25.5472 12.4363 24.0663 13.865C23.7512 13.3782 23.4829 12.8935 23.3239 12.4923C22.886 11.3872 22.6426 10.1628 22.6426 8.87436C22.6426 6.98502 23.1671 5.23425 24.0595 3.79449Z" fill="#A4F0A6"/>
<path d="M24.0601 3.79437C24.4625 4.18181 24.8182 4.59297 25.1255 5.02191C24.6265 6.18722 24.3462 7.49389 24.3462 8.87445C24.3462 10.1628 24.59 11.3876 25.0278 12.4926C25.0508 12.5506 25.0786 12.6091 25.106 12.6703C24.8047 13.0871 24.4581 13.4872 24.0669 13.8647C23.7518 13.378 23.4827 12.8938 23.3237 12.4926C22.8859 11.3876 22.6431 10.1628 22.6431 8.87445C22.6431 6.98511 23.1676 5.23412 24.0601 3.79437Z" fill="#95E097"/>
<path d="M25.3862 10.7857C24.0936 14.2963 19.1406 16.9127 13.2222 16.9127C10.4287 16.9126 7.84902 16.3296 5.76807 15.3453C5.38544 15.1643 4.93516 14.8942 4.47314 14.5797C6.68797 15.3761 9.29408 15.8374 12.0845 15.8375C18.0154 15.8375 23.1168 13.762 25.3862 10.7857Z" fill="white" fill-opacity="0.3"/>
<defs>
<filter id="filter0_d_252_6308" x="15.4026" y="7.79517" width="2.37048" height="2.41178" filterUnits="userSpaceOnUse" color-interpolation-filters="sRGB">
<feFlood flood-opacity="0" result="BackgroundImageFix"/>
<feColorMatrix in="SourceAlpha" type="matrix" values="0 0 0 0 0 0 0 0 0 0 0 0 0 0 0 0 0 0 127 0" result="hardAlpha"/>
<feOffset dx="0.0412438" dy="0.206219"/>
<feGaussianBlur stdDeviation="0.0824876"/>
<feComposite in2="hardAlpha" operator="out"/>
<feColorMatrix type="matrix" values="0 0 0 0 0 0 0 0 0 0 0 0 0 0 0 0 0 0 0.25 0"/>
<feBlend mode="normal" in2="BackgroundImageFix" result="effect1_dropShadow_252_6308"/>
<feBlend mode="normal" in="SourceGraphic" in2="effect1_dropShadow_252_6308" result="shape"/>
</filter>
<filter id="filter1_d_252_6308" x="12.0638" y="7.79517" width="2.37048" height="2.41178" filterUnits="userSpaceOnUse" color-interpolation-filters="sRGB">
<feFlood flood-opacity="0" result="BackgroundImageFix"/>
<feColorMatrix in="SourceAlpha" type="matrix" values="0 0 0 0 0 0 0 0 0 0 0 0 0 0 0 0 0 0 127 0" result="hardAlpha"/>
<feOffset dx="0.0412438" dy="0.206219"/>
<feGaussianBlur stdDeviation="0.0824876"/>
<feComposite in2="hardAlpha" operator="out"/>
<feColorMatrix type="matrix" values="0 0 0 0 0 0 0 0 0 0 0 0 0 0 0 0 0 0 0.25 0"/>
<feBlend mode="normal" in2="BackgroundImageFix" result="effect1_dropShadow_252_6308"/>
<feBlend mode="normal" in="SourceGraphic" in2="effect1_dropShadow_252_6308" result="shape"/>
</filter>
<filter id="filter2_d_252_6308" x="8.74394" y="7.79517" width="2.37048" height="2.41178" filterUnits="userSpaceOnUse" color-interpolation-filters="sRGB">
<feFlood flood-opacity="0" result="BackgroundImageFix"/>
<feColorMatrix in="SourceAlpha" type="matrix" values="0 0 0 0 0 0 0 0 0 0 0 0 0 0 0 0 0 0 127 0" result="hardAlpha"/>
<feOffset dx="0.0412438" dy="0.206219"/>
<feGaussianBlur stdDeviation="0.0824876"/>
<feComposite in2="hardAlpha" operator="out"/>
<feColorMatrix type="matrix" values="0 0 0 0 0 0 0 0 0 0 0 0 0 0 0 0 0 0 0.25 0"/>
<feBlend mode="normal" in2="BackgroundImageFix" result="effect1_dropShadow_252_6308"/>
<feBlend mode="normal" in="SourceGraphic" in2="effect1_dropShadow_252_6308" result="shape"/>
</filter>
<linearGradient id="paint0_linear_252_6308" x1="13.572" y1="16.3036" x2="13.572" y2="19.1414" gradientUnits="userSpaceOnUse">
<stop stop-color="#17762E"/>
<stop offset="1" stop-color="#2DBC4F"/>
</linearGradient>
<linearGradient id="paint1_linear_252_6308" x1="16.9126" y1="19.4626" x2="17.6228" y2="16.7638" gradientUnits="userSpaceOnUse">
<stop stop-color="#31C955"/>
<stop offset="1" stop-color="#207F3B"/>
</linearGradient>
<linearGradient id="paint2_linear_252_6308" x1="2.6809" y1="16.5387" x2="5.69169" y2="13.3629" gradientUnits="userSpaceOnUse">
<stop stop-color="#3BC14D"/>
<stop offset="1" stop-color="#107026"/>
</linearGradient>
<linearGradient id="paint3_linear_252_6308" x1="7.83632" y1="-1.691" x2="8.22814" y2="14.3528" gradientUnits="userSpaceOnUse">
<stop stop-color="#BFF56D"/>
<stop offset="1" stop-color="#28B34F"/>
</linearGradient>
</defs>
</svg>
