<svg width="32" height="32" viewBox="0 0 32 32" fill="none" xmlns="http://www.w3.org/2000/svg">
<g clip-path="url(#clip0_285_7028)">
<rect width="32" height="32" rx="4" fill="url(#paint0_linear_285_7028)"/>
<path d="M39.1828 8.72916C39.6171 8.32462 40.1995 8.07715 40.8397 8.07715C41.8331 8.07715 42.6874 8.673 43.0649 9.52692V24.8292H6.01665C6.56261 23.4467 7.91041 22.4686 9.48657 22.4686C9.60099 22.4686 9.7142 22.4738 9.82599 22.4839C10.1883 21.7124 10.9721 21.1782 11.8806 21.1782C12.4265 21.1782 12.9274 21.3711 13.3188 21.6925C13.6069 20.77 14.4677 20.1004 15.4848 20.1004C16.0287 20.1004 16.5279 20.2919 16.9187 20.6111C17.1879 18.9569 18.6227 17.6942 20.3524 17.6942C21.288 17.6942 22.1372 18.0636 22.7625 18.6645C23.112 17.3919 24.2769 16.457 25.6602 16.457L25.6725 16.457C25.6643 16.3531 25.6602 16.248 25.6602 16.142C25.6602 14.2223 27.0262 12.6218 28.839 12.2601C28.9622 10.185 30.6836 8.54017 32.789 8.54017C34.2819 8.54017 35.5817 9.3672 36.2556 10.5883C36.4118 10.5398 36.5778 10.5137 36.7499 10.5137L36.7744 10.5139C36.7558 10.4142 36.7461 10.3114 36.7461 10.2063C36.7461 9.2861 37.4917 8.54017 38.4116 8.54017C38.6899 8.54017 38.9522 8.60844 39.1828 8.72916Z" fill="#CFEEFF"/>
<path d="M38.3534 16.0436C38.6638 15.7545 39.0801 15.5776 39.5376 15.5776C40.2476 15.5776 40.8581 16.0035 41.1279 16.6137V27.5493L36.2614 33.4321L14.6501 27.5493C15.0403 26.5613 16.0036 25.8623 17.13 25.8623C17.2118 25.8623 17.2927 25.866 17.3726 25.8732C17.6316 25.3219 18.1917 24.9402 18.841 24.9402C19.2311 24.9402 19.5891 25.078 19.8689 25.3077C20.0748 24.6484 20.6899 24.1699 21.4169 24.1699C21.8056 24.1699 22.1624 24.3067 22.4417 24.5349C22.634 23.3527 23.6595 22.4504 24.8957 22.4504C25.5643 22.4504 26.1713 22.7143 26.6181 23.1438C26.8679 22.2343 27.7005 21.5662 28.689 21.5662L28.6979 21.5662C28.692 21.4919 28.689 21.4168 28.689 21.3411C28.689 19.9692 29.6653 18.8254 30.9609 18.5669C31.049 17.084 32.2792 15.9085 33.7839 15.9085C34.8508 15.9085 35.7798 16.4996 36.2614 17.3722C36.373 17.3375 36.4916 17.3189 36.6146 17.3189L36.6322 17.319C36.6189 17.2478 36.6119 17.1743 36.6119 17.0992C36.6119 16.4416 37.1449 15.9085 37.8023 15.9085C38.0012 15.9085 38.1886 15.9573 38.3534 16.0436Z" fill="#F7FEFE"/>
<path d="M-2.00895 14.1359C-2.50336 13.6752 -3.16646 13.3933 -3.89533 13.3933C-5.02633 13.3933 -5.99892 14.072 -6.42871 15.0446V32.4738H35.7503C35.1287 30.8991 33.5943 29.7851 31.7998 29.7851C31.6696 29.7851 31.5407 29.7909 31.4134 29.8024C31.0009 28.9237 30.1086 28.3153 29.0743 28.3153C28.4528 28.3153 27.8825 28.535 27.4369 28.9011C27.1089 27.8503 26.1289 27.0877 24.9709 27.0877C24.3517 27.0877 23.7833 27.3058 23.3384 27.6694C23.032 25.7853 21.3984 24.3471 19.4292 24.3471C18.3641 24.3471 17.3972 24.7678 16.6854 25.4523C16.2874 24.0028 14.9612 22.9379 13.3864 22.9379L13.3723 22.9379C13.3816 22.8195 13.3864 22.6999 13.3864 22.5791C13.3864 20.3926 11.8312 18.5696 9.76737 18.1577C9.62704 15.7941 7.66731 13.9207 5.27034 13.9207C3.57066 13.9207 2.09083 14.8627 1.32365 16.2534C1.14586 16.1982 0.956867 16.1685 0.760934 16.1685L0.732994 16.1687C0.75417 16.0552 0.765254 15.9381 0.765254 15.8184C0.765254 14.7703 -0.083703 13.9207 -1.13094 13.9207C-1.44777 13.9207 -1.74644 13.9984 -2.00895 14.1359Z" fill="#CFEEFF"/>
<path d="M-5.88658 19.796C-6.23995 19.4671 -6.71386 19.2659 -7.23479 19.2659C-8.04312 19.2659 -8.73824 19.7503 -9.04541 20.4446V32.886H21.1001C20.6559 31.7619 19.5592 30.9667 18.2767 30.9667C18.1836 30.9667 18.0915 30.9709 18.0005 30.9791C17.7057 30.3518 17.068 29.9176 16.3288 29.9176C15.8846 29.9176 15.477 30.0744 15.1585 30.3357C14.9241 29.5856 14.2237 29.0412 13.3961 29.0412C12.9535 29.0412 12.5473 29.1969 12.2293 29.4564C12.0103 28.1115 10.8428 27.0849 9.43535 27.0849C8.67413 27.0849 7.98308 27.3853 7.47433 27.8738C7.18991 26.8391 6.24204 26.079 5.11655 26.079L5.10648 26.079C5.11314 25.9945 5.11655 25.9091 5.11655 25.8229C5.11655 24.2621 4.005 22.9608 2.53 22.6668C2.4297 20.9796 1.02908 19.6423 -0.684044 19.6423C-1.89881 19.6423 -2.95646 20.3147 -3.50476 21.3075C-3.63183 21.2681 -3.7669 21.2469 -3.90694 21.2469L-3.92691 21.247C-3.91177 21.166 -3.90385 21.0824 -3.90385 20.9969C-3.90385 20.2488 -4.5106 19.6423 -5.25907 19.6423C-5.48551 19.6423 -5.69897 19.6978 -5.88658 19.796Z" fill="#F7FEFE"/>
<path d="M18.5743 24.6016H14.6441C14.3883 24.6016 14.1556 24.4745 14.0486 24.2773L12.7387 21.8522C12.5875 21.5719 12.732 21.2427 13.0606 21.1141C13.3898 20.9862 13.7784 21.1092 13.9296 21.3878L19.2959 21.5198C19.4553 21.2435 19.8467 21.1287 20.173 21.2639C20.4973 21.3984 20.6327 21.7317 20.4743 22.0071L19.1635 24.2887C19.0541 24.4794 18.8257 24.6016 18.5743 24.6016Z" fill="url(#paint1_linear_285_7028)"/>
<path d="M19.9121 21.5198C20.0714 21.2436 19.8471 21.1288 20.1733 21.264C20.4977 21.3984 20.633 21.7317 20.4747 22.0071L19.1639 24.2888C19.0546 24.4794 18.8261 24.6017 18.5747 24.6017H17.4609C17.7124 24.6017 17.9408 24.4794 18.0501 24.2888L19.361 22.0071C19.4556 21.8425 19.4452 21.6571 19.3522 21.506L19.9121 21.5198Z" fill="url(#paint2_linear_285_7028)"/>
<path d="M5.80757 22.7402C6.76182 22.6911 7.9514 22.191 9.37674 21.2402C9.48254 21.1697 9.61857 21.1615 9.73246 21.2182C7.88276 20.0545 6.63318 18.7902 6.2396 18.3035C6.34469 18.461 6.41676 18.6404 6.41967 18.8295C6.43473 19.8077 6.12086 20.825 5.47613 21.8814L5.38739 22.0241C5.24879 22.2419 5.31354 22.5305 5.53227 22.6685C5.6143 22.7203 5.71059 22.7452 5.80757 22.7402Z" fill="url(#paint3_linear_285_7028)"/>
<path d="M27.3169 15.3017C27.3169 11.2308 22.3854 7.93066 16.302 7.93066C10.2186 7.93066 5.28711 11.2308 5.28711 15.3017C5.28711 16.3707 5.62742 17.3864 6.23916 18.3033C6.8509 19.2201 8.61935 20.6638 9.73202 21.218C11.5663 22.1316 13.8397 22.6727 16.302 22.6727C22.3854 22.6727 27.3169 19.3726 27.3169 15.3017Z" fill="url(#paint4_linear_285_7028)"/>
<path d="M16.4257 8.51514C19.1005 8.51514 21.5398 9.15578 23.3844 10.2088C21.6315 9.63373 19.6097 9.30585 17.457 9.30585C12.4302 9.30585 8.11712 11.0938 6.2749 13.6419C7.34013 10.705 11.4805 8.51514 16.4257 8.51514Z" fill="#F3FDC3"/>
<g filter="url(#filter0_d_285_7028)">
<path d="M19.0792 16.1291C18.6095 16.1291 18.2288 15.7484 18.2288 15.2787C18.2288 14.809 18.6095 14.4282 19.0792 14.4282C19.5489 14.4282 19.9297 14.809 19.9297 15.2787C19.9297 15.7484 19.5489 16.1291 19.0792 16.1291Z" fill="#FFFDFA"/>
</g>
<g filter="url(#filter1_d_285_7028)">
<path d="M16.2965 16.1291C15.8268 16.1291 15.446 15.7484 15.446 15.2787C15.446 14.809 15.8268 14.4282 16.2965 14.4282C16.7662 14.4282 17.147 14.809 17.147 15.2787C17.147 15.7484 16.7662 16.1291 16.2965 16.1291Z" fill="#FFFDFA"/>
</g>
<g filter="url(#filter2_d_285_7028)">
<path d="M13.5289 16.1291C13.0592 16.1291 12.6785 15.7484 12.6785 15.2787C12.6785 14.809 13.0592 14.4282 13.5289 14.4282C13.9986 14.4282 14.3794 14.809 14.3794 15.2787C14.3794 15.7484 13.9986 16.1291 13.5289 16.1291Z" fill="#FFFDFA"/>
</g>
<path d="M25.3422 11.0938C26.5804 12.2858 27.3078 13.7324 27.3078 15.2941C27.3078 16.8532 26.5823 18.2971 25.3479 19.488C25.0852 19.0822 24.8616 18.6782 24.729 18.3438C24.364 17.4227 24.1611 16.402 24.1611 15.3281C24.1611 13.7532 24.5983 12.2939 25.3422 11.0938Z" fill="#A4F0A6"/>
<path d="M25.3418 11.0938C25.6772 11.4166 25.9743 11.7588 26.2305 12.1162C25.8143 13.0878 25.5801 14.177 25.5801 15.3281C25.5801 16.402 25.7825 17.4227 26.1475 18.3438C26.1669 18.3928 26.1907 18.4423 26.2139 18.4941C25.963 18.8411 25.6734 19.174 25.3477 19.4883C25.085 19.0825 24.8611 18.6782 24.7285 18.3438C24.3636 17.4227 24.1612 16.402 24.1611 15.3281C24.1611 13.7533 24.598 12.2938 25.3418 11.0938Z" fill="#95E097"/>
<path d="M26.4512 16.9138C25.378 19.8438 21.246 22.0281 16.3086 22.0281C13.9801 22.028 11.8303 21.5419 10.0957 20.7214C9.77923 20.5717 9.40841 20.3472 9.02637 20.0876C10.8702 20.7491 13.0389 21.1326 15.3604 21.1326C20.3082 21.1325 24.5619 19.3981 26.4512 16.9138Z" fill="white" fill-opacity="0.3"/>
</g>
<defs>
<filter id="filter0_d_285_7028" x="15.5854" y="14.4282" width="8.75022" height="9.63165" filterUnits="userSpaceOnUse" color-interpolation-filters="sRGB">
<feFlood flood-opacity="0" result="BackgroundImageFix"/>
<feColorMatrix in="SourceAlpha" type="matrix" values="0 0 0 0 0 0 0 0 0 0 0 0 0 0 0 0 0 0 127 0" result="hardAlpha"/>
<feOffset dx="0.881192" dy="4.40596"/>
<feGaussianBlur stdDeviation="1.76238"/>
<feComposite in2="hardAlpha" operator="out"/>
<feColorMatrix type="matrix" values="0 0 0 0 0 0 0 0 0 0 0 0 0 0 0 0 0 0 0.25 0"/>
<feBlend mode="normal" in2="BackgroundImageFix" result="effect1_dropShadow_285_7028"/>
<feBlend mode="normal" in="SourceGraphic" in2="effect1_dropShadow_285_7028" result="shape"/>
</filter>
<filter id="filter1_d_285_7028" x="12.8022" y="14.4282" width="8.75071" height="9.63165" filterUnits="userSpaceOnUse" color-interpolation-filters="sRGB">
<feFlood flood-opacity="0" result="BackgroundImageFix"/>
<feColorMatrix in="SourceAlpha" type="matrix" values="0 0 0 0 0 0 0 0 0 0 0 0 0 0 0 0 0 0 127 0" result="hardAlpha"/>
<feOffset dx="0.881192" dy="4.40596"/>
<feGaussianBlur stdDeviation="1.76238"/>
<feComposite in2="hardAlpha" operator="out"/>
<feColorMatrix type="matrix" values="0 0 0 0 0 0 0 0 0 0 0 0 0 0 0 0 0 0 0.25 0"/>
<feBlend mode="normal" in2="BackgroundImageFix" result="effect1_dropShadow_285_7028"/>
<feBlend mode="normal" in="SourceGraphic" in2="effect1_dropShadow_285_7028" result="shape"/>
</filter>
<filter id="filter2_d_285_7028" x="10.0351" y="14.4282" width="8.75022" height="9.63165" filterUnits="userSpaceOnUse" color-interpolation-filters="sRGB">
<feFlood flood-opacity="0" result="BackgroundImageFix"/>
<feColorMatrix in="SourceAlpha" type="matrix" values="0 0 0 0 0 0 0 0 0 0 0 0 0 0 0 0 0 0 127 0" result="hardAlpha"/>
<feOffset dx="0.881192" dy="4.40596"/>
<feGaussianBlur stdDeviation="1.76238"/>
<feComposite in2="hardAlpha" operator="out"/>
<feColorMatrix type="matrix" values="0 0 0 0 0 0 0 0 0 0 0 0 0 0 0 0 0 0 0.25 0"/>
<feBlend mode="normal" in2="BackgroundImageFix" result="effect1_dropShadow_285_7028"/>
<feBlend mode="normal" in="SourceGraphic" in2="effect1_dropShadow_285_7028" result="shape"/>
</filter>
<linearGradient id="paint0_linear_285_7028" x1="16" y1="0" x2="15.9897" y2="14.8976" gradientUnits="userSpaceOnUse">
<stop stop-color="#01C4FA"/>
<stop offset="1" stop-color="#C1ECFE"/>
</linearGradient>
<linearGradient id="paint1_linear_285_7028" x1="16.6004" y1="21.5207" x2="16.6004" y2="23.8861" gradientUnits="userSpaceOnUse">
<stop stop-color="#17762E"/>
<stop offset="1" stop-color="#2DBC4F"/>
</linearGradient>
<linearGradient id="paint2_linear_285_7028" x1="19.3853" y1="24.1538" x2="19.9772" y2="21.9043" gradientUnits="userSpaceOnUse">
<stop stop-color="#31C955"/>
<stop offset="1" stop-color="#207F3B"/>
</linearGradient>
<linearGradient id="paint3_linear_285_7028" x1="7.52184" y1="21.7167" x2="10.0315" y2="19.0695" gradientUnits="userSpaceOnUse">
<stop stop-color="#3BC14D"/>
<stop offset="1" stop-color="#107026"/>
</linearGradient>
<linearGradient id="paint4_linear_285_7028" x1="11.8191" y1="6.52114" x2="12.1457" y2="19.8944" gradientUnits="userSpaceOnUse">
<stop stop-color="#BFF56D"/>
<stop offset="1" stop-color="#28B34F"/>
</linearGradient>
<clipPath id="clip0_285_7028">
<rect width="32" height="32" rx="4" fill="white"/>
</clipPath>
</defs>
</svg>
