<svg width="64" height="24" viewBox="0 0 64 24" fill="none" xmlns="http://www.w3.org/2000/svg">
<path d="M64.0006 13.6692C64.0006 14.3386 63.6717 15.008 63.0121 15.3958C62.6226 15.625 62.2216 15.8279 61.8092 16.0063C61.3248 16.2158 60.8272 16.3909 60.3199 16.53C59.3821 16.7853 58.4083 16.9162 57.4263 16.9162H26.8474C25.0504 16.9162 23.2616 16.6708 21.5317 16.1863L5.50105 11.702C3.61731 11.175 3.20979 8.68734 4.82677 7.58754L1.88086 0H6.13606L17.2651 7.7512H57.1989C58.4525 7.7512 59.6407 8.35511 60.3412 9.38782C60.3624 9.414 60.3788 9.44019 60.3968 9.46801C60.7258 9.98191 61.1169 10.45 61.5572 10.8657C61.675 10.977 61.7978 11.085 61.9238 11.1881C61.932 11.1963 61.9401 11.2028 61.9483 11.2094C62.274 11.4761 62.6226 11.7167 62.9908 11.9278C63.6635 12.3125 64.0006 12.99 64.0006 13.6692Z" fill="#46C3E0"/>
<path d="M11.1277 8.4877H1.22746C0.549576 8.4877 0 7.93812 0 7.26024C0 6.58235 0.549576 6.03278 1.22746 6.03278H11.1277C11.8056 6.03278 12.3551 6.58235 12.3551 7.26024C12.3551 7.93812 11.8056 8.4877 11.1277 8.4877Z" fill="#67DCEF"/>
<path d="M61.9227 11.1881H58.4097C57.4162 11.1881 56.6094 10.3829 56.6094 9.38782H60.34C60.3613 9.414 60.3777 9.44019 60.3957 9.46801C60.7246 9.98191 61.1158 10.45 61.556 10.8657C61.6739 10.977 61.7966 11.085 61.9227 11.1881Z" fill="#ACF0EE"/>
<path d="M49.6532 12.0064C49.573 12.0064 49.4929 11.9982 49.4143 11.9819C49.3357 11.9671 49.2588 11.9426 49.1835 11.9131C49.1099 11.882 49.0379 11.8444 48.9724 11.8002C48.9053 11.7544 48.8415 11.7037 48.7858 11.6464C48.7286 11.5907 48.6778 11.5269 48.6336 11.4598C48.5894 11.3943 48.5502 11.3223 48.5207 11.2487C48.4896 11.175 48.4667 11.0981 48.4503 11.0195C48.434 10.9394 48.4258 10.8592 48.4258 10.779C48.4258 10.6988 48.434 10.6186 48.4503 10.5384C48.4667 10.4615 48.4896 10.3829 48.5207 10.3093C48.5502 10.2356 48.5894 10.1636 48.6336 10.0981C48.6778 10.031 48.7286 9.9672 48.7858 9.91156C48.8415 9.85428 48.9053 9.80354 48.9724 9.75771C49.0379 9.71353 49.1099 9.67588 49.1835 9.64643C49.2588 9.61533 49.3357 9.59078 49.4143 9.57605C49.812 9.49586 50.2359 9.62679 50.5223 9.91156C50.5779 9.9672 50.6287 10.031 50.6745 10.0981C50.7187 10.1636 50.7563 10.2356 50.7874 10.3093C50.8169 10.3829 50.8414 10.4615 50.8562 10.5384C50.8725 10.6186 50.8807 10.6988 50.8807 10.779C50.8807 10.8592 50.8725 10.9394 50.8562 11.0195C50.8414 11.0981 50.8169 11.175 50.7874 11.2487C50.7563 11.3223 50.7187 11.3943 50.6745 11.4598C50.6287 11.5269 50.5779 11.5907 50.5223 11.6464C50.2932 11.8755 49.9773 12.0064 49.6532 12.0064Z" fill="#ACF0EE"/>
<path d="M29.8915 12.0064C29.8113 12.0064 29.7311 11.9982 29.6526 11.9819C29.574 11.9671 29.4955 11.9426 29.4218 11.9131C29.3482 11.882 29.2762 11.8444 29.2107 11.8002C29.1436 11.7544 29.0798 11.7037 29.0241 11.6464C28.9668 11.5907 28.9161 11.5269 28.8703 11.4598C28.8261 11.3943 28.7884 11.3223 28.7573 11.2487C28.7279 11.175 28.7033 11.0965 28.6886 11.0195C28.6722 10.9394 28.6641 10.8592 28.6641 10.779C28.6641 10.4566 28.795 10.139 29.0241 9.91156C29.0798 9.85428 29.1436 9.80354 29.2107 9.75935C29.2762 9.71352 29.3482 9.67588 29.4218 9.64643C29.4955 9.61533 29.574 9.59078 29.6526 9.57605C30.0503 9.49586 30.4742 9.62679 30.7589 9.91156C30.9881 10.139 31.119 10.4566 31.119 10.779C31.119 10.8592 31.1108 10.9394 31.0944 11.0195C31.0797 11.0965 31.0552 11.175 31.0257 11.2487C30.9946 11.3223 30.957 11.3943 30.9128 11.4598C30.8669 11.5269 30.8162 11.5907 30.7589 11.6464C30.5314 11.8755 30.2156 12.0064 29.8915 12.0064Z" fill="#ACF0EE"/>
<path d="M25.9404 12.0064C25.8602 12.0064 25.78 11.9983 25.7014 11.9819C25.6229 11.9672 25.5459 11.9426 25.4706 11.9132C25.397 11.8821 25.3266 11.8444 25.2595 11.8002C25.1924 11.7544 25.1302 11.7037 25.0729 11.6464C25.0157 11.5907 24.9649 11.5269 24.9207 11.4598C24.8766 11.3943 24.8389 11.3223 24.8078 11.2487C24.7767 11.175 24.7538 11.0965 24.7374 11.0196C24.7211 10.9394 24.7129 10.8592 24.7129 10.779C24.7129 10.6988 24.7211 10.6186 24.7374 10.54C24.7538 10.4615 24.7767 10.3829 24.8078 10.3093C24.8389 10.2356 24.8766 10.1636 24.9207 10.0981C24.9649 10.031 25.0157 9.96721 25.0729 9.91157C25.1302 9.85429 25.1924 9.80355 25.2595 9.75773C25.3266 9.71354 25.397 9.6759 25.4706 9.64644C25.5459 9.61534 25.6229 9.59079 25.7014 9.57606C25.8602 9.54333 26.0222 9.54333 26.1809 9.57606C26.2595 9.59079 26.3364 9.61534 26.4101 9.64644C26.4837 9.6759 26.5557 9.71354 26.6228 9.75773C26.6899 9.80355 26.7521 9.85429 26.8094 9.91157C26.865 9.96721 26.9174 10.031 26.9616 10.0981C27.0058 10.1636 27.0434 10.2356 27.0745 10.3093C27.1056 10.3829 27.1285 10.4615 27.1449 10.54C27.1596 10.6186 27.1678 10.6988 27.1678 10.779C27.1678 10.8592 27.1596 10.9394 27.1449 11.0196C27.1285 11.0965 27.1056 11.175 27.0745 11.2487C27.0434 11.3223 27.0058 11.3943 26.9616 11.4598C26.9174 11.5269 26.865 11.5907 26.8094 11.6464C26.7521 11.7037 26.6899 11.7544 26.6228 11.8002C26.5557 11.8444 26.4837 11.8821 26.4101 11.9132C26.3364 11.9426 26.2595 11.9672 26.1809 11.9819C26.1024 11.9983 26.0205 12.0064 25.9404 12.0064Z" fill="#ACF0EE"/>
<path d="M45.7001 12.0064C45.6216 12.0064 45.5397 11.9983 45.4612 11.9819C45.3826 11.9672 45.3057 11.9426 45.2304 11.9132C45.1568 11.8821 45.0864 11.8444 45.0193 11.8002C44.9522 11.7544 44.89 11.7037 44.8327 11.6464C44.6036 11.4189 44.4727 11.1014 44.4727 10.779C44.4727 10.6988 44.4808 10.6186 44.4972 10.54C44.5136 10.4615 44.5365 10.3829 44.5676 10.3093C44.5987 10.2356 44.6363 10.1636 44.6805 10.0981C44.7247 10.031 44.7771 9.96721 44.8327 9.91157C45.0618 9.68244 45.3777 9.55151 45.7001 9.55151C46.0242 9.55151 46.34 9.68244 46.5692 9.91157C46.6248 9.96721 46.6772 10.031 46.7214 10.0981C46.7656 10.1636 46.8032 10.2356 46.8343 10.3093C46.8654 10.3829 46.8883 10.4615 46.9047 10.54C46.921 10.6186 46.9276 10.6988 46.9276 10.779C46.9276 10.8592 46.921 10.9394 46.9047 11.0196C46.8883 11.0965 46.8654 11.175 46.8343 11.2487C46.8032 11.3223 46.7656 11.3943 46.7214 11.4598C46.6772 11.5269 46.6248 11.5907 46.5692 11.6464C46.34 11.8755 46.0242 12.0064 45.7001 12.0064Z" fill="#ACF0EE"/>
<path d="M41.7489 12.0064C41.4249 12.0064 41.109 11.8755 40.8799 11.6464C40.8243 11.5907 40.7719 11.5269 40.7277 11.4598C40.6835 11.3943 40.6459 11.3223 40.6148 11.2487C40.5837 11.175 40.5608 11.0965 40.5444 11.0196C40.528 10.9394 40.5215 10.8592 40.5215 10.779C40.5215 10.6988 40.528 10.6186 40.5444 10.54C40.5608 10.4615 40.5837 10.3829 40.6148 10.3093C40.6459 10.2356 40.6835 10.1636 40.7277 10.0981C40.7719 10.031 40.8243 9.96721 40.8799 9.91157C41.109 9.68244 41.4249 9.55151 41.7489 9.55151C42.0714 9.55151 42.3872 9.68244 42.6164 9.91157C42.672 9.96721 42.7244 10.031 42.7686 10.0981C42.8127 10.1636 42.8504 10.2356 42.8815 10.3093C42.9126 10.3829 42.9355 10.4615 42.9519 10.54C42.9682 10.6186 42.9764 10.6988 42.9764 10.779C42.9764 10.8592 42.9682 10.9394 42.9519 11.0196C42.9355 11.0965 42.9126 11.175 42.8815 11.2487C42.8504 11.3223 42.8127 11.3943 42.7686 11.4598C42.7244 11.5269 42.672 11.5907 42.6164 11.6464C42.3872 11.8755 42.0714 12.0064 41.7489 12.0064Z" fill="#ACF0EE"/>
<path d="M37.7958 12.0064C37.7156 12.0064 37.6354 11.9983 37.5552 11.9819C37.4767 11.9672 37.3998 11.9426 37.3261 11.9132C37.2525 11.8821 37.1805 11.8444 37.1134 11.8002C37.0463 11.7544 36.9841 11.7037 36.9268 11.6464C36.8711 11.5907 36.8188 11.5269 36.7746 11.4598C36.7304 11.3943 36.6927 11.3223 36.6616 11.2487C36.6306 11.175 36.6076 11.0965 36.5913 11.0196C36.5765 10.9394 36.5684 10.8592 36.5684 10.779C36.5684 10.6988 36.5765 10.6186 36.5913 10.5384C36.6076 10.4615 36.6306 10.3829 36.6616 10.3093C36.6927 10.2356 36.7304 10.1636 36.7746 10.0981C36.8188 10.031 36.8711 9.96721 36.9268 9.91157C36.9841 9.85429 37.0463 9.80355 37.1134 9.75936C37.1805 9.71517 37.2525 9.6759 37.3261 9.64644C37.3998 9.61534 37.4767 9.59079 37.5552 9.57606C37.714 9.54333 37.876 9.54333 38.0348 9.57606C38.1133 9.59079 38.1902 9.61534 38.2655 9.64644C38.3392 9.6759 38.4096 9.71517 38.4767 9.75936C38.5438 9.80355 38.6059 9.85429 38.6632 9.91157C38.7205 9.96721 38.7712 10.031 38.8154 10.0981C38.8596 10.1636 38.8973 10.2356 38.9284 10.3093C38.9595 10.3829 38.9824 10.4615 38.9987 10.5384C39.0151 10.6186 39.0233 10.6988 39.0233 10.779C39.0233 10.8592 39.0151 10.9394 38.9987 11.0196C38.9824 11.0965 38.9595 11.175 38.9284 11.2487C38.8973 11.3223 38.8596 11.3943 38.8154 11.4598C38.7712 11.5269 38.7205 11.5907 38.6632 11.6464C38.6059 11.7037 38.5438 11.7544 38.4767 11.8002C38.4096 11.8444 38.3392 11.8821 38.2655 11.9132C38.1902 11.9426 38.1133 11.9672 38.0348 11.9819C37.9562 11.9983 37.876 12.0064 37.7958 12.0064Z" fill="#ACF0EE"/>
<path d="M33.8446 12.0064C33.5206 12.0064 33.2047 11.8755 32.9772 11.6464C32.92 11.5907 32.8692 11.5269 32.8234 11.4598C32.7792 11.3943 32.7416 11.3223 32.7105 11.2487C32.681 11.175 32.6565 11.0965 32.6417 11.0195C32.6254 10.9394 32.6172 10.8592 32.6172 10.779C32.6172 10.6988 32.6254 10.6186 32.6417 10.5384C32.6565 10.4615 32.681 10.3829 32.7105 10.3093C32.7416 10.2356 32.7792 10.1636 32.8234 10.0981C32.8692 10.031 32.92 9.9672 32.9772 9.91156C33.2604 9.62679 33.6859 9.49586 34.0836 9.57605C34.1622 9.59078 34.2407 9.61533 34.3144 9.64643C34.388 9.67588 34.46 9.71353 34.5255 9.75771C34.5926 9.80354 34.6564 9.85428 34.7121 9.91156C34.7693 9.9672 34.8201 10.031 34.8659 10.0981C34.9101 10.1636 34.9477 10.2356 34.9772 10.3093C35.0083 10.3829 35.0328 10.4615 35.0476 10.5384C35.0639 10.6186 35.0721 10.6988 35.0721 10.779C35.0721 10.8592 35.0639 10.9394 35.0476 11.0195C35.0328 11.0965 35.0083 11.175 34.9772 11.2487C34.9477 11.3223 34.9101 11.3943 34.8659 11.4598C34.8201 11.5269 34.7693 11.5907 34.7121 11.6464C34.6564 11.7037 34.5926 11.7544 34.5255 11.8002C34.46 11.8444 34.388 11.882 34.3144 11.9131C34.2407 11.9426 34.1622 11.9671 34.0836 11.9819C34.005 11.9982 33.9248 12.0064 33.8446 12.0064Z" fill="#ACF0EE"/>
<path d="M63.9994 13.6692C63.9994 14.3386 63.6705 15.0079 63.0109 15.3958C62.6214 15.6249 62.2204 15.8279 61.808 16.0063C61.1844 15.422 60.7949 14.5906 60.7949 13.6692C60.7949 12.6807 61.2434 11.7969 61.9471 11.2094C62.2728 11.4761 62.6214 11.7167 62.9896 11.9278C63.6623 12.3124 63.9994 12.99 63.9994 13.6692Z" fill="#67DCEF"/>
<path d="M47.6508 19.2647L34.4082 19.2689L34.4235 15.8322L47.6553 15.828C48.7043 15.8277 49.5534 16.4157 49.548 17.1387L49.5418 17.9601C49.5423 18.6803 48.6957 19.2643 47.6508 19.2647Z" fill="#3EB3C6"/>
<path d="M50.9 14.9144C50.7993 14.6423 50.4084 14.4494 49.9636 14.4517L30.7647 14.457C30.5445 14.4571 30.3304 14.5042 30.1592 14.5905L14.8052 22.3399C14.4902 22.4989 14.3703 22.764 14.507 23.0019C14.5997 23.1642 14.7983 23.2895 15.0443 23.3526C15.1586 23.382 15.2828 23.3981 15.4119 23.3979L24.0512 23.3952C24.1953 23.3951 24.3376 23.375 24.4671 23.3358L50.3809 15.5838C50.7847 15.4633 51.0003 15.1857 50.9 14.9144Z" fill="#67DCEF"/>
</svg>
