<svg width="24" height="24" viewBox="0 0 24 24" fill="none" xmlns="http://www.w3.org/2000/svg">
<path d="M8.99987 12.0055C8.99695 10.3489 10.3377 9.00319 11.994 9.00027C13.6506 8.99703 14.9966 10.3373 14.9999 11.9942C15.0031 13.6511 13.6623 14.9965 12.0054 14.9998C10.3491 15.0029 9.00307 13.6625 8.99987 12.0055ZM7.37888 12.0087C7.38384 14.5612 9.45683 16.6257 12.0086 16.6207C14.5607 16.6158 16.6264 14.5434 16.6214 11.9909C16.6165 9.43941 14.5432 7.37369 11.9908 7.37865C9.43901 7.38361 7.37392 9.45691 7.37888 12.0087ZM15.7146 7.18912C15.7157 7.78513 16.2003 8.26775 16.7964 8.26659C17.3927 8.26543 17.8753 7.78105 17.8744 7.18504C17.8733 6.589 17.3887 6.1061 16.7923 6.10726C16.196 6.10842 15.7134 6.59305 15.7146 7.18912ZM8.3776 19.3321C7.50017 19.2939 7.0237 19.1481 6.70617 19.0259C6.28566 18.8632 5.9856 18.6681 5.66979 18.3547C5.35458 18.04 5.1589 17.7408 4.99472 17.3212C4.87139 17.0036 4.72296 16.5277 4.68183 15.6503C4.63722 14.7017 4.62702 14.4171 4.62266 12.014C4.61799 9.61146 4.62674 9.32687 4.66815 8.37741C4.70574 7.50054 4.85244 7.02347 4.97433 6.70622C5.13703 6.28515 5.33155 5.98565 5.64561 5.66984C5.96022 5.35407 6.2594 5.15895 6.67931 4.99477C6.99659 4.87085 7.47247 4.72358 8.34962 4.68188C9.29877 4.63699 9.58308 4.62735 11.9856 4.62268C14.3886 4.61804 14.6732 4.62647 15.6227 4.6682C16.4995 4.70638 16.9766 4.85161 17.2936 4.97438C17.7143 5.13708 18.0144 5.33101 18.3299 5.64565C18.6454 5.9603 18.8411 6.25889 19.0053 6.67967C19.1292 6.99608 19.2765 7.47255 19.3179 8.34939C19.3631 9.29857 19.3733 9.5832 19.3777 11.9857C19.3823 14.3888 19.3735 14.6734 19.3319 15.6223C19.2937 16.4997 19.1482 16.9765 19.0257 17.2944C18.863 17.7146 18.6685 18.0146 18.3541 18.3305C18.0398 18.6451 17.7406 18.8413 17.3204 19.0055C17.0037 19.1292 16.5273 19.2767 15.6507 19.3184C14.7016 19.363 14.4172 19.3732 12.0139 19.3776C9.61134 19.3822 9.32707 19.3732 8.3776 19.3321ZM8.27263 3.06233C7.315 3.10751 6.66095 3.2609 6.08938 3.48484C5.49774 3.7155 4.9962 4.02463 4.49729 4.52561C3.99776 5.02687 3.69098 5.52929 3.46208 6.12153C3.24049 6.69454 3.0903 7.34891 3.04801 8.30713C3.00603 9.26711 2.9964 9.57328 3.00108 12.0172C3.00575 14.4609 3.01651 14.7676 3.06228 15.7279C3.10806 16.6852 3.26088 17.339 3.48483 17.9108C3.71577 18.5025 4.02458 19.0037 4.52584 19.503C5.02682 20.0022 5.52955 20.3087 6.12208 20.5379C6.69449 20.7592 7.3491 20.91 8.30704 20.952C9.26699 20.9943 9.57344 21.0036 12.0168 20.9989C14.4613 20.9943 14.7678 20.9835 15.7277 20.938C16.6853 20.8922 17.3388 20.7388 17.9109 20.5154C18.5025 20.2839 19.0041 19.9757 19.5031 19.4744C20.002 18.9734 20.3087 18.4707 20.5376 17.8782C20.7593 17.3057 20.91 16.6511 20.9517 15.6937C20.9937 14.7332 21.0036 14.4264 20.9989 11.9828C20.9943 9.53886 20.9832 9.23269 20.9377 8.27299C20.8922 7.31481 20.7388 6.66129 20.5152 6.08915C20.284 5.49751 19.9755 4.99653 19.4745 4.49703C18.9735 3.99809 18.4708 3.69072 17.8782 3.46241C17.3055 3.24075 16.6512 3.08972 15.6933 3.04831C14.7333 3.00577 14.4268 2.99642 11.9826 3.00109C9.53903 3.00577 9.23257 3.01625 8.27263 3.06233Z" fill="#6A6A6E"/>
</svg>
