<svg width="23" height="23" viewBox="0 0 23 23" fill="none" xmlns="http://www.w3.org/2000/svg">
<g clip-path="url(#clip0_265_6630)">
<path d="M10.1013 8.73015L4.69738 6.05417C4.69738 6.05417 4.68484 5.79804 4.92664 5.66908C5.17024 5.54011 8.99971 3.97107 9.30779 3.97107C9.61587 3.97107 11.4196 4.31855 12.7325 4.61051C14.0454 4.90247 17.5148 5.64758 17.531 5.87506C17.5471 6.10254 13.9809 9.74931 13.9809 9.74931L10.1013 8.73015Z" fill="#C3FECE"/>
<path d="M15.029 7.06077C15.029 7.06077 12.7631 6.39446 10.5582 5.87682C9.53192 5.63501 6.51562 5.00274 6.51562 5.00274C6.51562 5.00274 6.83624 4.86303 7.07805 4.76093C7.32343 4.65884 7.51867 4.6051 7.51867 4.6051C7.51867 4.6051 9.48535 4.99736 10.9469 5.30902C12.9244 5.72994 15.6917 6.55566 15.7562 6.68642C15.8224 6.81538 15.029 7.06077 15.029 7.06077Z" fill="white"/>
<path d="M10.6413 6.43379C10.1595 6.76874 10.6324 6.97114 11.5208 7.17891C12.4934 7.40639 13.2349 7.74133 13.86 7.37773C14.4242 7.05174 13.0433 6.69709 12.4092 6.56097C11.9256 6.45708 11.0139 6.17587 10.6413 6.43379Z" fill="#ACB1B2"/>
<path d="M12.4072 7.10731C12.4037 7.10731 12.4234 3.1829 12.4234 3.03782C12.4234 2.89273 12.2604 2.76198 12.4395 2.4539C12.6186 2.14583 13.0879 2.17807 13.0879 2.17807C13.0879 2.17807 15.0349 1.61206 15.8122 1.41683C16.5896 1.22159 18.3091 0.768433 18.3091 0.768433L18.4237 1.75177C18.4237 1.75177 16.6218 2.26046 15.7298 2.48793C14.8378 2.71541 13.6216 3.08797 13.6216 3.08797L13.4425 3.25096L13.4945 7.08581C13.4945 7.08581 13.3279 7.27209 12.9553 7.27209C12.5935 7.2703 12.4072 7.10731 12.4072 7.10731Z" fill="#FFD816"/>
<path d="M17.9892 1.27174C18.0035 1.57802 18.1665 1.76788 18.3599 1.76788C18.5534 1.76788 18.6859 1.52071 18.6573 1.1983C18.6268 0.877684 18.4191 0.73081 18.2417 0.789918C18.0644 0.849025 17.9784 1.04784 17.9892 1.27174Z" fill="#FEB804"/>
<path d="M13.4457 3.3406C13.4116 3.3406 13.3776 3.33164 13.3472 3.31015L12.4176 2.69041C12.3782 2.66382 12.3508 2.62279 12.3415 2.57621C12.3321 2.52962 12.3414 2.48121 12.3674 2.44144C12.3804 2.42175 12.3972 2.40483 12.4168 2.39164C12.4363 2.37846 12.4583 2.36927 12.4815 2.36461C12.5046 2.35995 12.5284 2.35991 12.5516 2.36449C12.5747 2.36907 12.5968 2.37817 12.6164 2.39129L13.546 3.01103C13.6284 3.06655 13.6499 3.1776 13.5961 3.26C13.5603 3.31194 13.503 3.3406 13.4457 3.3406Z" fill="#FEB804"/>
<path d="M13.5889 3.19002C13.5351 3.19002 13.4814 3.16495 13.4456 3.11838C13.2074 2.80134 12.9351 2.44132 12.8867 2.3858C12.8258 2.32669 12.8133 2.22997 12.8617 2.15653C12.8747 2.13684 12.8915 2.11992 12.911 2.10673C12.9306 2.09355 12.9526 2.08436 12.9757 2.0797C12.9989 2.07504 13.0227 2.075 13.0458 2.07957C13.069 2.08415 13.091 2.09326 13.1106 2.10638C13.1429 2.12787 13.1608 2.14041 13.7322 2.90165C13.7913 2.98046 13.7375 3.0933 13.6587 3.15241C13.6265 3.17748 13.6265 3.19002 13.5889 3.19002Z" fill="#FEB804"/>
<path d="M13.37 3.49099C13.361 3.49099 13.3521 3.49099 13.3413 3.4892L12.4458 3.3477C12.4226 3.34406 12.4004 3.33588 12.3804 3.32365C12.3603 3.31141 12.3429 3.29536 12.3291 3.2764C12.3153 3.25744 12.3054 3.23594 12.2999 3.21314C12.2944 3.19034 12.2934 3.16668 12.2971 3.14351C12.3007 3.12034 12.3089 3.09812 12.3211 3.07811C12.3334 3.0581 12.3494 3.0407 12.3684 3.02689C12.3874 3.01309 12.4089 3.00315 12.4317 2.99765C12.4545 2.99215 12.4781 2.9912 12.5013 2.99485L13.3969 3.13635C13.4936 3.15247 13.5778 3.17038 13.5616 3.26889C13.5491 3.35487 13.4578 3.49099 13.37 3.49099Z" fill="#FEB804"/>
<path d="M4.68945 6.03442C4.97425 6.03442 7.25975 6.63446 8.43833 6.85119C9.6169 7.06792 13.1759 7.90976 13.2959 7.93304C13.4159 7.95633 13.3926 9.49671 13.3926 9.49671C13.3926 9.49671 15.0763 18.2017 15.028 18.6119C14.9796 19.0202 13.8745 22.1709 13.8745 22.1709C13.8745 22.1709 13.2243 22.2676 11.5657 21.7858C9.90707 21.304 5.5295 20.1021 5.26441 19.7654C4.99932 19.4286 5.16769 14.9794 5.0244 12.239C4.87752 9.49671 4.68945 6.03442 4.68945 6.03442Z" fill="#79DD8A"/>
<path d="M17.9602 19.957C18.0516 19.6543 17.5429 16.4088 17.4712 13.4265C17.3996 10.4461 17.6557 5.91087 17.5321 5.87504C17.4086 5.84101 13.2961 7.93307 13.2961 7.93307C13.2961 7.93307 13.2782 10.892 13.3283 13.6827C13.3928 17.2936 13.6812 22.0742 13.8728 22.1709C14.0645 22.2676 15.7285 21.3362 16.23 21.064C17.1184 20.5822 17.8886 20.1989 17.9602 19.957Z" fill="#02AB46"/>
<path d="M15.0176 9.30322L15.0265 7.05712L15.7627 6.69531L15.7842 9.15814L15.4439 9.75459L15.0176 9.30322Z" fill="#DBDFE1"/>
<path d="M8.49949 10.0914C6.90895 9.92121 5.8074 11.3398 5.89337 13.1883C5.99547 15.3717 7.43376 16.9801 8.99027 17.3007C10.5468 17.6214 12.0549 16.9461 12.0872 14.5585C12.123 12.0706 9.936 10.2436 8.49949 10.0914Z" fill="#FEFEFD"/>
<path d="M9.5605 12.0849C9.5605 12.0849 9.23809 11.0013 8.26908 11.2897C7.30007 11.578 6.77526 13.6862 8.41954 14.6355C9.99933 15.5472 11.4537 13.8743 10.9451 12.7906C10.4829 11.8019 9.5605 12.0849 9.5605 12.0849Z" fill="#EF5B44"/>
<path d="M9.18962 10.7595C9.08036 10.7989 8.99439 11.2449 9.10902 11.6712C9.195 11.99 9.46904 12.427 9.62845 12.3984C9.75562 12.3751 9.85235 11.8736 9.73234 11.4526C9.59263 10.9672 9.31679 10.7129 9.18962 10.7595Z" fill="#B8CF17"/>
<path d="M9.16649 13.2743C8.71154 13.1364 8.19927 14.7 9.11992 15.6744C10.1355 16.7473 11.3212 15.8016 11.289 15.5938C11.2424 15.3055 10.4472 15.0977 10.0549 14.6141C9.66264 14.1269 9.43158 13.3549 9.16649 13.2743Z" fill="#FD8F01"/>
<path d="M7.71253 13.0092C7.71253 13.0092 7.80388 12.325 7.16981 12.3626C6.55724 12.4002 6.7077 13.1238 6.7077 13.1238C6.7077 13.1238 6.19722 13.1847 6.28319 13.7507C6.34768 14.1788 6.79904 14.1734 6.79904 14.1734C6.79904 14.1734 6.3029 14.3687 6.52858 14.9347C6.72919 15.438 7.19131 15.2356 7.19131 15.2356C7.19131 15.2356 7.02115 15.7264 7.42236 15.9861C7.76089 16.2046 8.05643 16.0201 8.05643 16.0201C8.05643 16.0201 8.03852 16.4392 8.50601 16.5163C9.07201 16.6094 9.3174 15.9198 8.91439 15.601C8.6081 15.3592 8.33048 15.5472 8.33048 15.5472C8.33048 15.5472 8.38779 15.4129 8.33406 15.2589C8.29824 15.1586 8.24092 15.1209 8.24092 15.1209C8.24092 15.1209 8.73707 15.0744 8.65647 14.5102C8.57586 13.9442 8.07972 14.014 8.07972 14.014C8.07972 14.014 8.36809 13.783 8.25346 13.3674C8.14062 12.9501 7.71253 13.0092 7.71253 13.0092Z" fill="#A281D0"/>
<path d="M15.5271 9.92843C15.1151 9.92843 13.358 8.18207 13.3419 8.16415C13.3266 8.14629 13.315 8.12558 13.3077 8.10321C13.3004 8.08084 13.2975 8.05725 13.2994 8.03379C13.3012 8.01033 13.3076 7.98747 13.3183 7.9665C13.329 7.94553 13.3437 7.92688 13.3616 7.9116C13.4368 7.84712 13.5479 7.85608 13.6142 7.92951C13.727 8.05489 15.0704 9.30153 15.4572 9.54155C15.708 9.1672 16.523 7.5283 17.2233 6.04881C17.2663 5.95925 17.3738 5.92164 17.4615 5.96283C17.5511 6.00582 17.5887 6.1115 17.5475 6.20106C15.8209 9.84962 15.6507 9.89798 15.5593 9.92306C15.5486 9.92843 15.5378 9.92843 15.5271 9.92843Z" fill="#2D802D"/>
</g>
<defs>
<clipPath id="clip0_265_6630">
<rect width="22.9267" height="22.9267" fill="white"/>
</clipPath>
</defs>
</svg>
