<svg width="32" height="32" viewBox="0 0 32 32" fill="none" xmlns="http://www.w3.org/2000/svg">
<path d="M2.90367 3.845C2.11805 3.845 1.48117 3.20812 1.48117 2.4225C1.48117 1.63687 2.11805 1 2.90367 1C3.6893 1 4.32617 1.63687 4.32617 2.4225C4.32617 3.20812 3.6893 3.845 2.90367 3.845Z" fill="#F44336"/>
<path d="M12.2127 19.595C12.2127 19.595 9.83523 22.795 9.83523 24.0575C9.83523 25.32 10.8602 26.345 12.1227 26.345C13.2002 26.345 26.6727 26.3175 28.1602 26.3175C29.6477 26.3175 30.4902 27.19 30.4902 27.19" stroke="#84B0C1" stroke-width="1.1865" stroke-miterlimit="10" stroke-linecap="round"/>
<path d="M17.5273 19.2825C17.5273 19.2825 14.8773 22.795 14.8773 24.06C14.8773 25.325 16.0373 26.34 17.2998 26.34" stroke="#84B0C1" stroke-width="1.1865" stroke-miterlimit="10" stroke-linecap="round"/>
<path d="M11.5424 21.6825C12.0449 20.8225 12.4524 20.3225 13.1074 19.4275C13.1074 19.4275 12.9349 19.465 12.4699 19.465C12.0049 19.465 11.6699 19.3175 11.6699 19.3175C11.0099 20.25 10.8124 20.4875 10.4599 21.1125C10.4599 21.1125 10.4724 21.52 10.7974 21.735C11.1224 21.95 11.5424 21.6825 11.5424 21.6825Z" fill="#2F7889"/>
<path d="M16.5946 21.725C17.2921 20.66 17.8496 19.8475 17.8496 19.8475L16.3496 19.8825C16.3496 19.8825 15.6771 20.785 15.2921 21.5C15.2921 21.5 15.2346 21.825 15.6646 21.995C16.0946 22.16 16.5946 21.725 16.5946 21.725Z" fill="#2F7889"/>
<path d="M12.208 19.66L29.693 18.495C29.7505 18.49 29.793 18.445 29.793 18.3875V8.62505C29.793 8.53255 29.7205 8.45505 29.628 8.45005L7.47047 7.04005C7.25547 7.02505 7.10047 7.24005 7.17797 7.44005L11.883 19.455C11.9355 19.5875 12.0655 19.67 12.208 19.66Z" stroke="#84B0C1" stroke-width="1.1865" stroke-miterlimit="10"/>
<path d="M26.3193 8.26501L26.7793 18.625" stroke="#84B0C1" stroke-width="0.711945" stroke-miterlimit="10"/>
<path d="M22.3516 7.99512L23.7891 18.8476" stroke="#84B0C1" stroke-width="0.711945" stroke-miterlimit="10"/>
<path d="M18.3813 7.7251L20.7988 19.0701" stroke="#84B0C1" stroke-width="0.711945" stroke-miterlimit="10"/>
<path d="M14.4111 7.45508L17.8086 19.2926" stroke="#84B0C1" stroke-width="0.711945" stroke-miterlimit="10"/>
<path d="M10.4453 7.18506L14.8203 19.5151" stroke="#84B0C1" stroke-width="0.711945" stroke-miterlimit="10"/>
<path d="M30.1641 12.1201L8.77406 11.3851" stroke="#84B0C1" stroke-width="0.711945" stroke-miterlimit="10"/>
<path d="M29.9668 15.5276H10.1168" stroke="#84B0C1" stroke-width="0.711945" stroke-miterlimit="10"/>
<path d="M12.1345 31C11.0935 31 10.2495 30.156 10.2495 29.115C10.2495 28.0739 11.0935 27.23 12.1345 27.23C13.1756 27.23 14.0195 28.0739 14.0195 29.115C14.0195 30.156 13.1756 31 12.1345 31Z" fill="#424242"/>
<path d="M13.3496 26.52H10.9171L11.4971 29.0425C11.5521 29.435 11.8196 29.72 12.1321 29.72C12.4446 29.72 12.7146 29.435 12.7671 29.0425L13.3496 26.52Z" fill="#84B0C1"/>
<path d="M11.7439 29.1325C11.7889 29.2975 11.8714 29.485 12.0389 29.5275C12.6439 29.6825 12.7289 28.195 12.4239 27.94C12.2389 27.785 11.8539 27.7575 11.6914 27.95C11.4839 28.195 11.6664 28.86 11.7439 29.1325Z" fill="#A8E3F0"/>
<path d="M12.1036 27.4125C12.5061 27.4125 12.7911 27.175 12.9311 27.0275C12.9406 27.0177 12.9471 27.0054 12.9498 26.9921C12.9525 26.9787 12.9512 26.9648 12.9462 26.9522C12.9412 26.9395 12.9326 26.9285 12.9215 26.9206C12.9104 26.9127 12.8973 26.9081 12.8836 26.9075C12.6236 26.895 12.3636 26.8975 12.1061 26.89C11.8461 26.8975 11.5861 26.895 11.3286 26.9075C11.2686 26.91 11.2386 26.985 11.2811 27.0275C11.4136 27.175 11.7011 27.4125 12.1036 27.4125Z" fill="#2F7889"/>
<path d="M12.7259 29.755C12.5634 29.9425 12.3034 30.03 12.0559 30C11.8109 29.97 11.5859 29.825 11.4384 29.625C11.3534 29.5075 11.2934 29.3725 11.1959 29.265C11.0984 29.1575 10.9434 29.0825 10.8084 29.1375C10.6184 29.2125 10.5934 29.4775 10.6584 29.67C10.7215 29.8623 10.8223 30.0401 10.9549 30.1929C11.0876 30.3457 11.2494 30.4705 11.4309 30.56C11.6784 30.6825 12.0234 30.7325 12.2984 30.705C12.8259 30.65 13.3934 30.1725 13.5784 29.6825C13.6784 29.42 13.7659 28.8925 13.2434 29.0125C13.0009 29.07 12.9209 29.53 12.7259 29.755Z" fill="#757575"/>
<path d="M7.28125 7.67754L6.12875 4.86004C5.65875 3.71004 5.31125 3.45254 4.61375 3.14004L2.98125 2.47754" stroke="#84B0C1" stroke-width="1.1865" stroke-miterlimit="10" stroke-linecap="round"/>
<path d="M27.3357 31C26.2946 31 25.4507 30.156 25.4507 29.115C25.4507 28.0739 26.2946 27.23 27.3357 27.23C28.3768 27.23 29.2207 28.0739 29.2207 29.115C29.2207 30.156 28.3768 31 27.3357 31Z" fill="#424242"/>
<path d="M28.5527 26.52H26.1202L26.7002 29.0425C26.7552 29.435 27.0227 29.72 27.3352 29.72C27.6477 29.72 27.9177 29.435 27.9702 29.0425L28.5527 26.52Z" fill="#84B0C1"/>
<path d="M26.9451 29.1326C26.9901 29.2976 27.0726 29.4851 27.2401 29.5276C27.8451 29.6826 27.9301 28.1951 27.6251 27.9401C27.4401 27.7851 27.0551 27.7576 26.8926 27.9501C26.6851 28.1951 26.8701 28.8601 26.9451 29.1326Z" fill="#A8E3F0"/>
<path d="M27.3048 27.4125C27.7073 27.4125 27.9923 27.175 28.1323 27.0275C28.1418 27.0177 28.1483 27.0054 28.151 26.9921C28.1536 26.9787 28.1524 26.9648 28.1474 26.9522C28.1424 26.9395 28.1338 26.9285 28.1227 26.9206C28.1116 26.9127 28.0984 26.9081 28.0848 26.9075C27.8248 26.895 27.5648 26.8975 27.3073 26.89C27.0473 26.8975 26.7873 26.895 26.5298 26.9075C26.4698 26.91 26.4398 26.985 26.4823 27.0275C26.6173 27.175 26.9048 27.4125 27.3048 27.4125Z" fill="#2F7889"/>
<path d="M27.931 29.755C27.7685 29.9425 27.5085 30.03 27.261 30C27.016 29.97 26.791 29.825 26.6435 29.625C26.5585 29.5075 26.4985 29.3725 26.401 29.265C26.3035 29.1575 26.1485 29.0825 26.0135 29.1375C25.8235 29.2125 25.7985 29.4775 25.8635 29.67C25.9266 29.8623 26.0274 30.0401 26.16 30.1929C26.2927 30.3457 26.4545 30.4705 26.636 30.56C26.8835 30.6825 27.2285 30.7325 27.5035 30.705C28.031 30.65 28.5985 30.1725 28.7835 29.6825C28.8835 29.42 28.971 28.8925 28.4485 29.0125C28.206 29.07 28.126 29.53 27.931 29.755Z" fill="#757575"/>
</svg>
