<svg width="147" height="29" viewBox="0 0 147 29" fill="none" xmlns="http://www.w3.org/2000/svg">
<path d="M22.4133 28.561H15.7835C15.3521 28.561 14.9595 28.3465 14.779 28.0139L12.5693 23.9231C12.3143 23.4502 12.558 22.8949 13.1124 22.6779C13.6676 22.4621 14.3233 22.6696 14.5782 23.1396L23.6307 23.3623C23.8994 22.8963 24.5598 22.7026 25.1102 22.9307C25.6573 23.1575 25.8855 23.7197 25.6185 24.1843L23.4072 28.0331C23.2228 28.3548 22.8375 28.561 22.4133 28.561Z" fill="url(#paint0_linear_336_3309)"/>
<path d="M24.6696 23.3622C24.9384 22.8962 24.56 22.7026 25.1103 22.9306C25.6574 23.1574 25.8858 23.7196 25.6188 24.1842L23.4075 28.0331C23.2231 28.3547 22.8377 28.561 22.4136 28.561H20.5348C20.9589 28.561 21.3443 28.3547 21.5287 28.0331L23.74 24.1842C23.8996 23.9064 23.8819 23.5938 23.7252 23.3388L24.6696 23.3622Z" fill="url(#paint1_linear_336_3309)"/>
<path d="M0.878345 25.4208C2.48806 25.338 4.49474 24.4943 6.89912 22.8905C7.0776 22.7715 7.30708 22.7577 7.49919 22.8534C4.37895 20.8903 2.27105 18.7575 1.60713 17.9365C1.7844 18.2022 1.90598 18.505 1.91089 18.8239C1.9363 20.474 1.40683 22.19 0.31924 23.9721L0.16954 24.2127C-0.0642503 24.5802 0.0449624 25.067 0.413936 25.2999C0.55231 25.3873 0.714749 25.4292 0.878345 25.4208Z" fill="url(#paint2_linear_336_3309)"/>
<path d="M37.1618 12.873C37.1618 6.00589 28.8428 0.438965 18.5809 0.438965C8.31895 0.438965 0 6.00589 0 12.873C0 14.6763 0.574074 16.3897 1.606 17.9364C2.63793 19.483 5.62111 21.9183 7.49806 22.8532C10.5922 24.3944 14.4272 25.3071 18.5809 25.3071C28.8428 25.3071 37.1618 19.7402 37.1618 12.873Z" fill="url(#paint3_linear_336_3309)"/>
<path d="M18.7897 1.4248C23.3018 1.4248 27.4167 2.5055 30.5284 4.28181C27.5714 3.31174 24.1609 2.75864 20.5295 2.75864C12.0497 2.75864 4.77412 5.77469 1.6665 10.0731C3.46343 5.11878 10.4477 1.42481 18.7897 1.4248Z" fill="#F3FDC3"/>
<g filter="url(#filter0_d_336_3309)">
<path d="M23.2662 14.2689C22.4738 14.2689 21.8315 13.6266 21.8315 12.8343C21.8315 12.042 22.4738 11.3997 23.2662 11.3997C24.0585 11.3997 24.7008 12.042 24.7008 12.8343C24.7008 13.6266 24.0585 14.2689 23.2662 14.2689Z" fill="#FFFDFA"/>
</g>
<g filter="url(#filter1_d_336_3309)">
<path d="M18.5718 14.2689C17.7795 14.2689 17.1372 13.6266 17.1372 12.8343C17.1372 12.042 17.7795 11.3997 18.5718 11.3997C19.3642 11.3997 20.0065 12.042 20.0065 12.8343C20.0065 13.6266 19.3642 14.2689 18.5718 14.2689Z" fill="#FFFDFA"/>
</g>
<g filter="url(#filter2_d_336_3309)">
<path d="M13.9033 14.2689C13.1109 14.2689 12.4686 13.6266 12.4686 12.8343C12.4686 12.042 13.1109 11.3997 13.9033 11.3997C14.6956 11.3997 15.3379 12.042 15.3379 12.8343C15.3379 13.6266 14.6956 14.2689 13.9033 14.2689Z" fill="#FFFDFA"/>
</g>
<path d="M33.8294 5.77441C35.9181 7.78524 37.1451 10.2254 37.1452 12.8599C37.1452 15.49 35.9213 17.9257 33.8389 19.9346C33.3958 19.2501 33.0186 18.5685 32.795 18.0044C32.1793 16.4506 31.837 14.7288 31.837 12.9172C31.8371 10.2606 32.5746 7.79885 33.8294 5.77441Z" fill="#A4F0A6"/>
<path d="M33.8302 5.77441C34.3962 6.31929 34.8961 6.89772 35.3282 7.50098C34.6268 9.13933 34.2326 10.9761 34.2325 12.917C34.2325 14.7285 34.5749 16.4502 35.1906 18.0039C35.2233 18.0864 35.2599 18.1716 35.299 18.2588C34.8759 18.8437 34.3882 19.4047 33.839 19.9346C33.3959 19.2501 33.0186 18.568 32.795 18.0039C32.1795 16.4502 31.837 14.7284 31.837 12.917C31.8371 10.2605 32.5754 7.7988 33.8302 5.77441Z" fill="#95E097"/>
<path fill-rule="evenodd" clip-rule="evenodd" d="M35.7087 15.5891C33.9017 20.5345 26.9246 24.2199 18.5925 24.22C14.6644 24.22 11.0372 23.3999 8.11108 22.0159C7.57382 21.7617 6.94144 21.3832 6.29272 20.9417C9.40627 22.0607 13.0698 22.7083 16.9919 22.7083C25.3424 22.7082 32.5241 19.7831 35.7087 15.5891Z" fill="white" fill-opacity="0.3"/>
<path d="M45.4977 24V21.432L54.1617 9H46.0017V6.12H58.3137V8.688L49.6737 21.12H58.5537V24H45.4977Z" fill="#1E8D48"/>
<path d="M64.2967 24.288C63.3847 24.288 62.5927 24.136 61.9207 23.832C61.2487 23.528 60.7287 23.096 60.3607 22.536C59.9927 21.96 59.8087 21.296 59.8087 20.544C59.8087 19.824 59.9687 19.184 60.2887 18.624C60.6087 18.048 61.1047 17.568 61.7767 17.184C62.4487 16.8 63.2967 16.528 64.3207 16.368L68.5927 15.672V18.072L64.9207 18.696C64.2967 18.808 63.8327 19.008 63.5287 19.296C63.2247 19.584 63.0727 19.96 63.0727 20.424C63.0727 20.872 63.2407 21.232 63.5767 21.504C63.9287 21.76 64.3607 21.888 64.8727 21.888C65.5287 21.888 66.1047 21.752 66.6007 21.48C67.1127 21.192 67.5047 20.8 67.7767 20.304C68.0647 19.808 68.2087 19.264 68.2087 18.672V15.312C68.2087 14.752 67.9847 14.288 67.5367 13.92C67.1047 13.536 66.5287 13.344 65.8087 13.344C65.1367 13.344 64.5367 13.528 64.0087 13.896C63.4967 14.248 63.1207 14.72 62.8807 15.312L60.3127 14.064C60.5687 13.376 60.9687 12.784 61.5127 12.288C62.0727 11.776 62.7287 11.376 63.4807 11.088C64.2327 10.8 65.0487 10.656 65.9287 10.656C67.0007 10.656 67.9447 10.856 68.7607 11.256C69.5767 11.64 70.2087 12.184 70.6567 12.888C71.1207 13.576 71.3527 14.384 71.3527 15.312V24H68.3767V21.768L69.0487 21.72C68.7127 22.28 68.3127 22.752 67.8487 23.136C67.3847 23.504 66.8567 23.792 66.2647 24C65.6727 24.192 65.0167 24.288 64.2967 24.288Z" fill="#1D964B"/>
<path d="M74.2586 28.8V10.944H77.2106V13.536L76.9226 12.888C77.3706 12.184 77.9786 11.64 78.7466 11.256C79.5146 10.856 80.4026 10.656 81.4106 10.656C82.6426 10.656 83.7546 10.96 84.7466 11.568C85.7386 12.176 86.5226 12.992 87.0986 14.016C87.6906 15.04 87.9866 16.192 87.9866 17.472C87.9866 18.736 87.6986 19.888 87.1226 20.928C86.5466 21.968 85.7626 22.792 84.7706 23.4C83.7786 23.992 82.6506 24.288 81.3866 24.288C80.4426 24.288 79.5706 24.104 78.7706 23.736C77.9866 23.352 77.3626 22.808 76.8986 22.104L77.4026 21.48V28.8H74.2586ZM81.0266 21.408C81.7466 21.408 82.3866 21.24 82.9466 20.904C83.5066 20.568 83.9386 20.104 84.2426 19.512C84.5626 18.92 84.7226 18.24 84.7226 17.472C84.7226 16.704 84.5626 16.032 84.2426 15.456C83.9386 14.864 83.5066 14.4 82.9466 14.064C82.3866 13.712 81.7466 13.536 81.0266 13.536C80.3386 13.536 79.7146 13.704 79.1546 14.04C78.6106 14.376 78.1786 14.848 77.8586 15.456C77.5546 16.048 77.4026 16.72 77.4026 17.472C77.4026 18.24 77.5546 18.92 77.8586 19.512C78.1786 20.104 78.6106 20.568 79.1546 20.904C79.7146 21.24 80.3386 21.408 81.0266 21.408Z" fill="#1C9F4E"/>
<path d="M90.3836 28.8V10.944H93.3356V13.536L93.0476 12.888C93.4956 12.184 94.1036 11.64 94.8716 11.256C95.6396 10.856 96.5276 10.656 97.5356 10.656C98.7676 10.656 99.8796 10.96 100.872 11.568C101.864 12.176 102.648 12.992 103.224 14.016C103.816 15.04 104.112 16.192 104.112 17.472C104.112 18.736 103.824 19.888 103.248 20.928C102.672 21.968 101.888 22.792 100.896 23.4C99.9036 23.992 98.7756 24.288 97.5116 24.288C96.5676 24.288 95.6956 24.104 94.8956 23.736C94.1116 23.352 93.4876 22.808 93.0236 22.104L93.5276 21.48V28.8H90.3836ZM97.1516 21.408C97.8716 21.408 98.5116 21.24 99.0716 20.904C99.6316 20.568 100.064 20.104 100.368 19.512C100.688 18.92 100.848 18.24 100.848 17.472C100.848 16.704 100.688 16.032 100.368 15.456C100.064 14.864 99.6316 14.4 99.0716 14.064C98.5116 13.712 97.8716 13.536 97.1516 13.536C96.4636 13.536 95.8396 13.704 95.2796 14.04C94.7356 14.376 94.3036 14.848 93.9836 15.456C93.6796 16.048 93.5276 16.72 93.5276 17.472C93.5276 18.24 93.6796 18.92 93.9836 19.512C94.3036 20.104 94.7356 20.568 95.2796 20.904C95.8396 21.24 96.4636 21.408 97.1516 21.408Z" fill="#1CA851"/>
<path d="M112.701 24.288C111.357 24.288 110.181 23.984 109.173 23.376C108.165 22.768 107.381 21.944 106.821 20.904C106.261 19.864 105.981 18.712 105.981 17.448C105.981 16.136 106.261 14.976 106.821 13.968C107.397 12.944 108.173 12.136 109.149 11.544C110.141 10.952 111.245 10.656 112.461 10.656C113.485 10.656 114.381 10.824 115.149 11.16C115.933 11.496 116.597 11.96 117.141 12.552C117.685 13.144 118.101 13.824 118.389 14.592C118.677 15.344 118.821 16.16 118.821 17.04C118.821 17.264 118.805 17.496 118.773 17.736C118.757 17.976 118.717 18.184 118.653 18.36H108.573V15.96H116.877L115.389 17.088C115.533 16.352 115.493 15.696 115.269 15.12C115.061 14.544 114.709 14.088 114.213 13.752C113.733 13.416 113.149 13.248 112.461 13.248C111.805 13.248 111.221 13.416 110.709 13.752C110.197 14.072 109.805 14.552 109.533 15.192C109.277 15.816 109.181 16.576 109.245 17.472C109.181 18.272 109.285 18.984 109.557 19.608C109.845 20.216 110.261 20.688 110.805 21.024C111.365 21.36 112.005 21.528 112.725 21.528C113.445 21.528 114.053 21.376 114.549 21.072C115.061 20.768 115.461 20.36 115.749 19.848L118.293 21.096C118.037 21.72 117.637 22.272 117.093 22.752C116.549 23.232 115.901 23.608 115.149 23.88C114.413 24.152 113.597 24.288 112.701 24.288Z" fill="#1BB154"/>
<path d="M121.204 24V5.832H124.348V24H121.204Z" fill="#1BB354"/>
<path d="M127.251 24V10.944H130.395V24H127.251ZM127.251 9.48V6.12H130.395V9.48H127.251Z" fill="#1BB756"/>
<path d="M133.298 24V10.944H136.25V13.512L136.01 13.056C136.314 12.272 136.81 11.68 137.498 11.28C138.202 10.864 139.018 10.656 139.946 10.656C140.906 10.656 141.754 10.864 142.49 11.28C143.242 11.696 143.826 12.28 144.242 13.032C144.658 13.768 144.866 14.624 144.866 15.6V24H141.722V16.344C141.722 15.768 141.61 15.272 141.386 14.856C141.162 14.44 140.85 14.12 140.45 13.896C140.066 13.656 139.61 13.536 139.082 13.536C138.57 13.536 138.114 13.656 137.714 13.896C137.314 14.12 137.002 14.44 136.778 14.856C136.554 15.272 136.442 15.768 136.442 16.344V24H133.298Z" fill="#1ABF59"/>
<defs>
<filter id="filter0_d_336_3309" x="21.6576" y="11.3997" width="3.33321" height="3.39132" filterUnits="userSpaceOnUse" color-interpolation-filters="sRGB">
<feFlood flood-opacity="0" result="BackgroundImageFix"/>
<feColorMatrix in="SourceAlpha" type="matrix" values="0 0 0 0 0 0 0 0 0 0 0 0 0 0 0 0 0 0 127 0" result="hardAlpha"/>
<feOffset dx="0.057993" dy="0.289965"/>
<feGaussianBlur stdDeviation="0.115986"/>
<feComposite in2="hardAlpha" operator="out"/>
<feColorMatrix type="matrix" values="0 0 0 0 0 0 0 0 0 0 0 0 0 0 0 0 0 0 0.25 0"/>
<feBlend mode="normal" in2="BackgroundImageFix" result="effect1_dropShadow_336_3309"/>
<feBlend mode="normal" in="SourceGraphic" in2="effect1_dropShadow_336_3309" result="shape"/>
</filter>
<filter id="filter1_d_336_3309" x="16.9632" y="11.3997" width="3.33321" height="3.39132" filterUnits="userSpaceOnUse" color-interpolation-filters="sRGB">
<feFlood flood-opacity="0" result="BackgroundImageFix"/>
<feColorMatrix in="SourceAlpha" type="matrix" values="0 0 0 0 0 0 0 0 0 0 0 0 0 0 0 0 0 0 127 0" result="hardAlpha"/>
<feOffset dx="0.057993" dy="0.289965"/>
<feGaussianBlur stdDeviation="0.115986"/>
<feComposite in2="hardAlpha" operator="out"/>
<feColorMatrix type="matrix" values="0 0 0 0 0 0 0 0 0 0 0 0 0 0 0 0 0 0 0.25 0"/>
<feBlend mode="normal" in2="BackgroundImageFix" result="effect1_dropShadow_336_3309"/>
<feBlend mode="normal" in="SourceGraphic" in2="effect1_dropShadow_336_3309" result="shape"/>
</filter>
<filter id="filter2_d_336_3309" x="12.2946" y="11.3997" width="3.33321" height="3.39132" filterUnits="userSpaceOnUse" color-interpolation-filters="sRGB">
<feFlood flood-opacity="0" result="BackgroundImageFix"/>
<feColorMatrix in="SourceAlpha" type="matrix" values="0 0 0 0 0 0 0 0 0 0 0 0 0 0 0 0 0 0 127 0" result="hardAlpha"/>
<feOffset dx="0.057993" dy="0.289965"/>
<feGaussianBlur stdDeviation="0.115986"/>
<feComposite in2="hardAlpha" operator="out"/>
<feColorMatrix type="matrix" values="0 0 0 0 0 0 0 0 0 0 0 0 0 0 0 0 0 0 0.25 0"/>
<feBlend mode="normal" in2="BackgroundImageFix" result="effect1_dropShadow_336_3309"/>
<feBlend mode="normal" in="SourceGraphic" in2="effect1_dropShadow_336_3309" result="shape"/>
</filter>
<linearGradient id="paint0_linear_336_3309" x1="19.0836" y1="23.3638" x2="19.0836" y2="27.3539" gradientUnits="userSpaceOnUse">
<stop stop-color="#17762E"/>
<stop offset="1" stop-color="#2DBC4F"/>
</linearGradient>
<linearGradient id="paint1_linear_336_3309" x1="23.7809" y1="27.8054" x2="24.7795" y2="24.0107" gradientUnits="userSpaceOnUse">
<stop stop-color="#31C955"/>
<stop offset="1" stop-color="#207F3B"/>
</linearGradient>
<linearGradient id="paint2_linear_336_3309" x1="3.77012" y1="23.6942" x2="8.00361" y2="19.2287" gradientUnits="userSpaceOnUse">
<stop stop-color="#3BC14D"/>
<stop offset="1" stop-color="#107026"/>
</linearGradient>
<linearGradient id="paint3_linear_336_3309" x1="11.0187" y1="-1.93875" x2="11.5696" y2="20.6205" gradientUnits="userSpaceOnUse">
<stop stop-color="#BFF56D"/>
<stop offset="1" stop-color="#28B34F"/>
</linearGradient>
</defs>
</svg>
