<svg width="120" height="28" viewBox="0 0 120 28" fill="none" xmlns="http://www.w3.org/2000/svg">
<path d="M41.9251 18.3523H47.3008V20H39.6783V18.5188L45.0373 10.0808H39.6783V8.4331H47.3008V9.91433L41.9251 18.3523ZM48.7423 15.3732C48.7423 14.4523 48.931 13.6368 49.3082 12.9267C49.6965 12.2166 50.218 11.6674 50.8726 11.2791C51.5384 10.8796 52.2707 10.6799 53.0695 10.6799C53.7907 10.6799 54.4176 10.8241 54.9502 11.1126C55.4939 11.39 55.9266 11.7395 56.2483 12.1611V10.8297H58.1623V20H56.2483V18.6353C55.9266 19.068 55.4883 19.4286 54.9335 19.7171C54.3788 20.0055 53.7463 20.1498 53.0362 20.1498C52.2485 20.1498 51.5273 19.9501 50.8726 19.5506C50.218 19.1401 49.6965 18.5742 49.3082 17.853C48.931 17.1208 48.7423 16.2942 48.7423 15.3732ZM56.2483 15.4065C56.2483 14.7741 56.1152 14.2249 55.8489 13.7589C55.5937 13.2929 55.2553 12.9378 54.8337 12.6937C54.4121 12.4496 53.9571 12.3276 53.4689 12.3276C52.9808 12.3276 52.5258 12.4496 52.1042 12.6937C51.6826 12.9267 51.3386 13.2762 51.0724 13.7422C50.8172 14.1971 50.6896 14.7408 50.6896 15.3732C50.6896 16.0057 50.8172 16.5604 51.0724 17.0375C51.3386 17.5146 51.6826 17.8808 52.1042 18.136C52.5369 18.3801 52.9918 18.5021 53.4689 18.5021C53.9571 18.5021 54.4121 18.3801 54.8337 18.136C55.2553 17.8919 55.5937 17.5368 55.8489 17.0708C56.1152 16.5937 56.2483 16.039 56.2483 15.4065ZM62.5516 12.1778C62.8734 11.7562 63.3117 11.4011 63.8664 11.1126C64.4212 10.8241 65.0481 10.6799 65.7471 10.6799C66.5459 10.6799 67.2727 10.8796 67.9273 11.2791C68.593 11.6674 69.1145 12.2166 69.4918 12.9267C69.869 13.6368 70.0576 14.4523 70.0576 15.3732C70.0576 16.2942 69.869 17.1208 69.4918 17.853C69.1145 18.5742 68.593 19.1401 67.9273 19.5506C67.2727 19.9501 66.5459 20.1498 65.7471 20.1498C65.0481 20.1498 64.4267 20.0111 63.8831 19.7337C63.3394 19.4452 62.8956 19.0902 62.5516 18.6686V24.3605H60.6543V10.8297H62.5516V12.1778ZM68.127 15.3732C68.127 14.7408 67.9939 14.1971 67.7276 13.7422C67.4724 13.2762 67.1285 12.9267 66.6957 12.6937C66.2741 12.4496 65.8192 12.3276 65.331 12.3276C64.8539 12.3276 64.399 12.4496 63.9663 12.6937C63.5447 12.9378 63.2007 13.2929 62.9344 13.7589C62.6792 14.2249 62.5516 14.7741 62.5516 15.4065C62.5516 16.039 62.6792 16.5937 62.9344 17.0708C63.2007 17.5368 63.5447 17.8919 63.9663 18.136C64.399 18.3801 64.8539 18.5021 65.331 18.5021C65.8192 18.5021 66.2741 18.3801 66.6957 18.136C67.1285 17.8808 67.4724 17.5146 67.7276 17.0375C67.9939 16.5604 68.127 16.0057 68.127 15.3732ZM73.8312 12.1778C74.1529 11.7562 74.5912 11.4011 75.146 11.1126C75.7007 10.8241 76.3276 10.6799 77.0266 10.6799C77.8255 10.6799 78.5522 10.8796 79.2069 11.2791C79.8726 11.6674 80.3941 12.2166 80.7713 12.9267C81.1486 13.6368 81.3372 14.4523 81.3372 15.3732C81.3372 16.2942 81.1486 17.1208 80.7713 17.853C80.3941 18.5742 79.8726 19.1401 79.2069 19.5506C78.5522 19.9501 77.8255 20.1498 77.0266 20.1498C76.3276 20.1498 75.7063 20.0111 75.1626 19.7337C74.6189 19.4452 74.1751 19.0902 73.8312 18.6686V24.3605H71.9339V10.8297H73.8312V12.1778ZM79.4066 15.3732C79.4066 14.7408 79.2734 14.1971 79.0072 13.7422C78.752 13.2762 78.408 12.9267 77.9753 12.6937C77.5537 12.4496 77.0988 12.3276 76.6106 12.3276C76.1335 12.3276 75.6785 12.4496 75.2458 12.6937C74.8242 12.9378 74.4803 13.2929 74.214 13.7589C73.9588 14.2249 73.8312 14.7741 73.8312 15.4065C73.8312 16.039 73.9588 16.5937 74.214 17.0708C74.4803 17.5368 74.8242 17.8919 75.2458 18.136C75.6785 18.3801 76.1335 18.5021 76.6106 18.5021C77.0988 18.5021 77.5537 18.3801 77.9753 18.136C78.408 17.8808 78.752 17.5146 79.0072 17.0375C79.2734 16.5604 79.4066 16.0057 79.4066 15.3732ZM91.6181 15.1902C91.6181 15.5341 91.596 15.8448 91.5516 16.1222H84.5449C84.6003 16.8545 84.8722 17.4425 85.3604 17.8863C85.8486 18.3301 86.4477 18.5521 87.1578 18.5521C88.1786 18.5521 88.8998 18.1249 89.3214 17.2705H91.3685C91.0911 18.1138 90.5863 18.8072 89.854 19.3509C89.1328 19.8835 88.2341 20.1498 87.1578 20.1498C86.2813 20.1498 85.4935 19.9556 84.7945 19.5673C84.1066 19.1678 83.5629 18.6131 83.1635 17.903C82.7752 17.1818 82.581 16.3496 82.581 15.4065C82.581 14.4634 82.7696 13.6368 83.1468 12.9267C83.5352 12.2055 84.0733 11.6507 84.7612 11.2624C85.4602 10.8741 86.2591 10.6799 87.1578 10.6799C88.0233 10.6799 88.7944 10.8685 89.4712 11.2458C90.148 11.623 90.675 12.1556 91.0523 12.8435C91.4295 13.5203 91.6181 14.3025 91.6181 15.1902ZM89.6376 14.591C89.6265 13.892 89.3769 13.3317 88.8887 12.9101C88.4005 12.4884 87.7958 12.2776 87.0746 12.2776C86.42 12.2776 85.8597 12.4884 85.3937 12.9101C84.9276 13.3206 84.6503 13.8809 84.5615 14.591H89.6376ZM95.3826 7.68416V20H93.4853V7.68416H95.3826ZM98.8389 9.61475C98.4949 9.61475 98.2064 9.49825 97.9734 9.26525C97.7404 9.03225 97.6239 8.74377 97.6239 8.39981C97.6239 8.05585 97.7404 7.76738 97.9734 7.53437C98.2064 7.30137 98.4949 7.18487 98.8389 7.18487C99.1717 7.18487 99.4547 7.30137 99.6877 7.53437C99.9207 7.76738 100.037 8.05585 100.037 8.39981C100.037 8.74377 99.9207 9.03225 99.6877 9.26525C99.4547 9.49825 99.1717 9.61475 98.8389 9.61475ZM99.7709 10.8297V20H97.8736V10.8297H99.7709ZM106.889 10.6799C107.61 10.6799 108.253 10.8297 108.819 11.1293C109.396 11.4288 109.846 11.8727 110.167 12.4607C110.489 13.0488 110.65 13.7589 110.65 14.591V20H108.769V14.8739C108.769 14.0529 108.564 13.426 108.154 12.9933C107.743 12.5495 107.183 12.3276 106.473 12.3276C105.762 12.3276 105.197 12.5495 104.775 12.9933C104.364 13.426 104.159 14.0529 104.159 14.8739V20H102.262V10.8297H104.159V11.8782C104.47 11.501 104.864 11.2069 105.341 10.9961C105.829 10.7853 106.345 10.6799 106.889 10.6799Z" fill="url(#paint0_linear_145_6012)"/>
<path d="M23.1098 23.6986H18.5928C18.2989 23.6986 18.0314 23.5297 17.9084 23.2679L16.4029 20.0475C16.2292 19.6752 16.3952 19.238 16.7729 19.0672C17.1512 18.8973 17.5979 19.0607 17.7716 19.4307L23.9392 19.606C24.1223 19.2391 24.5723 19.0867 24.9472 19.2662C25.32 19.4447 25.4755 19.8873 25.2936 20.2531L23.787 23.283C23.6613 23.5362 23.3988 23.6986 23.1098 23.6986Z" fill="#2DA359"/>
<path d="M24.6472 19.6059C24.8303 19.2391 24.5725 19.0867 24.9475 19.2662C25.3202 19.4448 25.4758 19.8874 25.2939 20.2531L23.7873 23.2831C23.6616 23.5362 23.3991 23.6986 23.1101 23.6987H21.8301C22.119 23.6986 22.3816 23.5362 22.5072 23.2831L24.0138 20.2531C24.1226 20.0344 24.1106 19.7883 24.0038 19.5876L24.6472 19.6059Z" fill="#3FBC6E"/>
<path d="M8.598 21.0206C9.69473 20.9641 11.0619 20.3893 12.7001 19.2966C12.8217 19.2155 12.978 19.2061 13.1089 19.2713C10.983 17.9338 9.54688 16.4807 9.09453 15.9214C9.21531 16.1024 9.29814 16.3087 9.30149 16.526C9.3188 17.6502 8.95806 18.8194 8.21707 20.0336L8.11507 20.1975C7.95579 20.4479 8.0302 20.7795 8.28159 20.9382C8.37586 20.9977 8.48654 21.0263 8.598 21.0206Z" fill="#1F9D4F"/>
<path d="M33.3191 12.4716C33.3191 7.79285 27.6512 4 20.6595 4C13.6679 4 8 7.79285 8 12.4716C8 13.7002 8.39113 14.8675 9.0942 15.9213C9.79728 16.9751 11.8298 18.6343 13.1086 19.2713C15.2167 20.3213 17.8296 20.9432 20.6595 20.9432C27.6512 20.9432 33.3191 17.1503 33.3191 12.4716Z" fill="#4ED080"/>
<path d="M20.6592 4C27.6508 4 33.3193 7.79296 33.3193 12.4717C33.3193 12.7528 33.2978 13.0306 33.2578 13.3047C32.632 9.01737 27.2312 5.66715 20.6602 5.66699C14.0898 5.66699 8.68759 9.01616 8.06055 13.3027C8.02073 13.0293 8 12.7521 8 12.4717C8 7.79304 13.6677 4.00013 20.6592 4Z" fill="#5CDF8E"/>
<path d="M8.06348 11.6169C8.19991 12.5354 8.55535 13.411 9.09473 14.2195C9.79794 15.2732 11.8297 16.9321 13.1084 17.5691C15.2165 18.6191 17.8302 19.241 20.6602 19.241C27.2227 19.2408 32.6185 15.8992 33.2559 11.6199C33.2976 11.8999 33.3193 12.184 33.3193 12.4714C33.3193 17.1501 27.6516 20.9429 20.6602 20.9431C17.8302 20.9431 15.2165 20.3213 13.1084 19.2712C11.8297 18.6342 9.79798 16.9753 9.09473 15.9216C8.39165 14.8679 8 13.7001 8 12.4714C8.00001 12.183 8.02141 11.8979 8.06348 11.6169Z" fill="#35B967"/>
<path d="M31.0605 7.64404C32.4836 9.01406 33.3196 10.6766 33.3197 12.4715C33.3197 14.2635 32.4858 15.9229 31.0671 17.2917C30.7652 16.8253 30.5081 16.3609 30.3558 15.9766C29.9363 14.9179 29.7031 13.7449 29.7031 12.5106C29.7031 10.7006 30.2056 9.02333 31.0605 7.64404Z" fill="#8CE9AF"/>
<path d="M31.0605 7.64429C31.4458 8.01521 31.7868 8.40846 32.0811 8.81909C31.6028 9.93568 31.334 11.1876 31.334 12.5105C31.334 13.7447 31.5669 14.9178 31.9863 15.9763C32.0086 16.0325 32.035 16.0898 32.0615 16.1492C31.7732 16.5478 31.4417 16.9307 31.0674 17.2917C30.7655 16.8254 30.5078 16.3607 30.3555 15.9763C29.9361 14.9178 29.7031 13.7447 29.7031 12.5105C29.7031 10.7006 30.2057 9.02353 31.0605 7.64429Z" fill="#78E09F"/>
<path d="M23.6895 13.4549C23.1497 13.4549 22.7121 13.0173 22.7121 12.4774C22.7121 11.9376 23.1497 11.5 23.6895 11.5C24.2294 11.5 24.667 11.9376 24.667 12.4774C24.667 13.0173 24.2294 13.4549 23.6895 13.4549Z" fill="#FFFDFA"/>
<path d="M20.4913 13.4549C19.9515 13.4549 19.5139 13.0173 19.5139 12.4774C19.5139 11.9376 19.9515 11.5 20.4913 11.5C21.0311 11.5 21.4688 11.9376 21.4688 12.4774C21.4688 13.0173 21.0311 13.4549 20.4913 13.4549Z" fill="#FFFDFA"/>
<path d="M17.3106 13.4549C16.7708 13.4549 16.3332 13.0173 16.3332 12.4774C16.3332 11.9376 16.7708 11.5 17.3106 11.5C17.8505 11.5 18.2881 11.9376 18.2881 12.4774C18.2881 13.0173 17.8505 13.4549 17.3106 13.4549Z" fill="#FFFDFA"/>
<defs>
<linearGradient id="paint0_linear_145_6012" x1="38.834" y1="14" x2="111.834" y2="14" gradientUnits="userSpaceOnUse">
<stop stop-color="#1E8846"/>
<stop offset="1" stop-color="#1AC159"/>
</linearGradient>
</defs>
</svg>
