<svg width="105" height="21" viewBox="0 0 105 21" fill="none" xmlns="http://www.w3.org/2000/svg">
<path d="M34.9251 14.3523H40.3008V16H32.6783V14.5188L38.0373 6.08076H32.6783V4.4331H40.3008V5.91433L34.9251 14.3523ZM41.7423 11.3732C41.7423 10.4523 41.931 9.63682 42.3082 8.92671C42.6965 8.21661 43.218 7.66739 43.8726 7.27905C44.5384 6.87962 45.2707 6.67991 46.0695 6.67991C46.7907 6.67991 47.4176 6.82414 47.9502 7.11262C48.4939 7.39001 48.9266 7.73951 49.2483 8.16113V6.82969H51.1623V16H49.2483V14.6353C48.9266 15.068 48.4883 15.4286 47.9335 15.7171C47.3788 16.0055 46.7463 16.1498 46.0362 16.1498C45.2485 16.1498 44.5273 15.9501 43.8726 15.5506C43.218 15.1401 42.6965 14.5742 42.3082 13.853C41.931 13.1208 41.7423 12.2942 41.7423 11.3732ZM49.2483 11.4065C49.2483 10.7741 49.1152 10.2249 48.8489 9.75886C48.5937 9.29286 48.2553 8.93781 47.8337 8.69371C47.4121 8.44961 46.9571 8.32756 46.4689 8.32756C45.9808 8.32756 45.5258 8.44961 45.1042 8.69371C44.6826 8.92671 44.3386 9.27622 44.0724 9.74222C43.8172 10.1971 43.6896 10.7408 43.6896 11.3732C43.6896 12.0057 43.8172 12.5604 44.0724 13.0375C44.3386 13.5146 44.6826 13.8808 45.1042 14.136C45.5369 14.3801 45.9918 14.5021 46.4689 14.5021C46.9571 14.5021 47.4121 14.3801 47.8337 14.136C48.2553 13.8919 48.5937 13.5368 48.8489 13.0708C49.1152 12.5937 49.2483 12.039 49.2483 11.4065ZM55.5516 8.17778C55.8734 7.75615 56.3117 7.4011 56.8664 7.11262C57.4212 6.82414 58.0481 6.67991 58.7471 6.67991C59.5459 6.67991 60.2727 6.87962 60.9273 7.27905C61.593 7.66739 62.1145 8.21661 62.4918 8.92671C62.869 9.63682 63.0576 10.4523 63.0576 11.3732C63.0576 12.2942 62.869 13.1208 62.4918 13.853C62.1145 14.5742 61.593 15.1401 60.9273 15.5506C60.2727 15.9501 59.5459 16.1498 58.7471 16.1498C58.0481 16.1498 57.4267 16.0111 56.8831 15.7337C56.3394 15.4452 55.8956 15.0902 55.5516 14.6686V20.3605H53.6543V6.82969H55.5516V8.17778ZM61.127 11.3732C61.127 10.7408 60.9939 10.1971 60.7276 9.74222C60.4724 9.27622 60.1285 8.92671 59.6957 8.69371C59.2741 8.44961 58.8192 8.32756 58.331 8.32756C57.8539 8.32756 57.399 8.44961 56.9663 8.69371C56.5447 8.93781 56.2007 9.29286 55.9344 9.75886C55.6792 10.2249 55.5516 10.7741 55.5516 11.4065C55.5516 12.039 55.6792 12.5937 55.9344 13.0708C56.2007 13.5368 56.5447 13.8919 56.9663 14.136C57.399 14.3801 57.8539 14.5021 58.331 14.5021C58.8192 14.5021 59.2741 14.3801 59.6957 14.136C60.1285 13.8808 60.4724 13.5146 60.7276 13.0375C60.9939 12.5604 61.127 12.0057 61.127 11.3732ZM66.8312 8.17778C67.1529 7.75615 67.5912 7.4011 68.146 7.11262C68.7007 6.82414 69.3276 6.67991 70.0266 6.67991C70.8255 6.67991 71.5522 6.87962 72.2069 7.27905C72.8726 7.66739 73.3941 8.21661 73.7713 8.92671C74.1486 9.63682 74.3372 10.4523 74.3372 11.3732C74.3372 12.2942 74.1486 13.1208 73.7713 13.853C73.3941 14.5742 72.8726 15.1401 72.2069 15.5506C71.5522 15.9501 70.8255 16.1498 70.0266 16.1498C69.3276 16.1498 68.7063 16.0111 68.1626 15.7337C67.6189 15.4452 67.1751 15.0902 66.8312 14.6686V20.3605H64.9339V6.82969H66.8312V8.17778ZM72.4066 11.3732C72.4066 10.7408 72.2734 10.1971 72.0072 9.74222C71.752 9.27622 71.408 8.92671 70.9753 8.69371C70.5537 8.44961 70.0988 8.32756 69.6106 8.32756C69.1335 8.32756 68.6785 8.44961 68.2458 8.69371C67.8242 8.93781 67.4803 9.29286 67.214 9.75886C66.9588 10.2249 66.8312 10.7741 66.8312 11.4065C66.8312 12.039 66.9588 12.5937 67.214 13.0708C67.4803 13.5368 67.8242 13.8919 68.2458 14.136C68.6785 14.3801 69.1335 14.5021 69.6106 14.5021C70.0988 14.5021 70.5537 14.3801 70.9753 14.136C71.408 13.8808 71.752 13.5146 72.0072 13.0375C72.2734 12.5604 72.4066 12.0057 72.4066 11.3732ZM84.6181 11.1902C84.6181 11.5341 84.596 11.8448 84.5516 12.1222H77.5449C77.6003 12.8545 77.8722 13.4425 78.3604 13.8863C78.8486 14.3301 79.4477 14.5521 80.1578 14.5521C81.1786 14.5521 81.8998 14.1249 82.3214 13.2705H84.3685C84.0911 14.1138 83.5863 14.8072 82.854 15.3509C82.1328 15.8835 81.2341 16.1498 80.1578 16.1498C79.2813 16.1498 78.4935 15.9556 77.7945 15.5673C77.1066 15.1678 76.5629 14.6131 76.1635 13.903C75.7752 13.1818 75.581 12.3496 75.581 11.4065C75.581 10.4634 75.7696 9.63682 76.1468 8.92671C76.5352 8.20552 77.0733 7.65075 77.7612 7.26241C78.4602 6.87407 79.2591 6.67991 80.1578 6.67991C81.0233 6.67991 81.7944 6.86853 82.4712 7.24577C83.148 7.62301 83.675 8.15559 84.0523 8.8435C84.4295 9.52031 84.6181 10.3025 84.6181 11.1902ZM82.6376 10.591C82.6265 9.89201 82.3769 9.33169 81.8887 8.91007C81.4005 8.48845 80.7958 8.27764 80.0746 8.27764C79.42 8.27764 78.8597 8.48845 78.3937 8.91007C77.9276 9.3206 77.6503 9.88091 77.5615 10.591H82.6376ZM88.3826 3.68416V16H86.4853V3.68416H88.3826ZM91.8389 5.61475C91.4949 5.61475 91.2064 5.49825 90.9734 5.26525C90.7404 5.03225 90.6239 4.74377 90.6239 4.39981C90.6239 4.05585 90.7404 3.76738 90.9734 3.53437C91.2064 3.30137 91.4949 3.18487 91.8389 3.18487C92.1717 3.18487 92.4547 3.30137 92.6877 3.53437C92.9207 3.76738 93.0372 4.05585 93.0372 4.39981C93.0372 4.74377 92.9207 5.03225 92.6877 5.26525C92.4547 5.49825 92.1717 5.61475 91.8389 5.61475ZM92.7709 6.82969V16H90.8736V6.82969H92.7709ZM99.8886 6.67991C100.61 6.67991 101.253 6.82969 101.819 7.12927C102.396 7.42884 102.846 7.87265 103.167 8.46071C103.489 9.04876 103.65 9.75886 103.65 10.591V16H101.769V10.8739C101.769 10.0529 101.564 9.426 101.154 8.99329C100.743 8.54947 100.183 8.32756 99.4726 8.32756C98.7625 8.32756 98.1966 8.54947 97.775 8.99329C97.3645 9.426 97.1592 10.0529 97.1592 10.8739V16H95.2619V6.82969H97.1592V7.8782C97.4699 7.50096 97.8637 7.20693 98.3408 6.99612C98.829 6.78531 99.345 6.67991 99.8886 6.67991Z" fill="url(#paint0_linear_192_10743)"/>
<path d="M15.8751 19.9184H11.1793C10.8737 19.9184 10.5957 19.7665 10.4678 19.5309L8.90271 16.6335C8.72212 16.2985 8.89472 15.9052 9.28739 15.7515C9.68065 15.5987 10.145 15.7457 10.3256 16.0785L16.7374 16.2362C16.9278 15.9062 17.3955 15.769 17.7853 15.9305C18.1729 16.0912 18.3345 16.4894 18.1453 16.8185L16.5791 19.5446C16.4485 19.7724 16.1756 19.9184 15.8751 19.9184Z" fill="url(#paint1_linear_192_10743)"/>
<path d="M17.4736 16.2363C17.6639 15.9063 17.3959 15.7692 17.7857 15.9307C18.1732 16.0913 18.335 16.4895 18.1459 16.8186L16.5796 19.5447C16.449 19.7725 16.1761 19.9186 15.8757 19.9186H14.5449C14.8453 19.9186 15.1183 19.7725 15.2489 19.5447L16.8151 16.8186C16.9282 16.6218 16.9157 16.4004 16.8047 16.2198L17.4736 16.2363Z" fill="url(#paint2_linear_192_10743)"/>
<path d="M0.622387 17.6944C1.76254 17.6357 3.18386 17.0382 4.88686 15.9022C5.01328 15.8179 5.17581 15.8081 5.31189 15.8759C3.10184 14.4854 1.60883 12.9748 1.13858 12.3933C1.26414 12.5815 1.35025 12.7959 1.35373 13.0219C1.37173 14.1906 0.996711 15.406 0.226377 16.6683L0.120345 16.8387C-0.0452468 17.099 0.0321078 17.4438 0.293449 17.6088C0.391459 17.6706 0.506513 17.7003 0.622387 17.6944Z" fill="url(#paint3_linear_192_10743)"/>
<path d="M26.3214 8.80697C26.3214 3.94301 20.4292 0 13.1607 0C5.89226 0 0 3.94301 0 8.80697C0 10.0842 0.406613 11.2978 1.13752 12.3933C1.86843 13.4888 3.9814 15.2137 5.31083 15.8759C7.50241 16.9675 10.2187 17.6139 13.1607 17.6139C20.4292 17.6139 26.3214 13.6709 26.3214 8.80697Z" fill="url(#paint4_linear_192_10743)"/>
<path d="M13.3089 0.698242C16.5048 0.698242 19.4194 1.46369 21.6233 2.72184C19.5289 2.03475 17.1133 1.64299 14.5412 1.64299C8.53503 1.64299 3.38177 3.77924 1.18066 6.82374C2.45341 3.31466 7.40034 0.698244 13.3089 0.698242Z" fill="#F3FDC3"/>
<g filter="url(#filter0_d_192_10743)">
<path d="M16.48 9.79571C15.9187 9.79571 15.4638 9.34077 15.4638 8.77957C15.4638 8.21837 15.9187 7.76343 16.48 7.76343C17.0412 7.76343 17.4961 8.21837 17.4961 8.77957C17.4961 9.34077 17.0412 9.79571 16.48 9.79571Z" fill="#FFFDFA"/>
</g>
<g filter="url(#filter1_d_192_10743)">
<path d="M13.1548 9.79571C12.5936 9.79571 12.1386 9.34077 12.1386 8.77957C12.1386 8.21837 12.5936 7.76343 13.1548 7.76343C13.716 7.76343 14.1709 8.21837 14.1709 8.77957C14.1709 9.34077 13.716 9.79571 13.1548 9.79571Z" fill="#FFFDFA"/>
</g>
<g filter="url(#filter2_d_192_10743)">
<path d="M9.84811 9.79571C9.28691 9.79571 8.83197 9.34077 8.83197 8.77957C8.83197 8.21837 9.28691 7.76343 9.84811 7.76343C10.4093 7.76343 10.8643 8.21837 10.8643 8.77957C10.8643 9.34077 10.4093 9.79571 9.84811 9.79571Z" fill="#FFFDFA"/>
</g>
<path d="M23.961 3.77905C25.4404 5.2033 26.3095 6.93169 26.3095 8.79765C26.3095 10.6605 25.4426 12.3857 23.9677 13.8086C23.6539 13.3238 23.3867 12.841 23.2283 12.4415C22.7922 11.3409 22.5498 10.1214 22.5498 8.83826C22.5498 6.9566 23.0722 5.21295 23.961 3.77905Z" fill="#A4F0A6"/>
<path d="M23.9609 3.77893C24.362 4.16503 24.7163 4.57509 25.0225 5.00256C24.5258 6.16288 24.2461 7.46395 24.2461 8.8385C24.2461 10.1214 24.4888 11.3407 24.9248 12.441C24.9478 12.4991 24.9755 12.5584 25.0029 12.6198C24.703 13.0347 24.3573 13.4324 23.9678 13.8082C23.654 13.3235 23.3868 12.8405 23.2285 12.441C22.7925 11.3407 22.5498 10.1214 22.5498 8.8385C22.5498 6.9569 23.0722 5.2128 23.9609 3.77893Z" fill="#95E097"/>
<path d="M25.2871 10.7313C24.0058 14.2329 19.0691 16.8436 13.1689 16.8436C10.3867 16.8436 7.81768 16.2634 5.74512 15.2831C5.36459 15.1031 4.91653 14.8351 4.45703 14.5223C6.66228 15.3149 9.25722 15.7733 12.0352 15.7733C17.9478 15.7733 23.0302 13.7002 25.2871 10.7313Z" fill="white" fill-opacity="0.3"/>
<defs>
<filter id="filter0_d_192_10743" x="15.3406" y="7.76343" width="2.36083" height="2.40191" filterUnits="userSpaceOnUse" color-interpolation-filters="sRGB">
<feFlood flood-opacity="0" result="BackgroundImageFix"/>
<feColorMatrix in="SourceAlpha" type="matrix" values="0 0 0 0 0 0 0 0 0 0 0 0 0 0 0 0 0 0 127 0" result="hardAlpha"/>
<feOffset dx="0.041076" dy="0.20538"/>
<feGaussianBlur stdDeviation="0.082152"/>
<feComposite in2="hardAlpha" operator="out"/>
<feColorMatrix type="matrix" values="0 0 0 0 0 0 0 0 0 0 0 0 0 0 0 0 0 0 0.25 0"/>
<feBlend mode="normal" in2="BackgroundImageFix" result="effect1_dropShadow_192_10743"/>
<feBlend mode="normal" in="SourceGraphic" in2="effect1_dropShadow_192_10743" result="shape"/>
</filter>
<filter id="filter1_d_192_10743" x="12.0154" y="7.76343" width="2.36083" height="2.40191" filterUnits="userSpaceOnUse" color-interpolation-filters="sRGB">
<feFlood flood-opacity="0" result="BackgroundImageFix"/>
<feColorMatrix in="SourceAlpha" type="matrix" values="0 0 0 0 0 0 0 0 0 0 0 0 0 0 0 0 0 0 127 0" result="hardAlpha"/>
<feOffset dx="0.041076" dy="0.20538"/>
<feGaussianBlur stdDeviation="0.082152"/>
<feComposite in2="hardAlpha" operator="out"/>
<feColorMatrix type="matrix" values="0 0 0 0 0 0 0 0 0 0 0 0 0 0 0 0 0 0 0.25 0"/>
<feBlend mode="normal" in2="BackgroundImageFix" result="effect1_dropShadow_192_10743"/>
<feBlend mode="normal" in="SourceGraphic" in2="effect1_dropShadow_192_10743" result="shape"/>
</filter>
<filter id="filter2_d_192_10743" x="8.7088" y="7.76343" width="2.36083" height="2.40191" filterUnits="userSpaceOnUse" color-interpolation-filters="sRGB">
<feFlood flood-opacity="0" result="BackgroundImageFix"/>
<feColorMatrix in="SourceAlpha" type="matrix" values="0 0 0 0 0 0 0 0 0 0 0 0 0 0 0 0 0 0 127 0" result="hardAlpha"/>
<feOffset dx="0.041076" dy="0.20538"/>
<feGaussianBlur stdDeviation="0.082152"/>
<feComposite in2="hardAlpha" operator="out"/>
<feColorMatrix type="matrix" values="0 0 0 0 0 0 0 0 0 0 0 0 0 0 0 0 0 0 0.25 0"/>
<feBlend mode="normal" in2="BackgroundImageFix" result="effect1_dropShadow_192_10743"/>
<feBlend mode="normal" in="SourceGraphic" in2="effect1_dropShadow_192_10743" result="shape"/>
</filter>
<linearGradient id="paint0_linear_192_10743" x1="31.834" y1="10" x2="104.834" y2="10" gradientUnits="userSpaceOnUse">
<stop stop-color="#1E8846"/>
<stop offset="1" stop-color="#1AC159"/>
</linearGradient>
<linearGradient id="paint1_linear_192_10743" x1="13.5168" y1="16.2373" x2="13.5168" y2="19.0635" gradientUnits="userSpaceOnUse">
<stop stop-color="#17762E"/>
<stop offset="1" stop-color="#2DBC4F"/>
</linearGradient>
<linearGradient id="paint2_linear_192_10743" x1="16.8441" y1="19.3834" x2="17.5514" y2="16.6957" gradientUnits="userSpaceOnUse">
<stop stop-color="#31C955"/>
<stop offset="1" stop-color="#207F3B"/>
</linearGradient>
<linearGradient id="paint3_linear_192_10743" x1="2.67061" y1="16.4714" x2="5.66916" y2="13.3086" gradientUnits="userSpaceOnUse">
<stop stop-color="#3BC14D"/>
<stop offset="1" stop-color="#107026"/>
</linearGradient>
<linearGradient id="paint4_linear_192_10743" x1="7.80444" y1="-1.68412" x2="8.19467" y2="14.2945" gradientUnits="userSpaceOnUse">
<stop stop-color="#BFF56D"/>
<stop offset="1" stop-color="#28B34F"/>
</linearGradient>
</defs>
</svg>
