<svg width="34" height="63" viewBox="0 0 34 63" fill="none" xmlns="http://www.w3.org/2000/svg">
<path d="M7.55854 62.9931L6.49477 62.9999C6.17208 63.0018 5.85209 62.9533 5.55313 62.857C5.25417 62.7608 4.98211 62.6187 4.75255 62.439C4.52299 62.2592 4.34044 62.0454 4.21535 61.8096C4.09026 61.5739 4.02509 61.3209 4.02358 61.0652L4.00007 57.9652C3.99767 57.7095 4.05896 57.4559 4.18043 57.219C4.30191 56.9821 4.48118 56.7665 4.70797 56.5846C4.93476 56.4027 5.20463 56.258 5.50209 56.1589C5.79956 56.0598 6.11878 56.0081 6.44147 56.0069L7.50525 56C8.8642 55.9934 9.96811 56.8579 9.97644 57.9348L9.99995 61.0347C10.002 61.2904 9.94054 61.5439 9.81895 61.7807C9.69737 62.0175 9.51808 62.233 9.29135 62.4148C9.06462 62.5967 8.79488 62.7414 8.49756 62.8406C8.20023 62.9398 7.88115 62.9916 7.55854 62.9931Z" fill="#2B6C99"/>
<path d="M27.5585 62.9931L26.4948 62.9999C26.1721 63.0018 25.8521 62.9533 25.5531 62.857C25.2542 62.7608 24.9821 62.6187 24.7526 62.439C24.523 62.2592 24.3404 62.0454 24.2153 61.8096C24.0903 61.5739 24.0251 61.3209 24.0236 61.0652L24.0001 57.9652C23.9977 57.7095 24.059 57.4559 24.1804 57.219C24.3019 56.9821 24.4812 56.7665 24.708 56.5846C24.9348 56.4027 25.2046 56.258 25.5021 56.1589C25.7996 56.0598 26.1188 56.0081 26.4415 56.0069L27.5053 56C28.8642 55.9934 29.9681 56.8579 29.9764 57.9348L29.9999 61.0347C30.002 61.2904 29.9405 61.5439 29.819 61.7807C29.6974 62.0175 29.5181 62.233 29.2914 62.4148C29.0646 62.5967 28.7949 62.7414 28.4976 62.8406C28.2002 62.9398 27.8811 62.9916 27.5585 62.9931Z" fill="#2B6C99"/>
<path d="M29.4827 18.6897H3.72414C1.66733 18.6897 0 20.357 0 22.4138L0 56.2759C0 58.3327 1.66733 60 3.72414 60H29.4827C31.5396 60 33.2069 58.3327 33.2069 56.2759V22.4138C33.2069 20.357 31.5396 18.6897 29.4827 18.6897Z" fill="#70A1E2"/>
<path d="M7.93117 18.6897H4.20703V60H7.93117V18.6897Z" fill="#C3E7FD"/>
<path d="M28.9995 18.6897H25.2754V60H28.9995V18.6897Z" fill="#C3E7FD"/>
<path d="M11.7241 18.6897V3.72414H21.6552V18.6897H25.3793V3.72414C25.3793 1.66733 23.712 0 21.6552 0H11.7241C9.66733 0 8 1.66733 8 3.72414L8 18.6897H11.7241Z" fill="#92B5E3"/>
<path d="M21.7241 0H18C20.0568 0 21.7241 1.66733 21.7241 3.72414V18.6897H25.4483V3.72414C25.4483 1.66733 23.7809 0 21.7241 0Z" fill="#6F8CC2"/>
</svg>
