<svg width="53" height="46" viewBox="0 0 53 46" fill="none" xmlns="http://www.w3.org/2000/svg">
<path d="M26.4492 23.823H26.4748" stroke="#bcbac5" stroke-width="2.2" stroke-linecap="round" stroke-linejoin="round"/>
<path d="M36.7258 11.0289V5.88947C36.7258 4.5264 36.1844 3.21915 35.2205 2.25531C34.2567 1.29148 32.9494 0.75 31.5864 0.75H21.3074C19.9444 0.75 18.6371 1.29148 17.6733 2.25531C16.7094 3.21915 16.168 4.5264 16.168 5.88947V11.0289" stroke="#bcbac5" stroke-width="2.2" stroke-linecap="round" stroke-linejoin="round"/>
<path d="M52.1447 26.3928C44.5197 31.4269 35.5841 34.1105 26.4473 34.1105C17.3105 34.1105 8.37493 31.4269 0.75 26.3928" stroke="#bcbac5" stroke-width="2.2" stroke-linecap="round" stroke-linejoin="round"/>
<path d="M47.0052 12.3412H5.88947C3.05102 12.3412 0.75 14.6422 0.75 17.4807V39.2414C0.75 42.0798 3.05102 44.3808 5.88947 44.3808H47.0052C49.8437 44.3808 52.1447 42.0798 52.1447 39.2414V17.4807C52.1447 14.6422 49.8437 12.3412 47.0052 12.3412Z" stroke="#bcbac5" stroke-width="2.2" stroke-linecap="round" stroke-linejoin="round"/>
</svg>
