<svg width="35" height="70" viewBox="0 0 35 70" fill="none" xmlns="http://www.w3.org/2000/svg">
<path d="M22.3861 68.0053C23.8359 67.1124 24.2873 65.2132 23.3943 63.7634C22.5014 62.3136 20.6022 61.8622 19.1524 62.7552C17.7026 63.6481 17.2512 65.5473 18.1442 66.9971C19.0371 68.4469 20.9363 68.8983 22.3861 68.0053Z" fill="#616161"/>
<path d="M21.4535 66.4892C22.066 66.112 22.2567 65.3097 21.8794 64.6972C21.5022 64.0848 20.6999 63.8941 20.0875 64.2713C19.475 64.6485 19.2843 65.4508 19.6615 66.0633C20.0388 66.6757 20.8411 66.8664 21.4535 66.4892Z" fill="#9E9E9E"/>
<path d="M30.2107 68.4513L29.5188 68.4532C29.3089 68.4537 29.101 68.4127 28.907 68.3327C28.713 68.2526 28.5366 68.1351 28.3881 67.9867C28.2396 67.8384 28.1218 67.6623 28.0415 67.4684C27.9612 67.2745 27.9199 67.0666 27.92 66.8567L27.9183 63.9053C27.9178 63.6954 27.9588 63.4875 28.0389 63.2935C28.1189 63.0995 28.2365 62.9232 28.3848 62.7746C28.5331 62.6261 28.7092 62.5083 28.9032 62.428C29.0971 62.3477 29.3049 62.3064 29.5148 62.3065L30.2067 62.3046C31.0906 62.3039 31.8048 63.0172 31.8055 63.9011L31.8073 66.8525C31.8075 67.0624 31.7664 67.2702 31.6863 67.4641C31.6061 67.6581 31.4886 67.8343 31.3403 67.9828C31.192 68.1313 31.016 68.2491 30.8221 68.3294C30.6283 68.4098 30.4206 68.4513 30.2107 68.4513Z" fill="#616161"/>
<path d="M5.85876 68.0156C7.30855 67.1227 7.75996 65.2235 6.867 63.7737C5.97404 62.3239 4.07487 61.8725 2.62508 62.7655C1.17529 63.6584 0.723885 65.5576 1.61684 67.0074C2.5098 68.4572 4.40897 68.9086 5.85876 68.0156Z" fill="#616161"/>
<path d="M4.92421 66.4995C5.53666 66.1222 5.72735 65.32 5.35013 64.7075C4.97291 64.095 4.17062 63.9044 3.55816 64.2816C2.94571 64.6588 2.75502 65.4611 3.13224 66.0735C3.50946 66.686 4.31175 66.8767 4.92421 66.4995Z" fill="#9E9E9E"/>
<path d="M13.0799 68.4642L12.3879 68.4662C12.1781 68.4666 11.9701 68.4256 11.7761 68.3456C11.5821 68.2655 11.4058 68.148 11.2573 67.9997C11.1087 67.8514 10.9909 67.6752 10.9106 67.4813C10.8303 67.2874 10.789 67.0795 10.7892 66.8697L10.7874 63.9183C10.787 63.7084 10.828 63.5005 10.908 63.3064C10.9881 63.1124 11.1056 62.9361 11.2539 62.7876C11.4022 62.6391 11.5784 62.5213 11.7723 62.4409C11.9662 62.3606 12.1741 62.3193 12.3839 62.3195L13.0759 62.3176C13.9598 62.3169 14.674 63.0302 14.6746 63.9141L14.6764 66.8655C14.6749 67.2886 14.5062 67.6941 14.2072 67.9935C13.9082 68.2929 13.503 68.4621 13.0799 68.4642Z" fill="#616161"/>
<path d="M13.7869 9.53797L13.8087 38.9672L11.7919 38.9355L11.7718 9.3969L13.7869 9.53797Z" fill="#BDBDBD" stroke="url(#paint0_linear_254_6398)" stroke-width="0.519947" stroke-miterlimit="10"/>
<path d="M23.7517 9.15831L23.7743 39.0654L21.7578 39.072L21.7309 9.16837L23.7517 9.15831Z" fill="#BDBDBD" stroke="url(#paint1_linear_254_6398)" stroke-width="0.519947" stroke-miterlimit="10"/>
<path d="M11.0622 7.02841L11.069 10.0177C11.0688 10.2987 11.2285 10.529 11.4955 10.5259C11.4955 10.5259 11.7253 10.1035 12.7002 10.1244C13.6751 10.1454 13.9972 10.5325 13.9972 10.5325C14.2642 10.5294 14.3571 10.2631 14.3573 9.98213L14.3525 8.81993C14.3505 8.05035 14.7973 7.44657 15.5302 7.44329L19.9033 7.43259C20.6363 7.4293 21.2308 8.055 21.2327 8.82458L21.2386 9.32886C21.2407 9.66215 21.1672 10.0958 21.4849 10.0973C21.4849 10.0973 21.7781 9.79726 22.774 9.8232C23.7725 9.85348 23.9926 10.0944 23.9926 10.0944C24.3102 10.0959 24.4544 9.81589 24.4523 9.48259L24.4443 6.99587C24.4441 6.3746 24.1007 5.36118 22.8587 4.79973C21.8569 4.34717 21.0939 4.16582 17.746 4.17246C14.3754 4.1811 13.8465 4.39928 12.8264 4.77064C11.6991 5.22003 11.0603 6.41414 11.0622 7.02841Z" fill="#267CC9"/>
<path opacity="0.65" d="M14.1008 6.15627C13.5302 6.35409 13.0153 6.6856 12.599 7.12308C12.5491 7.17776 12.4991 7.23244 12.4304 7.2568C12.3045 7.30451 12.1604 7.22591 12.0927 7.10628C12.0277 6.99099 12.0243 6.84967 12.0349 6.71168C12.1637 5.32979 13.7733 4.85821 15.0109 4.80107C15.4295 4.78224 16.5777 4.77413 16.3646 5.51479C16.3094 5.71613 16.1111 5.85019 15.9102 5.90226C15.7092 5.95434 15.4952 5.93675 15.2876 5.93917C14.8863 5.94732 14.4841 6.0218 14.1008 6.15627Z" fill="#FFC0D9"/>
<path d="M34.7951 40.3854C34.7947 38.3959 33.1739 36.7831 31.1871 36.7879L22.4258 36.7946L22.4478 62.2945L31.2345 62.2901C33.224 62.2897 34.8368 60.6689 34.832 58.6821L34.7951 40.3854Z" fill="#267CC9"/>
<path d="M4.34571 62.3366L22.659 62.3261C24.6485 62.3257 26.2613 60.7049 26.2565 58.7181L26.2193 40.3917C26.2189 38.4023 24.5981 36.7894 22.6113 36.7942L4.30066 36.809C2.31122 36.8094 0.698363 38.4302 0.703136 40.417L0.737715 58.7391C0.740825 60.7328 2.3546 62.344 4.34571 62.3366Z" fill="#2A99F0"/>
<path d="M8.26525 43.7576L3.79044 43.8177C3.39944 43.8346 3.06705 43.5298 3.05013 43.1388L3.01145 40.8365C2.99478 40.4513 3.28813 40.1223 3.67297 40.0969L8.09792 40.0244C8.19145 40.0178 8.28537 40.0297 8.37427 40.0595C8.46317 40.0893 8.5453 40.1364 8.61593 40.1981C8.68656 40.2598 8.7443 40.3348 8.78582 40.4189C8.82735 40.503 8.85183 40.5944 8.85787 40.688L8.94932 43.0025C8.96938 43.3992 8.66495 43.7403 8.26525 43.7576Z" fill="#FFC0D9"/>
<path d="M28.1396 62.2903C28.7554 61.8931 29.2345 61.371 29.7366 60.7988C30.3712 60.0733 30.7895 59.2779 30.7911 58.291L30.7503 41.0065C30.7492 39.86 30.1329 38.8593 29.266 38.1504C28.8299 37.7916 28.3298 37.4065 27.6671 37.1455C27.1158 36.9294 26.2781 36.7821 26.2441 36.7851C26.582 36.577 27.2766 36.5794 28.3699 36.8022C30.3702 37.2074 31.7471 39.0064 31.7502 41.0001C31.7528 41.0045 31.791 58.2847 31.791 58.2847C31.7913 59.4219 31.3632 60.5176 30.592 61.3534C30.2439 61.7292 29.7534 62.097 29.2779 62.3242C28.5681 62.6658 28.1396 62.2903 28.1396 62.2903Z" fill="#155B98"/>
<path d="M25.7398 62.3113L23.0691 62.331L23.0571 58.0722L27.6202 58.0401C28.0128 58.0372 28.3289 58.3564 28.3291 58.7447C28.3361 58.7464 28.6498 62.3115 25.7398 62.3113Z" fill="#424242"/>
<path d="M20.6388 58.0741C20.2461 58.0769 19.934 58.3946 19.9298 58.7856L19.9347 60.2584C19.937 60.8055 20.155 61.3295 20.5412 61.7169C20.9275 62.1043 21.4509 62.3238 21.9979 62.3277L22.6602 62.3261C24.4647 62.3261 26.455 61.1241 26.3186 58.3222C26.3115 58.1652 26.1775 58.0446 26.0248 58.049L20.6388 58.0741Z" fill="#757575"/>
<path d="M33.9949 58.0689C33.3763 58.0735 33.0202 58.4362 32.9594 59.1429C32.7955 61.0304 31.9416 61.8849 31.2422 62.2918L31.5868 62.2887C33.7163 62.3215 35.1114 60.5899 34.8808 58.1686C34.8758 58.1119 34.8265 58.0706 34.7715 58.0686L33.9949 58.0689Z" fill="#424242"/>
<path d="M6.42657 58.139C6.81919 58.1362 7.13528 58.4554 7.13543 58.8437L7.14034 60.3165C7.14228 60.8639 6.92871 61.3902 6.5458 61.7814C6.16289 62.1727 5.6414 62.3975 5.09404 62.4074L4.43445 62.4133C2.61533 62.4284 0.54837 61.0903 0.698955 58.3566C0.70558 58.2509 0.796204 58.1652 0.899193 58.1675L6.42657 58.139Z" fill="#757575"/>
<defs>
<linearGradient id="paint0_linear_254_6398" x1="11.5198" y1="16.1759" x2="14.0574" y2="16.1715" gradientUnits="userSpaceOnUse">
<stop stop-color="#EEEEEE"/>
<stop offset="1" stop-color="#757575"/>
</linearGradient>
<linearGradient id="paint1_linear_254_6398" x1="21.4837" y1="16.1187" x2="24.0219" y2="16.1143" gradientUnits="userSpaceOnUse">
<stop stop-color="#EEEEEE"/>
<stop offset="1" stop-color="#757575"/>
</linearGradient>
</defs>
</svg>
