<svg width="35" height="70" viewBox="0 0 35 70" fill="none" xmlns="http://www.w3.org/2000/svg">
<path d="M31.3861 68.0053C32.8359 67.1124 33.2873 65.2132 32.3943 63.7634C31.5014 62.3136 29.6022 61.8622 28.1524 62.7552C26.7026 63.6481 26.2512 65.5473 27.1442 66.9971C28.0371 68.4469 29.9363 68.8983 31.3861 68.0053Z" fill="#616161"/>
<path d="M30.4535 66.4893C31.066 66.1121 31.2567 65.3098 30.8794 64.6973C30.5022 64.0849 29.6999 63.8942 29.0875 64.2714C28.475 64.6486 28.2843 65.4509 28.6615 66.0634C29.0388 66.6758 29.8411 66.8665 30.4535 66.4893Z" fill="#9E9E9E"/>
<path d="M22.8553 68.4513L22.1633 68.4532C21.9535 68.4537 21.7455 68.4127 21.5515 68.3327C21.3575 68.2526 21.1812 68.1351 21.0327 67.9867C20.8841 67.8384 20.7663 67.6623 20.686 67.4684C20.6057 67.2745 20.5644 67.0666 20.5646 66.8567L20.5628 63.9053C20.5624 63.6954 20.6034 63.4875 20.6834 63.2935C20.7635 63.0995 20.881 62.9232 21.0293 62.7746C21.1776 62.6261 21.3538 62.5083 21.5477 62.428C21.7416 62.3477 21.9495 62.3064 22.1593 62.3065L22.8513 62.3046C23.7352 62.3039 24.4494 63.0172 24.45 63.9011L24.4518 66.8525C24.452 67.0624 24.4109 67.2702 24.3308 67.4641C24.2507 67.6581 24.1331 67.8343 23.9848 67.9828C23.8366 68.1313 23.6605 68.2491 23.4667 68.3294C23.2729 68.4098 23.0651 68.4513 22.8553 68.4513Z" fill="#616161"/>
<path d="M13.6166 68.0156C15.0664 67.1227 15.5178 65.2235 14.6248 63.7737C13.7319 62.3239 11.8327 61.8725 10.3829 62.7655C8.9331 63.6584 8.4817 65.5576 9.37465 67.0074C10.2676 68.4572 12.1668 68.9086 13.6166 68.0156Z" fill="#616161"/>
<path d="M12.682 66.4995C13.2945 66.1222 13.4852 65.32 13.1079 64.7075C12.7307 64.095 11.9284 63.9044 11.316 64.2816C10.7035 64.6588 10.5128 65.4611 10.8901 66.0735C11.2673 66.686 12.0696 66.8767 12.682 66.4995Z" fill="#9E9E9E"/>
<path d="M5.07987 68.4642L4.38795 68.4662C4.17806 68.4666 3.97015 68.4256 3.77612 68.3456C3.5821 68.2655 3.40578 68.148 3.25726 67.9997C3.10874 67.8514 2.99095 67.6752 2.91062 67.4813C2.8303 67.2874 2.78903 67.0795 2.78917 66.8697L2.78741 63.9183C2.78698 63.7084 2.82796 63.5005 2.90801 63.3064C2.98806 63.1124 3.10561 62.9361 3.25392 62.7876C3.40223 62.6391 3.57838 62.5213 3.77229 62.4409C3.96621 62.3606 4.17406 62.3193 4.38395 62.3195L5.07587 62.3176C5.95977 62.3169 6.67397 63.0302 6.67465 63.9141L6.6764 66.8655C6.67487 67.2886 6.50624 67.6941 6.20723 67.9935C5.90822 68.2929 5.50303 68.4621 5.07987 68.4642Z" fill="#616161"/>
<path d="M13.786 9.53796L13.8074 22.9671L11.7906 22.9354L11.7708 9.39689L13.786 9.53796Z" fill="#BDBDBD" stroke="url(#paint0_linear_254_6359)" stroke-width="0.519947" stroke-miterlimit="10"/>
<path d="M23.7508 9.15836L23.773 23.0655L21.7565 23.0721L21.73 9.16842L23.7508 9.15836Z" fill="#BDBDBD" stroke="url(#paint1_linear_254_6359)" stroke-width="0.519947" stroke-miterlimit="10"/>
<path d="M11.0622 7.02847L11.069 10.0178C11.0688 10.2988 11.2285 10.529 11.4955 10.5259C11.4955 10.5259 11.7253 10.1035 12.7002 10.1245C13.6751 10.1454 13.9972 10.5326 13.9972 10.5326C14.2642 10.5295 14.3571 10.2632 14.3573 9.98219L14.3525 8.81999C14.3505 8.05041 14.7973 7.44664 15.5302 7.44335L19.9033 7.43265C20.6363 7.42937 21.2308 8.05506 21.2327 8.82464L21.2386 9.32892C21.2407 9.66221 21.1672 10.0959 21.4849 10.0974C21.4849 10.0974 21.7781 9.79732 22.774 9.82327C23.7725 9.85354 23.9926 10.0944 23.9926 10.0944C24.3102 10.096 24.4544 9.81595 24.4523 9.48265L24.4443 6.99593C24.4441 6.37467 24.1007 5.36124 22.8587 4.79979C21.8569 4.34723 21.0939 4.16588 17.746 4.17252C14.3754 4.18116 13.8465 4.39935 12.8264 4.7707C11.6991 5.22009 11.0603 6.41421 11.0622 7.02847Z" fill="#616161"/>
<path opacity="0.65" d="M14.1008 6.15633C13.5302 6.35415 13.0153 6.68566 12.599 7.12314C12.5491 7.17782 12.4991 7.2325 12.4304 7.25686C12.3045 7.30457 12.1604 7.22597 12.0927 7.10634C12.0277 6.99105 12.0243 6.84973 12.0349 6.71174C12.1637 5.32985 13.7733 4.85827 15.0109 4.80113C15.4295 4.7823 16.5777 4.77419 16.3646 5.51486C16.3094 5.71619 16.1111 5.85025 15.9102 5.90232C15.7092 5.9544 15.4952 5.93681 15.2876 5.93923C14.8863 5.94738 14.4841 6.02186 14.1008 6.15633Z" fill="#BDBDBD"/>
<path d="M34.7951 26.3854C34.7947 24.396 33.1739 22.7831 31.1871 22.7879L22.4258 22.7947L22.4478 62.2946L31.2345 62.2902C33.224 62.2897 34.8368 60.669 34.832 58.6822L34.7951 26.3854Z" fill="#E89C12"/>
<path d="M4.34571 62.3366L22.659 62.3262C24.6485 62.3257 26.2613 60.705 26.2565 58.7182L26.2193 26.3918C26.2189 24.4023 24.5981 22.7895 22.6113 22.7943L4.30066 22.8091C2.31122 22.8095 0.698363 24.4303 0.703136 26.4171L0.737715 58.7391C0.740825 60.7329 2.3546 62.3441 4.34571 62.3366Z" fill="#FECA38"/>
<path d="M28.1396 62.2903C28.7554 61.8931 29.2345 61.371 29.7366 60.7988C30.3712 60.0733 30.7895 59.2779 30.7911 58.291L30.7503 27.0065C30.7492 25.86 30.1329 24.8593 29.266 24.1504C28.8299 23.7916 28.3298 23.4065 27.6671 23.1455C27.1158 22.9294 26.2781 22.7821 26.2441 22.7851C26.582 22.577 27.2766 22.5794 28.3699 22.8022C30.3702 23.2074 31.7471 25.0064 31.7502 27.0001C31.7528 27.0045 31.791 58.2847 31.791 58.2847C31.7913 59.4219 31.3632 60.5176 30.592 61.3534C30.2439 61.7292 29.7534 62.097 29.2779 62.3242C28.5681 62.6658 28.1396 62.2903 28.1396 62.2903Z" fill="#924905"/>
<path d="M10.2614 49.8515C11.2207 48.8484 10.6849 46.7789 9.06445 45.2292C7.44404 43.6794 5.35272 43.2363 4.39335 44.2394C3.43397 45.2425 3.96985 47.312 5.59026 48.8617C7.21067 50.4115 9.302 50.8546 10.2614 49.8515Z" fill="#784D30"/>
<path d="M8.54562 50.5778C7.5507 50.4856 6.40828 49.9404 5.43769 49.0145C4.62414 48.2369 4.04618 47.3083 3.81485 46.3991C3.57084 45.45 3.71751 44.6307 4.23391 44.0916C5.2727 43.0036 7.50463 43.4454 9.20674 45.0738C10.0203 45.8514 10.5982 46.7801 10.8296 47.6893C11.0736 48.6384 10.9269 49.4577 10.4105 49.9968C9.96309 50.4636 9.30123 50.6502 8.54562 50.5778ZM6.0643 43.9202C5.44935 43.8628 4.9048 44.007 4.54532 44.3837C4.13587 44.8152 4.01981 45.4901 4.22976 46.287C4.4454 47.1221 4.98067 47.9815 5.7342 48.7005C7.26427 50.166 9.22489 50.6136 10.1008 49.6976C10.5102 49.2662 10.6263 48.5912 10.4163 47.7944C10.2007 46.9592 9.66542 46.0999 8.91189 45.3809C8.00832 44.5154 6.95357 44.0058 6.0643 43.9202Z" fill="#FFE0B2"/>
<path d="M14.8359 41.7591L17.778 45.4202L23.2532 39.7774L20.2418 39.5349L20.4328 36.3042L14.8359 41.7591Z" fill="#7CB342" stroke="#F1F8E9" stroke-width="0.383092" stroke-miterlimit="10"/>
<path d="M13.6749 30.359C14.0593 28.8974 12.6531 27.2061 11.3695 28.5464C10.991 28.9409 10.6562 29.4936 10.0396 29.4432C9.88931 29.4223 9.73895 29.3237 9.68923 29.175C9.59613 28.8978 9.8003 28.5211 9.93653 28.3057C10.3672 27.6759 10.8494 27.3431 10.5671 26.555C10.2261 25.5939 8.43662 25.5309 7.65158 26.0802C6.57833 26.8308 7.04028 27.6876 7.77921 28.5768C8.15233 28.9983 7.86762 29.6517 7.30327 29.4436C6.82354 29.1595 6.6016 28.382 6.12853 28.0699C5.45736 27.4555 4.51601 27.9935 4.14733 28.7046C3.79996 29.3726 3.71435 30.3396 4.30516 30.8719C4.88096 31.3897 5.4305 31.2245 6.01369 31.0266C6.29962 30.9282 6.68421 30.8347 6.97591 31.0075C7.54136 31.4599 6.3553 31.814 6.07442 32.0468C5.74953 32.2469 5.46332 32.471 5.33581 32.8363C4.95956 33.797 5.85326 35.0152 6.99576 34.8911C8.0883 34.8993 8.46085 33.8453 8.43447 32.8518C8.44304 32.6135 8.45993 32.3402 8.64586 32.1958C8.99438 31.9273 9.28953 32.3968 9.37829 32.6768C9.52579 33.1297 9.53498 33.6199 9.68247 34.0728C10.195 35.6035 12.4452 34.9107 12.5829 33.3978C12.6602 32.4658 11.8994 31.9485 10.9821 31.7786C10.7521 31.735 10.4594 31.5508 10.506 31.2771C10.6151 30.7558 11.5127 30.9618 11.774 30.998C12.5607 31.111 13.3346 31.2617 13.6749 30.359Z" fill="#FAF0C7"/>
<path d="M9.19589 31.4206C9.66001 31.1348 9.80452 30.5268 9.51866 30.0627C9.23279 29.5985 8.62481 29.454 8.16068 29.7399C7.69656 30.0258 7.55205 30.6338 7.83792 31.0979C8.12378 31.562 8.73176 31.7065 9.19589 31.4206Z" fill="#FF7555"/>
<path d="M25.7398 62.3114L23.0691 62.3311L23.0571 58.0722L27.6202 58.0401C28.0128 58.0373 28.3289 58.3565 28.3291 58.7448C28.3361 58.7464 28.6498 62.3116 25.7398 62.3114Z" fill="#424242"/>
<path d="M20.6388 58.0741C20.2461 58.077 19.934 58.3947 19.9298 58.7857L19.9347 60.2585C19.937 60.8055 20.155 61.3296 20.5412 61.717C20.9275 62.1044 21.4509 62.3238 21.9979 62.3278L22.6602 62.3262C24.4647 62.3262 26.455 61.1242 26.3186 58.3222C26.3115 58.1652 26.1775 58.0446 26.0248 58.049L20.6388 58.0741Z" fill="#757575"/>
<path d="M33.9949 58.0689C33.3763 58.0735 33.0202 58.4362 32.9594 59.1429C32.7955 61.0304 31.9416 61.8849 31.2422 62.2918L31.5868 62.2887C33.7163 62.3215 35.1114 60.5899 34.8808 58.1686C34.8758 58.1119 34.8265 58.0706 34.7715 58.0686L33.9949 58.0689Z" fill="#424242"/>
<path d="M6.42657 58.139C6.81919 58.1362 7.13528 58.4554 7.13543 58.8437L7.14034 60.3165C7.14228 60.8639 6.92871 61.3902 6.5458 61.7814C6.16289 62.1727 5.6414 62.3975 5.09404 62.4074L4.43445 62.4133C2.61533 62.4284 0.54837 61.0903 0.698955 58.3566C0.70558 58.2509 0.796204 58.1652 0.899193 58.1675L6.42657 58.139Z" fill="#757575"/>
<path d="M9.58883 48.8179C9.4673 48.2713 8.88439 48.3435 8.54601 48.1337C8.29186 47.6628 8.41225 46.9852 7.81654 46.7068C8.34325 45.2531 7.23911 45.4491 6.30708 45.9634C6.26835 45.7841 6.43192 45.5938 6.42518 45.3888C6.43906 45.0815 6.24197 44.7906 5.94596 44.6981C5.5906 44.5286 4.6839 45.0452 5.22098 45.3836C5.55898 45.4861 5.43512 44.9649 5.71408 44.9425C6.12438 44.9586 5.89228 45.484 5.84704 45.721C5.77682 45.9853 5.85391 46.2366 6.04293 46.3592C6.46233 46.6326 6.88408 46.1339 7.24099 45.9857C7.65122 45.8466 7.56043 46.3686 7.42586 46.5769C7.39689 46.6366 7.13092 46.6511 7.06328 46.6867C4.9628 47.4188 7.08232 49.3758 7.61611 47.2545C8.18372 47.2932 7.81476 48.13 8.10618 48.4285C8.45262 48.8066 9.26348 48.6777 9.26742 49.3922C9.2651 49.4176 9.26544 49.4472 9.29178 49.4609C9.52108 49.4451 9.62358 49.0295 9.58883 48.8179ZM7.12062 47.5656C7.06069 47.74 6.80944 47.8947 6.66873 47.7244C6.54229 47.4319 6.96515 47.1774 7.21846 47.2006C7.19718 47.3213 7.1629 47.4499 7.12062 47.5656Z" fill="#FFE0B2"/>
<defs>
<linearGradient id="paint0_linear_254_6359" x1="11.5198" y1="16.1759" x2="14.0574" y2="16.1715" gradientUnits="userSpaceOnUse">
<stop stop-color="#EEEEEE"/>
<stop offset="1" stop-color="#757575"/>
</linearGradient>
<linearGradient id="paint1_linear_254_6359" x1="21.4837" y1="16.1187" x2="24.0219" y2="16.1143" gradientUnits="userSpaceOnUse">
<stop stop-color="#EEEEEE"/>
<stop offset="1" stop-color="#757575"/>
</linearGradient>
</defs>
</svg>
