<svg width="43" height="36" viewBox="0 0 43 36" fill="none" xmlns="http://www.w3.org/2000/svg">
<path d="M38.4827 8.6897H3.72414C1.66733 8.6897 0 10.357 0 12.4138V32.2759C0 34.3327 1.66733 36 3.72414 36H38.4827C40.5396 36 42.2069 34.3327 42.2069 32.2759V12.4138C42.2069 10.357 40.5396 8.6897 38.4827 8.6897Z" fill="#E270D6"/>
<path d="M9.93117 8.6897H6.20703V36H9.93117V8.6897Z" fill="#FDC3F9"/>
<path d="M35.9995 8.6897H32.2754V36H35.9995V8.6897Z" fill="#FDC3F9"/>
<path d="M16.1382 8.68965V3.72414H26.0692V8.68965H29.7934V3.72414C29.7934 1.66733 28.126 0 26.0692 0H16.1382C14.0814 0 12.4141 1.66733 12.4141 3.72414V8.68965H16.1382Z" fill="#E392D8"/>
<path d="M26.0698 0H22.3457C24.4025 0 26.0698 1.66733 26.0698 3.72414V8.68965H29.794V3.72414C29.794 1.66733 28.1267 0 26.0698 0Z" fill="#C26FB7"/>
</svg>
