<svg width="53" height="48" viewBox="0 0 53 48" fill="none" xmlns="http://www.w3.org/2000/svg">
<path d="M36.7258 47.0052V5.88947C36.7258 4.5264 36.1844 3.21915 35.2205 2.25531C34.2567 1.29148 32.9494 0.75 31.5864 0.75H21.3074C19.9444 0.75 18.6371 1.29148 17.6733 2.25531C16.7094 3.21915 16.168 4.5264 16.168 5.88947V47.0052" stroke="#bcbac5" stroke-width="2.2" stroke-linecap="round" stroke-linejoin="round"/>
<path d="M47.0052 11.0291H5.88947C3.05102 11.0291 0.75 13.3301 0.75 16.1685V41.8659C0.75 44.7043 3.05102 47.0053 5.88947 47.0053H47.0052C49.8437 47.0053 52.1447 44.7043 52.1447 41.8659V16.1685C52.1447 13.3301 49.8437 11.0291 47.0052 11.0291Z" stroke="#bcbac5" stroke-width="2.2" stroke-linecap="round" stroke-linejoin="round"/>
</svg>
