<svg width="38" height="62" viewBox="0 0 38 62" fill="none" xmlns="http://www.w3.org/2000/svg">
<path d="M6.55854 61.9931L5.49477 61.9999C5.17208 62.0018 4.85209 61.9533 4.55313 61.857C4.25417 61.7608 3.98211 61.6187 3.75255 61.439C3.52299 61.2592 3.34044 61.0454 3.21535 60.8096C3.09026 60.5739 3.02509 60.3209 3.02358 60.0652L3.00007 56.9652C2.99767 56.7095 3.05896 56.4559 3.18043 56.219C3.30191 55.9821 3.48118 55.7665 3.70797 55.5846C3.93476 55.4027 4.20463 55.258 4.50209 55.1589C4.79956 55.0598 5.11878 55.0081 5.44147 55.0069L6.50525 55C7.8642 54.9934 8.96811 55.8579 8.97644 56.9348L8.99995 60.0347C9.00204 60.2904 8.94054 60.5439 8.81895 60.7807C8.69737 61.0175 8.51808 61.233 8.29135 61.4148C8.06462 61.5967 7.79488 61.7414 7.49756 61.8406C7.20023 61.9398 6.88115 61.9916 6.55854 61.9931Z" fill="#99452B"/>
<path d="M30.5585 61.9931L29.4948 61.9999C29.1721 62.0018 28.8521 61.9533 28.5531 61.857C28.2542 61.7608 27.9821 61.6187 27.7526 61.439C27.523 61.2592 27.3404 61.0454 27.2153 60.8096C27.0903 60.5739 27.0251 60.3209 27.0236 60.0652L27.0001 56.9652C26.9977 56.7095 27.059 56.4559 27.1804 56.219C27.3019 55.9821 27.4812 55.7665 27.708 55.5846C27.9348 55.4027 28.2046 55.258 28.5021 55.1589C28.7996 55.0598 29.1188 55.0081 29.4415 55.0069L30.5053 55C31.8642 54.9934 32.9681 55.8579 32.9764 56.9348L32.9999 60.0347C33.002 60.2904 32.9405 60.5439 32.819 60.7807C32.6974 61.0175 32.5181 61.233 32.2914 61.4148C32.0646 61.5967 31.7949 61.7414 31.4976 61.8406C31.2002 61.9398 30.8811 61.9916 30.5585 61.9931Z" fill="#99452B"/>
<path d="M33.4827 34.6897H3.72414C1.66733 34.6897 0 36.357 0 38.4138L0 56.2759C0 58.3327 1.66733 60 3.72414 60H33.4827C35.5396 60 37.2069 58.3327 37.2069 56.2759V38.4138C37.2069 36.357 35.5396 34.6897 33.4827 34.6897Z" fill="#E27370"/>
<path d="M8.93117 34.6897H5.20703V60H8.93117V34.6897Z" fill="#FDCFC3"/>
<path d="M30.9995 34.6897H27.2754V60H30.9995V34.6897Z" fill="#FDCFC3"/>
<path d="M13.2241 34.6897V3.72414H23.1552V34.6897H26.8793V3.72414C26.8793 1.66733 25.212 0 23.1552 0H13.2241C11.1673 0 9.5 1.66733 9.5 3.72414L9.5 34.6897H13.2241Z" fill="#E39292"/>
<path d="M23.2241 0H19.5C21.5568 0 23.2241 1.66733 23.2241 3.72414V34.6897H26.9483V3.72414C26.9483 1.66733 25.2809 0 23.2241 0Z" fill="#C26F6F"/>
</svg>
