<svg width="36" height="32" viewBox="0 0 36 32" fill="none" xmlns="http://www.w3.org/2000/svg">
<path d="M12.4492 3.03717H13.5635V5.40106H12.4492V3.03717Z" fill="#B9692D"/>
<path d="M22.8379 3.03717H23.9522V5.40106H22.8379V3.03717Z" fill="#B9692D"/>
<path d="M33.3368 31.4833H1.93299C0.81573 31.4833 0.577578 30.1278 0.577578 30.1278C-0.721972 20.8105 0.577578 7.03291 0.577578 7.03291C0.577578 5.89507 1.50079 4.97186 2.63863 4.97186H32.6253C33.7631 4.97186 34.6863 5.89507 34.6863 7.03291C34.6863 7.03291 36.0153 22.9392 34.6863 30.1278C34.6922 30.1278 34.2806 31.4833 33.3368 31.4833Z" fill="#7A442C"/>
<path d="M33.3368 31.4833H1.93299C0.81573 31.4833 0.577578 30.1278 0.577578 30.1278C-0.721972 20.8105 0.577578 7.03291 0.577578 7.03291C0.577578 5.89507 1.50079 4.97186 2.63863 4.97186H32.6253C33.7631 4.97186 34.6863 5.89507 34.6863 7.03291C34.6863 7.03291 36.0153 22.9392 34.6863 30.1278C34.6922 30.1278 34.2806 31.4833 33.3368 31.4833Z" fill="#C9803D"/>
<path d="M34.4056 8.84106C34.2557 7.75908 34.5203 6.44189 33.603 5.65098C33.236 5.3226 32.7606 5.14145 32.2681 5.14234H3.0018C0.949575 5.19526 0.923113 7.21809 0.849609 8.84106H0.943694C0.964276 15.1918 1.88454 18.9552 17.6702 18.9552C34.3615 18.9552 34.3997 15.6122 34.3997 8.84106H34.4056Z" fill="#C9803D"/>
<path d="M2.64199 4.97186C0.216363 5.14239 1.03373 7.43571 0.951402 8.52651C0.951402 8.52651 1.45417 7.127 2.56555 7.127H32.8756C33.9958 7.127 34.381 8.52651 34.381 8.52651C34.3045 7.44159 35.1543 5.21884 32.6287 4.97186H2.64199Z" fill="#DA994E"/>
<path d="M34.6733 6.75357C34.6673 6.70118 34.6585 6.64916 34.6468 6.59774C34.6439 6.57716 34.6351 6.55658 34.6321 6.53599C34.6204 6.48601 34.6057 6.43603 34.591 6.38899L34.5733 6.33606C34.5557 6.28608 34.5351 6.2361 34.5145 6.18611C34.5095 6.17249 34.5025 6.15963 34.4939 6.14789C34.4704 6.09497 34.444 6.04499 34.4146 5.99501L34.3969 5.96854C34.3653 5.9158 34.331 5.86476 34.294 5.81566C34.2911 5.80978 34.2852 5.80389 34.2823 5.80095C34.2411 5.74803 34.1999 5.69805 34.1558 5.64807L34.1499 5.64219C34.1029 5.5922 34.0529 5.54222 34 5.49518C34.1294 6.16259 34.2117 6.77121 34.2117 7.15343V8.76463H34.8174V8.69407L34.8085 8.5647L34.7909 8.33537L34.7821 8.21776C34.7762 8.1472 34.7733 8.07664 34.7674 8.01195L34.7586 7.88553C34.7556 7.82672 34.7497 7.76792 34.7468 7.715C34.7439 7.68854 34.7439 7.66795 34.7409 7.64443C34.738 7.58857 34.7321 7.52977 34.7292 7.47978C34.7262 7.43274 34.7233 7.39452 34.7203 7.35336C34.7174 7.33278 34.7174 7.30925 34.7145 7.28867C34.7086 7.20341 34.7027 7.14461 34.6998 7.10344C34.6968 7.06228 34.6939 7.03288 34.6939 7.03288C34.6939 6.95938 34.6909 6.88587 34.6821 6.81237L34.6733 6.75357Z" fill="#A06841"/>
<path d="M0.562605 7.20345C0.559665 7.23579 0.556724 7.27107 0.553784 7.31223C0.55015 7.33953 0.548186 7.36702 0.547904 7.39456C0.544964 7.43278 0.542024 7.47394 0.536143 7.51805C0.536143 7.52981 0.533203 7.54157 0.533203 7.55333V8.76467H1.13888V7.15347C1.13888 6.75948 1.23002 6.11265 1.36821 5.41583C1.18886 5.55696 1.03597 5.72455 0.912483 5.91566C0.906603 5.92448 0.903663 5.93036 0.897783 5.93918C0.865441 5.9921 0.833099 6.04503 0.803698 6.10089C0.794877 6.11853 0.786057 6.13617 0.780176 6.15087C0.756655 6.19791 0.736074 6.2479 0.718433 6.29788C0.709613 6.31846 0.700792 6.34198 0.694912 6.36256C0.677271 6.40961 0.66551 6.45959 0.650809 6.50663C0.644929 6.53015 0.636109 6.55367 0.633169 6.58013C0.621408 6.63012 0.612587 6.68304 0.606707 6.73596C0.603767 6.75948 0.597887 6.78301 0.594946 6.80359C0.586126 6.88003 0.580246 6.95353 0.580246 7.03292C0.580246 7.03292 0.577305 7.07702 0.568485 7.15935C0.565545 7.17111 0.565545 7.18875 0.562605 7.20345Z" fill="#A06841"/>
<path d="M34.4636 10.4052C34.4606 13.5071 34.0137 15.0389 32.1761 16.5237C30.0739 18.2231 25.5637 18.9817 17.5577 18.9817C10.0191 18.9817 5.46481 18.1319 3.22441 16.3061C1.31625 14.7537 0.910509 13.1778 0.884048 10.4052H0.537109C0.595913 16.6971 1.7955 20.4135 17.6753 20.4135C34.4842 20.4135 34.8105 17.1058 34.8164 10.4052H34.4636Z" fill="#894320"/>
<path d="M34.7852 8.69117C34.7116 7.65035 34.6617 7.03292 34.6617 7.03292C34.6617 6.41843 34.3912 5.87156 33.9678 5.49228C34.0972 6.15969 34.1795 6.76831 34.1795 7.15053V8.71469C34.1795 12.0812 34.1795 14.5156 32.2625 16.0651C30.1603 17.7645 25.6501 18.5231 17.644 18.5231C10.1055 18.5231 5.55117 17.6733 3.31077 15.8475C1.2703 14.1863 1.10859 11.6519 1.10859 8.51182V7.15347C1.10859 6.75948 1.19974 6.11265 1.33792 5.41583C1.09215 5.60827 0.893451 5.85417 0.756919 6.13488C0.620387 6.41559 0.54961 6.72371 0.549962 7.03586C0.549962 7.03586 0.532321 7.21815 0.505859 7.55333V8.51182C0.505859 15.1713 1.26148 19.1287 17.647 19.1287C34.8057 19.1287 34.7881 15.6799 34.7852 8.69117Z" fill="#E8B755"/>
<path d="M0.228516 26.7496C0.30202 27.5405 0.478429 29.384 0.581334 30.1278C0.581334 30.1278 0.816547 31.4832 1.93675 31.4832H33.3406C34.2844 31.4832 34.696 30.1278 34.696 30.1278C34.8253 29.431 35.0047 27.711 35.0988 26.7907C35.0988 26.7907 34.5843 27.5317 32.0322 28.1079C29.4831 28.6813 24.4201 28.2638 19.1337 28.2579C12.1009 28.2491 4.7152 28.4754 2.73941 27.9756C1.06646 27.5552 0.228516 26.7496 0.228516 26.7496Z" fill="#AF6930"/>
<path d="M18.2996 2.63436C19.4962 2.64318 20.6311 2.84899 21.5338 3.14889C21.8513 3.25474 23.1626 4.07504 23.6271 3.97801C23.8741 3.91921 24.4092 3.7134 24.2828 3.03716C24.1417 2.2786 23.0391 2.19922 22.1924 1.88756C20.9957 1.44948 19.6168 1.29071 18.2996 1.29071C17.0324 1.29071 15.7181 1.43772 14.5568 1.8317C13.6924 2.12572 12.0488 2.54616 12.2193 3.34C12.381 4.1015 13.2572 4.03094 13.4718 3.92509C14.0952 3.61932 14.592 3.36058 15.2889 3.10773C16.1856 2.78137 17.2823 2.62848 18.2996 2.63436Z" fill="#9E5626"/>
<path d="M18.2649 1.60533C20.9463 1.60533 22.0783 2.41681 22.6957 2.84901C24.2011 3.90159 24.304 3.3018 24.2834 3.03718C24.204 1.99931 23.1455 1.22605 22.2782 0.805603C21.0551 0.211691 19.6409 0 18.2913 0C16.9947 0 15.6511 0.19699 14.4603 0.735039C13.5753 1.13196 12.0112 2.12867 12.1876 3.21359C12.3287 4.06624 13.4489 3.23711 13.6665 3.09305C14.3074 2.68142 15.4776 1.60533 18.2649 1.60533Z" fill="#C97E39"/>
<path opacity="0.68" d="M12.5402 3.03717C12.305 2.60203 12.8254 2.04928 13.0518 1.86111C13.5045 1.48771 14.0161 1.16723 14.5601 0.946721C14.8394 0.834995 15.6538 0.664466 15.695 1.10255C15.7361 1.54651 14.6159 1.98754 14.3337 2.12572C13.3281 2.61673 12.7636 3.45468 12.5402 3.03717Z" fill="#E6A467"/>
<path d="M19.4224 22.9774H15.8589C15.6296 22.9774 15.4414 22.7921 15.4414 22.5599V20.2724C15.4414 20.0431 15.6266 19.8549 15.8589 19.8549H19.4194C19.6488 19.8549 19.8369 20.0402 19.8369 20.2724V22.5599C19.8369 22.7921 19.6517 22.9774 19.4224 22.9774Z" fill="#894320"/>
<path d="M19.6885 19.1375H15.5958C15.4224 19.1375 15.2812 18.9964 15.2812 18.8229V17.5851C15.2812 17.4116 15.4224 17.2705 15.5958 17.2705H19.6915C19.865 17.2705 20.0061 17.4116 20.0061 17.5851V18.8229C20.0031 18.9964 19.862 19.1375 19.6885 19.1375Z" fill="#E6B351"/>
<path d="M19.4278 22.3834H15.8585C15.6938 22.3834 15.5586 22.2482 15.5586 22.0835V20.093C15.5586 19.9284 15.6938 19.7932 15.8585 19.7932H19.4308C19.5954 19.7932 19.7307 19.9284 19.7307 20.093V22.0835C19.7277 22.2482 19.5954 22.3834 19.4278 22.3834Z" fill="#E6B351"/>
<path d="M16.1046 18.2025C16.1046 18.8788 16.0017 18.9523 15.7783 18.9523C15.5548 18.9523 15.5195 18.7347 15.5195 18.1967C15.5195 17.6586 15.5578 17.4734 15.7959 17.4734C16.0341 17.4734 16.1046 17.5263 16.1046 18.2025Z" fill="#FFF59D"/>
<path d="M16.4818 21.0339C16.4818 21.6807 16.4935 22.063 16.1819 22.063C15.8673 22.063 15.8379 21.6984 15.8379 21.0163C15.8379 20.5253 15.8379 20.1225 16.1642 20.1225C16.4877 20.1195 16.4818 20.3841 16.4818 21.0339Z" fill="#FFF59D"/>
</svg>
