<svg width="43" height="80" viewBox="0 0 43 80" fill="none" xmlns="http://www.w3.org/2000/svg">
<path d="M31.4778 68.0005V5.88947C31.4778 4.5264 30.9363 3.21915 29.9725 2.25531C29.0086 1.29148 27.7014 0.75 26.3383 0.75H16.0594C14.6963 0.75 13.3891 1.29148 12.4252 2.25531C11.4614 3.21915 10.9199 4.5264 10.9199 5.88947V68.0005" stroke="#bcbac5" stroke-width="2.2" stroke-linecap="round" stroke-linejoin="round"/>
<path d="M5.34271 72.8888C4.17477 72.7339 3.07619 72.0314 2.2393 70.8898C1.28572 69.5891 0.75 67.8249 0.75 65.9854V31.3057C0.75 29.4662 1.28572 27.702 2.2393 26.4012C3.19288 25.1005 4.48622 24.3698 5.83479 24.3698H36.3435C37.6921 24.3698 38.9854 25.1005 39.939 26.4012C40.8926 27.702 41.4283 29.4662 41.4283 31.3057V65.9854C41.4283 67.8249 40.8926 69.5891 39.939 70.8898C39.1021 72.0314 38.0035 72.7339 36.8356 72.8888" stroke="#bcbac5" stroke-width="2.2" stroke-linecap="round" stroke-linejoin="round"/>
<path d="M15.9512 73.1399H26.2301" stroke="#bcbac5" stroke-width="2.2" stroke-linecap="round" stroke-linejoin="round"/>
<path d="M31.368 78.2794C34.2064 78.2794 36.5075 75.9784 36.5075 73.14C36.5075 70.3015 34.2064 68.0005 31.368 68.0005C28.5295 68.0005 26.2285 70.3015 26.2285 73.14C26.2285 75.9784 28.5295 78.2794 31.368 78.2794Z" stroke="#bcbac5" stroke-width="2.2" stroke-linecap="round" stroke-linejoin="round"/>
<path d="M10.8094 78.2794C13.6478 78.2794 15.9489 75.9784 15.9489 73.14C15.9489 70.3015 13.6478 68.0005 10.8094 68.0005C7.97094 68.0005 5.66992 70.3015 5.66992 73.14C5.66992 75.9784 7.97094 78.2794 10.8094 78.2794Z" stroke="#bcbac5" stroke-width="2.2" stroke-linecap="round" stroke-linejoin="round"/>
</svg>
