<svg width="48" height="69" viewBox="0 0 48 69" fill="none" xmlns="http://www.w3.org/2000/svg">
<path d="M34.1028 57.5028V5.88947C34.1028 4.5264 33.5613 3.21915 32.5975 2.25531C31.6336 1.29148 30.3264 0.75 28.9633 0.75H18.6844C17.3213 0.75 16.0141 1.29148 15.0502 2.25531C14.0864 3.21915 13.5449 4.5264 13.5449 5.88947L13.5449 57.5028" stroke="#bcbac5" stroke-width="2.2" stroke-linecap="round" stroke-linejoin="round"/>
<path d="M7.96712 61.0789C4.17477 60.9241 3.07619 60.2215 2.2393 59.08C1.28572 57.7792 0.75 56.0151 0.75 54.1755V40.4911C0.75 38.6516 1.28572 36.8874 2.2393 35.5867C3.19288 34.2859 4.48622 33.5552 5.83479 33.5552H41.5924C42.9409 33.5552 44.2343 34.2859 45.1878 35.5867C46.1414 36.8874 46.6772 38.6516 46.6772 40.4911V54.1755C46.6772 56.0151 46.1414 57.7792 45.1878 59.08C44.351 60.2215 43.2524 60.9241 39.46 61.0789" stroke="#bcbac5" stroke-width="2.2" stroke-linecap="round" stroke-linejoin="round"/>
<path d="M18.5742 61.3301H28.8532" stroke="#bcbac5" stroke-width="2.2" stroke-linecap="round" stroke-linejoin="round"/>
<path d="M33.991 67.7819C36.8295 67.7819 39.1305 65.4808 39.1305 62.6424C39.1305 59.8039 36.8295 57.5029 33.991 57.5029C31.1526 57.5029 28.8516 59.8039 28.8516 62.6424C28.8516 65.4808 31.1526 67.7819 33.991 67.7819Z" stroke="#bcbac5" stroke-width="2.2" stroke-linecap="round" stroke-linejoin="round"/>
<path d="M13.4344 67.7819C16.2728 67.7819 18.5739 65.4808 18.5739 62.6424C18.5739 59.8039 16.2728 57.5029 13.4344 57.5029C10.5959 57.5029 8.29492 59.8039 8.29492 62.6424C8.29492 65.4808 10.5959 67.7819 13.4344 67.7819Z" stroke="#bcbac5" stroke-width="2.2" stroke-linecap="round" stroke-linejoin="round"/>
</svg>
