<svg width="34" height="35" viewBox="0 0 34 35" fill="none" xmlns="http://www.w3.org/2000/svg">
<path d="M7.54102 6.51061L7.5903 1.16766L10.0429 0.416809L12.8695 5.26691L7.54102 6.51061Z" fill="#D94A22"/>
<path opacity="0.59" d="M9.10448 4.77994C9.10448 4.77994 8.35072 1.33297 9.20304 0.990886C10.7192 0.384985 11.9021 4.36827 11.9021 4.36827L9.10448 4.77994Z" fill="#A63B1A"/>
<path d="M4.41568 8.35441C4.38959 7.88186 3.7518 4.1131 4.72008 2.01129C5.16363 1.05171 6.98423 0.413919 8.6135 0.0515378C9.01647 -0.0383326 10.0572 -0.0963136 10.7037 0.645842C11.2864 1.31552 12.1474 2.78244 12.9969 4.99441L12.3852 6.31058C12.3852 6.31058 11.5415 4.07831 10.6979 2.23452C9.99924 0.706722 9.11213 1.21406 9.02226 1.57064C8.85992 2.22582 9.68904 5.77715 9.68904 5.77715C8.48304 6.29029 4.41568 8.35441 4.41568 8.35441Z" fill="#FD7035"/>
<path d="M10.7266 3.87829L11.2339 1.4141L13.2313 0.257385L15.6346 0.263183L17.635 1.88375L18.1887 5.04371L15.7738 4.22908L15.4462 1.96492L13.2313 1.90984L12.9356 3.71015L10.7266 3.87829Z" fill="#32645C"/>
<path d="M8.6116 0.0545024C6.98234 0.413984 5.34438 0.932913 4.71818 2.01426C4.3587 2.63465 4.14997 4.26102 4.19056 5.77142C4.50655 5.27279 5.79663 4.41177 6.75911 3.99431C7.7187 3.57684 7.82886 3.16228 7.84335 2.97964C7.91583 2.15051 7.84625 1.46634 8.08977 0.880731C8.39707 0.138575 8.83483 0.0458053 9.08994 0.00811768C8.89571 0.00811768 8.72467 0.028411 8.6116 0.0545024Z" fill="#FE964F"/>
<path d="M9.92283 0.135646C9.76628 0.0805642 9.60973 0.0457756 9.45898 0.0283813C9.61553 0.068968 9.76918 0.121151 9.92283 0.135646Z" fill="#FE964F"/>
<path d="M24.5352 30.5118C28.8489 29.3667 30.1361 24.4934 31.3595 24.0847" stroke="#A63A1A" stroke-width="2.8457" stroke-miterlimit="10"/>
<path d="M28.7362 20.5565C29.0522 22.612 29.6726 22.7656 30.7539 22.7105C32.3919 22.6294 32.5716 22.2525 32.9369 19.4462C33.3891 15.9615 32.0817 11.1056 30.9539 7.77754C30.3567 6.01492 30.4176 4.80602 29.0869 3.46086C28.3564 2.7216 25.5124 1.63446 24.6862 3.04919C24.118 4.02327 24.4021 5.01185 24.9442 5.79459C26.5184 8.07324 27.9679 15.5847 28.7362 20.5565Z" fill="#D94A22"/>
<path opacity="0.59" d="M25.4258 6.64398C25.7273 7.26147 26.0375 8.06161 26.2897 8.96321C28.8583 8.88494 31.6413 10.117 31.6413 10.0417C31.6413 9.97788 31.4239 8.30513 30.7165 6.64687C30.4092 5.92791 29.4728 3.95656 28.3132 4.1479C26.855 4.39142 25.4258 6.64398 25.4258 6.64398Z" fill="#A63B1A"/>
<path d="M23.3633 10.204C24.1199 8.58636 26.9175 4.46971 28.5265 4.33636C29.3237 4.26968 30.2195 5.91924 30.5471 6.82084C31.4661 9.35171 32.4663 13.3234 32.7591 17.469C32.9417 20.055 32.4692 22.1133 31.4951 22.9685C35.2291 22.2699 33.7708 14.1206 33.4549 12.4334C32.3909 6.78315 30.9965 4.65235 29.9267 3.51303C29.1092 2.64331 25.5492 0.802419 23.6706 0.88939C22.2239 0.956068 19.0582 3.66088 18.1943 5.15969C17.9392 5.60034 23.3633 10.204 23.3633 10.204Z" fill="#FD7035"/>
<path d="M18.3528 34.7126C23.2522 34.3241 26.3513 31.57 26.676 28.958C27.795 19.9304 25.5831 6.87596 16.7729 4.3451C15.7901 4.06389 14.0623 3.69281 12.5605 3.69281C10.8124 3.69281 8.11631 4.06099 6.17974 5.38875C2.6487 7.81236 1.70651 11.2622 1.47459 12.9727C0.619372 19.2433 12.1895 35.2025 18.3528 34.7126Z" fill="#FE964F"/>
<path d="M26.676 28.9579C27.2587 24.2615 26.9398 18.4779 25.2583 13.6481C24.3828 12.5174 23.4087 11.9869 22.6028 12.2478C21.6345 12.5609 20.7851 13.851 21.0924 15.1498C21.0924 15.1498 23.4377 24.5601 21.8432 30.5118C20.788 34.4516 18.0078 34.7212 18.0078 34.7212C18.1238 34.7212 18.2397 34.7212 18.3528 34.7125C23.2551 34.3241 26.3513 31.57 26.676 28.9579Z" fill="#D94A22"/>
<path d="M3.84569 33.7414C5.3242 34.2081 9.21182 34.7908 16.0971 34.7908C22.2807 34.7908 22.2372 32.5905 22.7475 30.0074C23.7969 24.679 22.359 7.31947 11.589 6.94549C2.17004 6.615 1.22785 12.1464 0.517583 18.1532C-0.224573 24.4354 -0.0506299 26.7866 0.308852 29.3464C0.775598 32.6919 2.82812 33.4196 3.84569 33.7414Z" fill="#FD7035"/>
<path d="M24.5533 16.1819C24.304 14.8715 23.9503 13.4307 23.3676 12.0247L22.666 12.0565C23.1907 13.2481 23.6256 14.6483 23.9387 16.2979C24.9389 21.5828 25.0548 25.1254 25.0026 27.0475C24.9708 28.2013 25.6056 28.2071 25.6375 26.975C25.6868 25.0008 25.5535 21.4698 24.5533 16.1819Z" fill="#1F7368"/>
<path d="M25.272 26.4445C25.1017 26.5034 24.9579 26.6209 24.8661 26.7759C24.7743 26.9309 24.7404 27.1134 24.7705 27.291L25.1473 29.4769C25.1616 29.5772 25.1995 29.6726 25.2581 29.7552C25.3168 29.8378 25.3943 29.9051 25.4842 29.9517C25.5741 29.9982 25.6739 30.0225 25.7752 30.0227C25.8765 30.0228 25.9763 29.9987 26.0663 29.9524L27.1158 29.416C27.4579 29.2421 27.568 28.8043 27.3506 28.4883L26.1417 26.7315C26.0477 26.5955 25.912 26.4939 25.755 26.4421C25.598 26.3903 25.4284 26.3912 25.272 26.4445Z" fill="#E2A610"/>
<path d="M25.766 29.5232C25.7138 29.4276 25.4355 27.9375 25.3514 27.2591C25.2586 26.4966 25.5862 26.4532 25.6355 26.4126C25.5164 26.3938 25.3945 26.4037 25.2799 26.4414C25.1654 26.4791 25.0614 26.5435 24.9767 26.6294C24.892 26.7152 24.829 26.82 24.7928 26.935C24.7566 27.0501 24.7484 27.1721 24.7687 27.291L25.1456 29.4769C25.1891 29.7755 25.4239 29.9842 25.6935 30.019C25.8153 30.0335 25.9428 30.0161 26.0646 29.9523L26.3081 29.8276C26.2965 29.8247 25.937 29.8363 25.766 29.5232Z" fill="#FFCA28"/>
<path d="M33.2208 25.5516L30.5131 25.7922C30.2638 25.8154 30.0406 25.6298 30.0203 25.3776L29.8145 23.0787C29.7913 22.8294 29.9768 22.6061 30.229 22.5858L32.9367 22.3452C33.1861 22.322 33.4093 22.5076 33.4296 22.7598L33.6354 25.0587C33.6557 25.308 33.4702 25.5284 33.2208 25.5516Z" fill="#D45425"/>
<path d="M32.485 25.6385L29.9223 25.8676C29.673 25.8908 29.4497 25.7052 29.4294 25.453L29.2207 23.1077C29.1975 22.8584 29.3831 22.6351 29.6353 22.6148L32.198 22.3858C32.4473 22.3626 32.6706 22.5482 32.6909 22.8004L32.8996 25.1457C32.9199 25.395 32.7344 25.6153 32.485 25.6385Z" fill="#2B655B"/>
<path d="M30.7081 28.2854L29.9225 24.1456C29.908 24.076 29.9572 24.0093 30.0297 24.0035L32.0967 23.7948C32.1547 23.789 32.2098 23.8267 32.2243 23.8846L33.2448 27.7056C33.3114 27.9549 33.1578 28.2129 32.9056 28.2709L31.2589 28.6478C31.0067 28.7029 30.7545 28.5405 30.7081 28.2854Z" fill="#DD8B19"/>
<path opacity="0.65" d="M12.789 15.8919L8.31574 15.7586C7.92436 15.7586 7.60547 15.4397 7.60547 15.0483L7.66635 12.7465C7.66635 12.3609 7.97365 12.0449 8.35922 12.0362L12.7832 12.1551C12.8769 12.1525 12.9702 12.1685 13.0577 12.2021C13.1453 12.2357 13.2253 12.2863 13.2932 12.351C13.3611 12.4156 13.4155 12.4931 13.4534 12.5789C13.4912 12.6647 13.5117 12.7571 13.5137 12.8508L13.505 15.1672C13.5079 15.5643 13.189 15.8919 12.789 15.8919Z" fill="#FFF59D"/>
<path d="M23.671 0.886495C22.5752 0.921284 20.456 2.51576 19.1543 3.9276C19.8269 3.87251 21.4185 4.61757 22.7404 5.63803C23.0042 5.84097 23.6536 5.80328 24.0769 5.34813C24.4625 4.93356 24.8248 4.61467 25.2133 4.203C27.492 1.7881 29.2836 2.98541 29.2836 2.98541C27.3992 1.75911 25.1031 0.84301 23.671 0.886495Z" fill="#FE964F"/>
<path d="M23.4574 12.245C22.0281 8.67335 19.1436 5.23798 12.8411 4.66976C8.46349 4.27549 5.51516 6.30773 4.31496 7.04408C4.04825 7.20643 3.74964 7.40936 3.54671 7.68767C3.28869 8.04136 3.25391 8.33126 3.25391 8.33126C3.25391 8.33126 7.05166 4.78573 12.7831 5.29306C16.059 5.58296 20.3612 6.6759 22.7297 12.2131C22.9297 12.1638 23.1993 12.1928 23.4574 12.245Z" fill="#D45425"/>
<path d="M18.5514 31.9643C18.5514 31.9643 13.9187 32.2861 8.70915 32.002C5.96375 31.8512 3.95181 31.4569 3.54304 30.9264C3.03861 30.2712 2.44141 29.6363 2.44141 26.2676C2.44141 23.9977 3.27923 22.1684 4.9027 22.1278C6.14349 22.0959 19.1689 21.9539 18.1861 21.9539C17.2034 21.9539 16.3162 24.1078 16.4061 26.43C16.6264 32.1208 18.5514 31.9643 18.5514 31.9643Z" fill="#FE964F"/>
<path d="M14.0045 26.2676C14.1059 26.2386 15.0278 26.3198 15.7642 25.8067C16.0425 25.6125 16.2628 25.4501 16.4397 25.2646C16.6107 23.5251 17.2949 22.1075 18.0602 21.9684C18.0863 21.9626 18.1124 21.9568 18.1356 21.9539C16.9992 21.9771 7.70773 21.635 4.80578 21.6784C3.46062 21.6987 2.42276 23.2816 2.51553 25.1428C2.70977 25.4878 3.02287 25.8589 3.50121 25.9313C4.4405 26.0734 13.903 26.2995 14.0045 26.2676Z" fill="#FE964F"/>
<path opacity="0.45" d="M14.0045 26.2676C14.1059 26.2386 15.0278 26.3198 15.7642 25.8067C16.0425 25.6125 16.2628 25.4501 16.4397 25.2646C16.6107 23.5251 17.2949 22.1075 18.0602 21.9684C18.0863 21.9626 18.1124 21.9568 18.1356 21.9539C16.9992 21.9771 7.70773 21.635 4.80578 21.6784C3.46062 21.6987 2.42276 23.2816 2.51553 25.1428C2.70977 25.4878 3.02287 25.8589 3.50121 25.9313C4.4405 26.0734 13.903 26.2995 14.0045 26.2676Z" fill="#FFF59D"/>
<path d="M20.0224 24.8471C19.9238 23.3338 19.5672 22.6148 19.2425 22.2727C18.9439 21.9538 18.4772 21.9278 17.8133 21.9596C17.4016 21.9799 16.6508 22.3742 16.3348 24.7021V24.6992C16.0855 25.2646 15.4332 25.827 14.3518 25.827L3.98774 25.4907C2.94988 25.424 2.57011 24.4325 2.52083 24.3427C2.52083 24.3427 2.37007 25.0413 2.51213 25.4849C2.69187 26.0415 3.35285 26.372 3.98774 26.372L14.3518 26.7083C15.1781 26.7083 15.8072 26.3807 16.213 26.0763C16.1956 26.4358 16.1869 26.8271 16.1869 27.2504C16.1869 31.7033 17.4712 32.0396 18.2916 32.0019C19.1121 31.9614 19.9151 31.6483 20.0456 30.9206C20.2311 29.903 20.2108 27.7635 20.0224 24.8471Z" fill="#D94A22"/>
</svg>
