<svg width="43" height="36" viewBox="0 0 43 36" fill="none" xmlns="http://www.w3.org/2000/svg">
<path d="M38.4827 8.6897H3.72414C1.66733 8.6897 0 10.357 0 12.4138V32.2759C0 34.3327 1.66733 36 3.72414 36H38.4827C40.5396 36 42.2069 34.3327 42.2069 32.2759V12.4138C42.2069 10.357 40.5396 8.6897 38.4827 8.6897Z" fill="#DEE270"/>
<path d="M42.207 32.2793C42.2068 34.3359 40.5391 36.0029 38.4824 36.0029H3.72461C1.66796 36.0029 0.000252518 34.3359 0 32.2793V22C4.4538 26.8155 12.1948 30.0029 21 30.0029C29.9435 30.0029 37.7888 26.7142 42.207 21.7715V32.2793Z" fill="#CDD06F"/>
<path d="M16.1382 8.68965V3.72414H26.0692V8.68965H29.7934V3.72414C29.7934 1.66733 28.126 0 26.0692 0H16.1382C14.0814 0 12.4141 1.66733 12.4141 3.72414V8.68965H16.1382Z" fill="#E3E392"/>
<path d="M26.0698 0H22.3457C24.4025 0 26.0698 1.66733 26.0698 3.72414V8.68965H29.794V3.72414C29.794 1.66733 28.1267 0 26.0698 0Z" fill="#B8C26F"/>
<path d="M21.9703 28.3822C22.5742 28.0057 22.7586 27.211 22.3822 26.6071C22.0057 26.0032 21.211 25.8188 20.6071 26.1952C20.0032 26.5717 19.8188 27.3664 20.1952 27.9703C20.5717 28.5742 21.3664 28.7586 21.9703 28.3822Z" fill="#FBFDC3"/>
</svg>
