<svg width="32" height="32" viewBox="0 0 32 32" fill="none" xmlns="http://www.w3.org/2000/svg">
<path d="M2.50235 4.72502C2.37485 4.91752 3.90485 16.31 3.87985 17.03C3.85485 17.7525 3.00985 19.6425 2.43735 21.3075C1.86485 22.975 0.894854 26.2825 1.04485 26.4075C1.19485 26.5325 11.6149 27.8325 14.8749 27.75C18.1349 27.6675 22.6799 26.755 26.5749 26.445C29.1274 26.2425 30.5224 26.02 30.7274 26.02C30.9324 26.02 31.1374 25.9575 31.0124 25.5C30.8874 25.0425 29.5049 20.975 28.9599 19.4825C28.4149 17.99 27.7099 16.215 27.7099 16.215C27.7099 16.215 28.2549 12.3025 28.6374 9.74002C29.0199 7.17752 29.3024 5.86752 29.2424 5.74752C29.1824 5.62752 20.0449 4.27502 19.8624 4.27502C19.6799 4.27502 12.2574 6.29252 11.8749 6.27252C11.4924 6.25002 2.63235 4.53002 2.50235 4.72502Z" fill="#C8C8C8"/>
<path d="M5.28586 16.96C5.28586 16.96 4.19336 6.34252 4.19336 6.27502C4.19336 6.20752 12.1109 7.63502 12.1109 7.63502L16.7959 9.44752C16.7959 9.44752 20.0134 5.68252 20.3334 5.70752C20.6534 5.73252 27.0684 6.69252 27.3109 6.72002C27.5534 6.74502 27.6834 6.91252 27.6309 7.25752C27.5809 7.60252 26.1684 16.3775 26.1684 16.3775L15.2234 19.3525L5.28586 16.96Z" fill="#1E85F9"/>
<path d="M12.1094 7.63752L20.3319 5.70752L19.9269 15.8775L16.2719 18.4225L12.5869 17.195L12.1094 7.63752Z" fill="#136FD8"/>
<path d="M5.28462 16.96L12.5871 17.195L16.3321 18.1225L19.9271 15.875C19.9271 15.875 22.8321 16.055 23.6421 16.115C24.4521 16.175 26.1696 16.375 26.1696 16.375C26.1696 16.375 29.2746 24.435 29.3321 24.5375C29.3896 24.64 29.3321 24.845 29.1271 24.8725C28.9221 24.9 26.5296 25.0175 26.5296 25.0175C26.5296 25.0175 25.4946 24.6375 24.7346 24.74C23.9771 24.8425 22.7946 25.47 22.7946 25.47L21.2046 25.645C21.2046 25.645 20.9421 25.28 20.7371 25.075C20.5321 24.87 20.1971 24.725 20.1971 24.725L16.4121 23.7375L11.6296 26.265C11.6296 26.265 3.31462 25.515 2.98212 25.4625C2.64962 25.41 2.49462 25.34 2.63212 24.9225C2.77212 24.505 5.28462 16.96 5.28462 16.96Z" fill="#36B4E2"/>
<path d="M12.587 17.195C12.587 17.195 14.027 17.095 16.2595 16.7475C18.7345 16.3625 19.9295 15.9125 19.9295 15.9125L20.2495 25.83C20.2495 25.83 17.897 26.325 16.0295 26.3525C14.162 26.38 11.627 26.2675 11.627 26.2675L12.587 17.195Z" fill="#6CCBF6"/>
<path d="M12.1094 7.63755L12.3269 12.0126C12.3269 12.0126 12.5019 11.6026 12.7994 11.5276C13.0994 11.4526 13.6469 11.3526 13.6844 11.1676C13.7219 10.9801 13.5469 10.4451 13.5969 10.1951C13.6469 9.94505 13.8719 9.77255 13.8469 9.27255C13.8219 8.77505 13.5969 8.76255 13.6469 8.51255C13.6969 8.26255 13.7719 8.05255 13.9094 7.82755C14.0469 7.60255 14.1219 7.59005 14.2094 7.44255C14.2794 7.32505 14.3094 7.11755 14.3094 7.11755L12.1094 7.63755Z" fill="#C8C8C8"/>
<path d="M15.3054 8.20256C15.2404 8.45006 15.1554 8.57506 15.3304 8.71256C15.5054 8.85006 15.5929 9.05006 15.6304 9.13506C15.6679 9.22256 15.6804 9.42256 15.8929 9.42256C16.1054 9.42256 16.1554 9.19756 16.1929 9.01256C16.2179 8.88756 16.2679 8.57756 16.2679 8.57756C16.2679 8.57756 16.7029 8.31506 16.6404 8.11756C16.5779 7.91756 16.3279 7.89256 16.0304 7.93006C15.7229 7.96506 15.3804 7.91506 15.3054 8.20256Z" fill="#C8C8C8"/>
<path d="M18.6301 6.90751C18.7176 6.85751 18.8551 6.54751 18.9676 6.48501C19.0801 6.42251 19.2026 6.41751 19.2676 6.58501C19.4051 6.94501 19.6051 6.95751 19.5676 7.17001C19.5301 7.38251 19.1076 7.33251 19.0076 7.40751C18.9076 7.48251 18.6701 7.58251 18.5226 7.54501C18.3726 7.50751 17.9376 7.27001 18.0876 7.03501C18.1901 6.86001 18.6301 6.90751 18.6301 6.90751Z" fill="#C8C8C8"/>
<path d="M20.1379 10.5601C20.1379 10.5601 19.9454 10.6151 19.8854 10.8651C19.8254 11.1151 19.8004 11.1576 19.8004 11.1576C19.8004 11.1576 19.5854 11.3626 19.3954 11.4576C19.2054 11.5526 19.0529 11.6901 19.0529 11.6901C19.0529 11.6901 18.7179 11.6376 18.4779 11.7501C18.2379 11.8626 18.1504 12.0426 18.1504 12.0426C18.1504 12.0426 18.5104 13.6226 18.5104 13.5976C18.5104 13.5726 20.0704 12.8451 20.0704 12.8451L20.1379 10.5601Z" fill="#C8C8C8"/>
<path d="M17.4276 11.575C17.4276 11.575 16.9576 11.2075 16.7101 11.1825C16.5601 11.1675 16.0601 11.31 15.9676 11.4425C15.8751 11.5775 15.5551 12.0925 15.4276 12.3525C15.3001 12.6125 14.8151 12.96 14.8626 13.245C14.9276 13.63 15.2851 13.5475 15.2851 13.5475L15.6301 13.54L15.7826 12.7975L16.6326 11.9475L17.4276 11.575Z" fill="#C8C8C8"/>
<path d="M13.4902 17.095C13.4902 17.095 13.6052 16.8375 13.8377 16.6975C14.0702 16.5575 14.8777 16.0425 15.0302 16.0425C15.1827 16.0425 15.3777 16.2225 15.4677 16.325C15.5577 16.4275 15.6227 16.53 15.6977 16.5425C15.7727 16.555 16.4027 16.555 16.7752 16.505C17.1477 16.4525 17.4927 16.2875 17.4927 16.145C17.4927 16.0025 17.0177 15.9 16.9402 15.8875C16.8627 15.875 16.5177 15.94 16.4777 15.965C16.4402 15.99 16.3627 16.08 16.2327 16.055C16.1052 16.03 15.8852 15.8375 15.7952 15.7075C15.7052 15.58 15.5502 15.3875 15.3852 15.4C15.2177 15.4125 15.0252 15.465 14.9352 15.5275C14.8452 15.5925 14.5252 16.0025 14.4102 16.08C14.2952 16.1575 13.9877 16.1175 13.8852 15.925C13.7827 15.7325 13.7702 15.515 13.8327 15.45C13.8977 15.385 14.1152 15.3475 14.1652 15.2825C14.2177 15.2175 14.1002 14.91 14.2302 14.8075C14.3577 14.705 14.7177 14.8075 14.7427 14.7825C14.7677 14.7575 15.0752 14.345 15.1027 14.2575C15.1277 14.1675 15.1152 13.9875 15.1677 13.9625C15.2202 13.9375 15.4502 13.91 15.4877 13.9625C15.5252 14.015 15.7327 14.09 15.9252 14.04C16.1177 13.99 16.4502 13.63 16.4502 13.4875C16.4502 13.345 16.2952 13.32 16.2577 13.205C16.2202 13.09 16.3477 12.9225 16.4627 12.8075C16.5777 12.6925 16.6552 12.5375 16.5527 12.46C16.4502 12.3825 16.3477 12.4725 16.2327 12.6C16.1177 12.7275 15.9252 12.9725 15.9252 13.1C15.9252 13.2275 16.0802 13.5625 15.9777 13.625C15.8752 13.6875 15.7477 13.8425 15.6702 13.7925C15.5927 13.74 15.2877 13.545 15.2877 13.545C15.2877 13.545 15.2477 13.33 15.4127 13.0625C15.5802 12.7925 16.0677 12.0625 16.4252 11.805C16.7827 11.5475 17.3077 11.4825 17.3077 11.4825C17.3077 11.4825 17.5302 11.575 17.6177 11.665C17.7077 11.755 17.8102 12.0125 17.7202 12.115C17.6302 12.2175 17.4502 12.23 17.4502 12.23C17.4502 12.23 17.5027 12.4875 17.6552 12.5C17.8102 12.5125 18.1477 12.0425 18.1477 12.0425C18.1477 12.0425 18.4002 12.0125 18.5927 12.0775C18.7852 12.1425 18.8377 12.3725 19.0152 12.45C19.1952 12.5275 19.5552 12.475 19.7327 12.5525C19.9127 12.63 20.0652 12.835 20.0652 12.835L19.9252 15.915C19.9252 15.915 18.2752 16.4375 16.7552 16.685C15.2827 16.925 13.4902 17.095 13.4902 17.095Z" fill="#40C252"/>
<path d="M14.2117 13.42C14.1017 13.445 14.0417 13.515 14.0517 13.6075C14.0617 13.7025 14.0317 13.8425 14.0317 13.8425C14.0317 13.8425 13.7867 13.9925 13.8342 14.1625C13.8817 14.3325 14.0117 14.3325 14.1542 14.425C14.2967 14.5175 14.4442 14.5475 14.5392 14.49C14.6342 14.4325 14.7967 14.2325 14.7092 14.0775C14.5767 13.8425 14.5867 13.335 14.2117 13.42Z" fill="#40C252"/>
<path d="M7.94449 6.88245C7.94449 6.88245 7.93199 7.09745 7.88699 7.20995C7.84199 7.32245 7.62949 7.44745 7.63949 7.76245C7.65199 8.07995 7.58199 8.31495 7.69199 8.43495C7.86449 8.62495 7.86699 9.03995 7.86699 9.03995C7.86699 9.03995 7.70949 9.18745 7.73199 9.42495C7.75449 9.66245 7.94199 9.79495 8.46949 9.75495C8.80699 9.72995 8.93699 9.68495 8.95949 9.52745C8.98199 9.36995 9.08199 8.97995 9.12699 8.68745C9.17199 8.39495 9.28699 8.11745 9.28699 8.11745C9.28699 8.11745 9.48949 8.03745 9.57949 7.95995C9.66949 7.87995 9.77199 7.82495 9.87199 7.83495C9.97449 7.84745 10.0645 8.05995 10.0645 8.05995C10.0645 8.05995 9.87699 8.29495 9.67449 8.47495C9.47199 8.65495 9.44699 8.75745 9.49449 9.00245C9.53949 9.22995 9.64449 9.38245 9.79199 9.39495C9.93949 9.40745 10.052 9.35995 10.222 9.39495C10.392 9.42995 10.4695 9.59745 10.4695 9.59745C10.4695 9.59745 10.627 9.90245 10.707 10.1399C10.787 10.3774 10.8995 10.7624 10.9095 10.8974C10.922 11.0324 10.847 11.6849 10.9045 11.9324C10.962 12.1799 11.372 13.0324 11.5995 13.0424C11.8245 13.0549 11.9045 12.7374 11.962 12.6024C12.0195 12.4674 12.3245 12.0174 12.3245 12.0174L12.107 7.64245L7.94449 6.88245Z" fill="#E0E0E0"/>
<path d="M4.67578 11.0224C4.67578 11.0224 4.79328 10.8449 4.90578 10.8124C5.01828 10.7799 5.23328 10.6774 5.23328 10.5974C5.23328 10.5174 5.20078 10.3124 5.25578 10.1124C5.31328 9.90994 5.68578 9.67244 6.21578 9.66994C6.62078 9.66744 6.80328 9.91994 6.88078 10.0574C6.96078 10.1924 6.99328 10.6324 7.02828 10.7024C7.06328 10.7724 7.18578 10.9049 7.32078 10.9049C7.45578 10.9049 7.50078 10.8474 7.50078 10.7474C7.50078 10.6449 7.44328 10.5674 7.51328 10.4199C7.58078 10.2724 7.68328 10.1274 8.06578 10.0799C8.45078 10.0349 8.88328 9.98744 9.01578 10.0224C9.24078 10.0849 9.63828 10.4624 9.70578 10.5424C9.77328 10.6224 9.84078 10.9374 9.86328 11.0724C9.88578 11.2074 10.1008 11.4449 10.1683 11.5249C10.2358 11.6049 10.2583 12.1574 9.81828 12.1799C9.37828 12.2024 9.37828 11.6824 9.37828 11.5474C9.37828 11.4124 9.33328 11.2649 9.26578 11.2424C9.19828 11.2199 8.91078 11.1999 8.88078 11.2649C8.78078 11.4849 8.91578 11.6274 8.85828 11.7049C8.80078 11.7849 7.98828 12.4849 7.94328 12.6199C7.89828 12.7549 7.77328 12.9824 7.92078 13.1624C8.06828 13.3424 8.59828 13.5349 8.70078 13.5924C8.80328 13.6499 9.01828 13.4799 8.99328 13.3549C8.97078 13.2299 8.84578 13.0949 8.84578 12.9474C8.84578 12.7999 9.03828 12.5299 9.15078 12.5074C9.26328 12.4849 9.55828 12.7674 9.55828 12.7674C9.55828 12.7674 10.0108 12.7324 10.1233 12.8124C10.2358 12.8924 10.2583 13.1524 10.2583 13.1524L10.4058 13.3999C10.4058 13.3999 9.77328 14.4724 9.73828 14.4849C9.70328 14.4974 5.50328 14.2149 5.50328 14.2149L4.75828 11.8774L4.67578 11.0224Z" fill="#E0E0E0"/>
<path d="M5.15477 15.7025C5.15477 15.7025 5.33477 16.0525 5.38977 16.1875C5.44727 16.3225 5.56977 16.515 5.61477 16.605C5.65977 16.695 5.87477 16.945 6.04477 16.9325C6.21477 16.92 6.19227 16.38 6.33727 16.425C6.48477 16.47 6.53977 16.765 6.59727 16.8325C6.65477 16.9 6.74477 17.0125 6.74477 17.0125L7.29727 17.305L7.47727 17.0125C7.47727 17.0125 7.47727 16.7975 7.51227 16.7525C7.54727 16.7075 7.91977 16.46 7.97477 16.435C8.03227 16.4125 8.49727 16.5025 8.62977 16.47C8.90227 16.4025 9.38727 15.7925 9.48727 15.6125C9.58977 15.4325 9.75727 15.24 9.82727 15.1375C9.89477 15.035 9.83977 14.9175 9.83977 14.9175C9.83977 14.9175 10.2148 14.9725 10.3498 14.69C10.4198 14.5425 10.4123 14.3575 10.4123 14.3575C10.4123 14.3575 10.7623 14.0975 10.7623 13.9175C10.7623 13.7375 10.3998 13.3975 10.3998 13.3975C10.3998 13.3975 10.0823 13.6125 9.80227 13.77C9.52227 13.9275 9.16977 14.055 8.73977 13.9875C8.30977 13.92 8.17727 13.86 8.09727 13.7925C8.01727 13.725 7.91977 13.515 7.83227 13.4C7.64227 13.155 7.29727 13.0575 7.23977 12.8775C7.18227 12.6975 7.53227 12.46 7.38727 12.21C7.23977 11.9625 6.73227 12.0975 6.44977 12.165C6.16727 12.2325 5.78227 12.3575 5.71477 12.335C5.64727 12.3125 5.70227 12.1325 5.44477 11.905C5.21727 11.705 4.69727 11.29 4.69727 11.29L5.15477 15.7025Z" fill="#7ADC8A"/>
<path d="M6.74805 17.015H7.48305C7.48305 17.015 7.50305 17.14 7.55055 17.1775C7.59805 17.215 7.72055 17.2925 7.78805 17.2825C7.85555 17.2725 8.01555 17.0675 8.19555 17.085C8.46555 17.115 8.64305 17.25 8.71805 17.365C8.79305 17.4775 8.84305 17.7775 8.98555 17.8725C9.12805 17.9675 9.38055 17.82 9.81805 17.8725C10.133 17.91 10.2155 17.91 10.2905 17.975C10.3655 18.04 10.448 18.225 10.503 18.235C10.558 18.245 10.7155 18.17 10.818 18.1975C10.9205 18.225 11.2705 18.6125 11.4105 18.705C11.548 18.7975 11.678 18.9175 11.678 18.9175C11.678 18.9175 11.873 18.835 12.0755 18.935C12.278 19.0375 12.318 19.29 12.318 19.29C12.318 19.29 12.3755 19.8225 11.908 20.5325C11.3605 21.365 11.168 21.6425 11.0305 21.8C10.893 21.9575 10.5305 22.18 10.393 22.365C10.2555 22.55 10.1805 22.68 10.1905 22.7625C10.2005 22.845 10.208 23.0675 10.1455 23.2075C10.0805 23.345 10.0355 23.345 10.0155 23.5125C9.99555 23.68 10.1355 23.965 10.0255 24.0675C9.91555 24.17 9.54555 24.1125 9.34055 23.7525C9.13805 23.3925 9.18305 22.8175 9.24805 22.495C9.31305 22.1725 9.52555 21.4775 9.53555 21.035C9.54555 20.59 9.28555 20.13 9.02805 19.8875C8.77055 19.645 8.69555 19.565 8.69555 19.1575C8.69555 18.88 8.84305 18.75 8.84305 18.75L8.87055 18.3525C8.87055 18.3525 8.57305 18.2975 8.47305 18.1675C8.37055 18.0375 8.27055 17.9275 8.14055 17.89C8.01055 17.8525 7.71305 17.9325 7.47555 17.8225C7.37805 17.7775 7.17305 17.5775 7.08805 17.52C6.86555 17.375 6.74805 17.015 6.74805 17.015Z" fill="#D0FE8B"/>
<path d="M9.06836 26.04C9.06836 26.04 9.14836 25.88 9.30836 25.8C9.46836 25.72 9.69586 25.63 9.70586 25.56C9.71586 25.49 9.86586 25.0425 10.0659 25.0425C10.2659 25.0425 10.2059 25.3025 10.2159 25.3925C10.2259 25.4825 10.3159 25.5525 10.2959 25.7025C10.2759 25.8525 10.1859 25.8425 10.1859 25.9225C10.1859 26.0025 10.2059 26.1425 10.2059 26.1425L9.06836 26.04Z" fill="#E0E0E0"/>
<path d="M13.4896 17.095C13.4896 17.095 13.2871 17.305 13.2871 17.4275C13.2871 17.55 13.2221 18.075 13.3421 18.3375C13.4621 18.6 13.5171 18.71 13.7271 18.7875C13.9346 18.865 14.0446 18.93 14.2321 18.93C14.4196 18.93 14.6371 18.9525 14.7371 18.9625C14.8371 18.9725 15.0771 19.15 15.1221 19.205C15.1671 19.26 15.1996 19.555 15.2546 19.6325C15.3096 19.71 15.5296 19.8525 15.5296 19.8525C15.5296 19.8525 15.4296 20.455 15.5521 20.7425C15.6721 21.0275 15.7721 21.435 15.8496 21.6325C15.9271 21.83 16.2221 22.105 16.3096 22.17C16.3971 22.235 16.5946 22.125 16.7371 21.995C16.8796 21.865 17.2096 21.48 17.2871 21.4025C17.3646 21.325 17.3646 21.105 17.4396 21.0075C17.5171 20.9075 17.4496 20.71 17.5596 20.58C17.6696 20.4475 17.9096 20.2625 17.9321 20.12C17.9546 19.9775 17.8771 19.57 17.9546 19.44C18.0321 19.3075 18.3596 18.87 18.4696 18.77C18.5796 18.67 18.6571 18.4525 18.5896 18.385C18.5221 18.3175 18.0946 18.34 17.9746 18.265C17.8546 18.1875 17.6446 17.86 17.5896 17.75C17.5346 17.64 17.3371 17.3775 17.3046 17.2675C17.2721 17.1575 17.4796 17.0375 17.5346 17.07C17.5896 17.1025 17.8646 17.5425 17.9746 17.695C18.0846 17.8475 18.0846 17.9025 18.1621 17.925C18.2396 17.9475 18.4596 17.97 18.5121 17.925C18.5671 17.88 18.7871 17.7725 18.8846 17.695C18.9846 17.6175 19.1471 17.5525 19.1371 17.475C19.1271 17.3975 19.0921 17.2225 19.0371 17.2C18.9821 17.1775 18.6746 17.2225 18.6746 17.2225C18.6746 17.2225 18.3771 16.8725 18.3571 16.805C18.3371 16.7375 18.4996 16.6525 18.6096 16.7275C18.7196 16.8025 18.9721 16.925 19.0371 16.9475C19.1021 16.97 19.4096 17.0575 19.5096 17.0575C19.6096 17.0575 19.9921 17.2875 19.9921 17.2875L19.9296 15.9175C19.9296 15.9175 18.2596 16.4525 16.7596 16.6875C15.2046 16.9275 13.4896 17.095 13.4896 17.095Z" fill="#E3FFAD"/>
<path d="M13.332 26.32C13.332 26.32 13.9145 25.9525 14.0195 25.8925C14.1245 25.8325 14.7745 25.5525 14.9845 25.495C15.1045 25.4625 16.302 25.3875 16.5195 25.3925C16.7995 25.3975 17.052 25.48 17.357 25.465C17.662 25.45 18.4595 25.5425 18.612 25.45C18.7645 25.3575 19.4845 24.81 19.637 24.745C19.8245 24.6675 20.2145 24.735 20.2145 24.735L20.2495 25.8275C20.2495 25.8275 17.872 26.3225 16.0295 26.35C14.1895 26.3825 13.332 26.32 13.332 26.32Z" fill="#E0E0E0"/>
<path d="M22.1207 7.71247C21.8607 7.57247 21.7532 7.99247 21.7132 8.09997C21.6732 8.20997 21.6357 8.38247 21.7032 8.50747C21.7832 8.65747 21.9632 8.69747 22.0407 8.76747C22.1182 8.83747 22.3782 8.91747 22.4482 8.65747C22.5182 8.39747 22.3182 8.17997 22.3182 8.17997C22.3182 8.17997 22.3307 7.82497 22.1207 7.71247Z" fill="#E0E0E0"/>
<path d="M20.1371 10.5625C20.1371 10.5625 20.2821 10.5225 20.3346 10.6225C20.3646 10.6775 20.3696 10.725 20.4046 10.7625C20.4396 10.8 20.8521 10.8325 20.8921 10.7725C20.9321 10.7125 21.2396 10.155 21.5696 9.95498C21.8996 9.75498 22.2871 9.70498 22.4571 9.62498C22.6271 9.54498 22.6471 9.28748 22.8446 9.28748C23.0421 9.28748 23.6221 9.67498 23.6621 9.74498C23.7021 9.81498 23.5721 10.005 23.4521 10.1525C23.3321 10.3025 23.1421 10.4025 23.2521 10.4725C23.3621 10.5425 23.7496 10.6025 23.9696 10.6125C24.1896 10.6225 24.3171 10.5425 24.4871 10.6225C24.6571 10.7025 24.5871 11.06 24.6871 11.08C24.7871 11.1 25.3046 11.14 25.4746 11.04C25.6446 10.94 25.6046 10.79 25.7846 10.75C25.9646 10.71 26.1421 10.69 26.3121 10.83C26.4821 10.97 26.6496 11.12 26.7396 11.1975C26.8296 11.2775 26.9796 11.3075 26.9796 11.3075L26.7746 12.5875C26.7746 12.5875 25.3946 13.21 25.2671 13.21C25.1371 13.21 20.0371 13.4675 20.0371 13.4675L20.1371 10.5625Z" fill="#E0E0E0"/>
<path d="M20.0722 12.835C20.0722 12.835 20.1672 12.9825 20.1972 13.0425C20.2272 13.1025 20.3872 13.1625 20.4672 13.0925C20.5472 13.0225 20.4972 12.505 20.5472 12.435C20.5972 12.365 21.0947 12.425 21.1347 12.395C21.1747 12.365 21.4347 12.265 21.5422 12.325C21.6522 12.385 21.8322 12.6625 21.9797 12.655C22.1297 12.645 22.3097 12.705 22.4272 12.565C22.5472 12.425 22.7372 12.1575 22.9947 12.0675C23.2522 11.9775 23.4222 11.9575 23.4622 11.9175C23.5022 11.8775 23.8497 11.41 23.9797 11.36C24.1097 11.31 24.3372 11.34 24.4272 11.36C24.5172 11.38 24.5572 11.42 24.5672 11.62C24.5772 11.82 24.6272 12.0075 24.6672 12.0675C24.7072 12.1275 25.0047 12.405 25.0947 12.415C25.1847 12.425 25.4622 12.355 25.7322 12.415C26.0022 12.475 26.4097 12.605 26.5097 12.605C26.6097 12.605 26.7697 12.5925 26.7697 12.5925L26.6497 13.3375C26.6497 13.3375 26.5772 13.29 26.3972 13.32C26.2172 13.35 26.1372 13.47 26.0197 13.44C25.9022 13.41 25.7697 13.37 25.6897 13.4C25.6097 13.43 25.1922 13.8775 25.2422 13.9875C25.2922 14.0975 25.6597 13.9975 25.7597 14.0675C25.8597 14.1375 25.9997 14.2575 25.9997 14.3375C25.9997 14.4175 25.9997 14.6575 25.9297 14.705C25.8597 14.755 25.5422 14.745 25.4722 14.795C25.4022 14.845 25.4722 15.065 25.3622 15.2025C25.2522 15.3425 24.8947 15.65 24.8947 15.65C24.8947 15.65 24.8397 15.84 24.8072 15.9025C24.7497 16.025 24.6597 16.16 24.5997 16.15C24.5397 16.14 24.2697 15.7725 24.1422 15.7625C24.0122 15.7525 24.0522 16.15 24.0522 16.15L19.9297 15.915L20.0722 12.835Z" fill="#7ADC8A"/>
<path d="M25.9668 15.225C25.9568 15.17 25.7393 15.1325 25.6893 15.2075C25.6393 15.2825 25.4968 15.475 25.4218 15.635C25.3468 15.795 25.1693 16.1375 25.2968 16.2125C25.3693 16.255 25.6843 16.0325 25.8118 15.8325C25.8418 15.785 26.0093 15.4775 25.9668 15.225Z" fill="#7ADC8A"/>
<path d="M24.0516 16.15L19.9316 15.9125L19.9941 17.2825C19.9941 17.2825 20.1366 17.4575 20.1941 17.6325C20.2516 17.8075 20.3866 18.145 20.4791 18.2875C20.5716 18.43 20.5891 18.69 20.8066 18.665C21.0241 18.64 21.0091 18.3625 21.0741 18.1775C21.1416 17.9925 21.3091 17.825 21.3766 17.7675C21.4441 17.71 21.5866 17.55 21.6541 17.575C21.7216 17.6 21.8316 17.81 21.9216 17.9275C22.0716 18.12 22.4991 18.305 22.4991 18.305C22.4991 18.305 23.1091 18.4875 23.1941 18.22C23.2691 17.985 23.1141 17.6775 23.1691 17.575C23.2391 17.45 23.4991 17.445 23.7491 17.375C24.0766 17.2825 24.1691 17.03 24.2016 16.755C24.2341 16.48 24.0516 16.15 24.0516 16.15Z" fill="#D0FE8B"/>
<path d="M24.4308 19.8175C24.4708 19.7625 24.2383 19.655 24.0658 19.3625C23.8933 19.07 23.8208 18.9 23.7358 18.8825C23.6508 18.865 23.1608 19.0925 23.1608 19.135C23.1608 19.1775 23.4058 19.4875 23.4058 19.4875C23.4058 19.4875 23.0708 19.5775 22.9083 19.3325C22.7458 19.0875 22.7708 18.87 22.6683 18.6975C22.5658 18.525 22.4058 18.2775 22.3083 18.285C22.2133 18.29 22.0983 18.37 22.1458 18.5375C22.1933 18.705 22.2308 18.76 22.2308 18.76C22.3158 18.945 22.1158 19.185 22.2008 19.3225C22.2858 19.46 22.9808 19.9225 23.1058 19.975C23.2308 20.0275 24.3583 19.9175 24.4308 19.8175Z" fill="#D0FE8B"/>
<path d="M24.3474 18.8825C24.5324 18.9025 24.5749 18.4575 24.5399 18.2825C24.5049 18.1075 24.3599 17.6525 24.2099 17.6525C24.0599 17.6525 23.9274 17.8375 23.9574 17.9575C23.9874 18.0775 24.0899 18.2575 24.0949 18.3175C24.0999 18.38 24.1774 18.865 24.3474 18.8825Z" fill="#D0FE8B"/>
<path d="M24.909 19.085C24.874 19.1075 24.849 19.3675 24.884 19.3975C24.919 19.4275 25.1715 19.4575 25.2915 19.6125C25.4115 19.7675 25.4165 19.935 25.494 19.96C25.5715 19.985 26.214 19.84 26.214 19.5525C26.214 19.3975 25.0165 19.015 24.909 19.085Z" fill="#D0FE8B"/>
<path d="M27.5742 22.7025C27.6392 22.59 27.5942 22.38 27.6592 22.255C27.7242 22.1325 27.8992 22.075 27.9767 22.165C28.0542 22.255 28.0617 22.56 28.0092 22.6575C27.9742 22.7225 27.9692 22.9475 27.7892 23.105C27.6092 23.2625 27.5042 23.2475 27.4517 23.26C27.3992 23.2725 27.1542 23.48 27.0517 23.345C26.9492 23.21 27.0967 22.99 27.2392 22.885C27.3792 22.78 27.5292 22.78 27.5742 22.7025Z" fill="#D0FE8B"/>
<path d="M25.4609 20.515C25.4359 20.49 25.4034 20.055 25.1709 20.0425C24.9384 20.03 24.7509 20.2225 24.7509 20.2225C24.7509 20.2225 24.4609 20.2025 24.3884 20.2625C24.3184 20.32 24.0509 20.605 23.9359 20.6575C23.8184 20.71 23.6384 20.76 23.5159 20.8125C23.3934 20.865 23.3209 21.0525 23.3359 21.2525C23.3484 21.4525 23.3934 21.9 23.4134 22.0025C23.4334 22.105 23.5684 22.3775 23.8984 22.2475C24.2284 22.1175 24.3459 21.9575 24.4034 21.95C24.4609 21.9425 24.9859 21.9425 25.0184 21.925C25.0509 21.905 25.3484 22.4425 25.6084 22.5C25.8684 22.5575 26.1909 22.5325 26.2484 22.4875C26.3059 22.4425 26.6484 21.97 26.6809 21.8025C26.7134 21.635 26.7059 21.285 26.6409 21.15C26.5759 21.015 26.1609 20.56 26.1609 20.56C26.1609 20.56 26.0959 20.0675 25.7909 20.0625C25.5509 20.0575 25.7209 20.4175 25.6609 20.4775C25.6034 20.535 25.4609 20.515 25.4609 20.515Z" fill="#D0FE8B"/>
</svg>
