<svg width="23" height="23" viewBox="0 0 23 23" fill="none" xmlns="http://www.w3.org/2000/svg">
<g clip-path="url(#clip0_265_6611)">
<path d="M5.93901 7.10906C5.93901 7.10906 4.89477 5.56688 4.18368 5.30358C3.47081 5.04028 2.73106 5.21223 2.40328 4.78415C2.07192 4.35069 1.89997 3.61095 2.00565 3.13629C2.11133 2.66164 2.38179 2.30162 2.61822 2.24967C2.85465 2.19773 3.48155 2.52909 3.48155 2.52909C3.48155 2.52909 3.45469 1.72487 3.5335 1.4347C3.61231 1.14454 3.94367 0.841832 4.11383 0.736155C4.6655 0.392254 4.95746 0.657344 4.95746 0.657344C4.95746 0.657344 4.7461 2.50402 5.43211 3.32078C6.11812 4.13754 8.8353 6.96039 8.30691 6.98726C7.78031 7.01234 5.93901 7.10906 5.93901 7.10906Z" fill="#DDBCA8"/>
<path d="M5.99002 5.89829C5.99002 5.89829 4.82398 4.8039 4.45679 4.61224C4.08961 4.42059 3.32658 4.5191 3.0597 4.37939C2.69968 4.19132 2.30921 3.78832 2.27697 3.13455C2.24473 2.48078 2.42742 2.16016 3.07403 2.12971C3.60062 2.10464 3.91945 2.30524 4.06274 2.16195C4.20603 2.01866 4.07886 1.0604 4.15767 0.900985C4.23827 0.741573 4.46038 0.438869 5.05145 0.5338C5.64253 0.62873 5.89688 1.17503 5.92912 1.31653C6.06166 1.89149 5.96494 2.97155 6.11002 3.22769C6.33929 3.63069 7.89042 5.35378 7.89042 5.35378C7.89042 5.35378 6.00434 5.86605 5.99002 5.89829Z" fill="#FFEBCA"/>
<path d="M5.94216 5.50241C3.42381 7.27923 2.57301 9.74206 2.66257 11.5708C2.73959 13.1434 3.29843 13.9907 4.2137 14.7483C5.12898 15.506 5.70036 15.7173 6.08008 16.2296C6.4598 16.7419 6.99177 18.8608 8.17393 19.9749C9.35609 21.089 13.1318 23.3351 17.5309 19.391C22.0589 15.3304 20.6654 11.2574 18.9925 9.74027C17.3769 8.27511 15.9726 8.1748 15.2526 7.29893C14.4268 6.29589 14.7403 5.8893 13.4005 4.79312C11.8207 3.49991 9.04264 3.31721 5.94216 5.50241Z" fill="#CF701E"/>
<path d="M10.9616 11.381C8.30716 13.5125 6.48019 17.9134 9.66843 19.9696C12.056 21.5082 15.4628 20.3475 17.4026 18.551C18.9197 17.1467 20.8344 13.4229 19.0146 11.2127C17.3954 9.24599 13.7952 9.10628 10.9616 11.381Z" fill="#FBD5B2"/>
<path d="M10.5274 5.8428C10.3572 5.67264 10.0868 5.68697 9.86647 5.94668C9.64616 6.2064 9.61571 6.53597 9.80199 6.68464C10.0742 6.90495 10.359 6.62911 10.5023 6.43925C10.6564 6.23148 10.7208 6.03624 10.5274 5.8428Z" fill="#AB5931"/>
<path d="M5.62886 7.9545C5.29213 7.90256 5.18824 8.22676 5.1757 8.49901C5.16316 8.77127 5.12376 9.08293 5.48736 9.108C5.85096 9.13308 5.92798 8.75873 5.92798 8.51155C5.92619 8.26437 5.96201 8.00466 5.62886 7.9545Z" fill="#AB5931"/>
<path d="M5.73144 11.1159C5.40724 11.1016 5.30336 11.3756 5.31769 11.7768C5.33202 12.178 5.46098 12.4252 5.68129 12.4109C5.9016 12.3984 6.02161 12.1512 6.04489 11.8144C6.06997 11.4258 6.0431 11.1284 5.73144 11.1159Z" fill="#AB5931"/>
<path d="M6.88559 12.4108C6.69036 12.2711 6.40557 12.3714 6.30168 12.7745C6.19063 13.2043 6.359 13.3405 6.49692 13.396C6.71723 13.4873 6.88559 13.2527 6.96261 12.9948C7.04142 12.735 7.06829 12.5398 6.88559 12.4108Z" fill="#AB5931"/>
<path d="M14.5086 10.84C14.2955 10.695 12.7318 11.0245 11.2308 12.4503C9.72986 13.876 9.23192 15.0618 9.38059 15.4684C9.52925 15.875 10.5466 15.857 10.955 15.857C11.3634 15.857 12.4148 15.8481 12.7515 15.8391C13.4178 15.8212 13.4178 16.4678 12.7336 16.561C12.1802 16.6362 10.6595 16.6899 10.0487 16.912C9.51134 17.1073 9.03131 17.2631 8.9937 17.6894C8.95609 18.1157 9.62239 19.1707 10.7347 19.5593C11.847 19.948 13.1599 19.837 13.3999 19.6525C13.6399 19.468 13.8065 18.1533 13.8441 17.5425C13.8817 16.9317 13.862 16.0612 14.3259 16.0612C14.7899 16.0612 14.6591 17.1538 14.677 17.598C14.6949 18.0422 14.6591 18.8196 14.8991 19.0059C15.1391 19.1904 16.0974 18.7139 16.9357 17.8757C17.6951 17.1162 18.3059 16.3013 18.0838 16.0236C17.8617 15.746 16.0293 15.7084 15.5851 15.7281C15.1409 15.746 15.0675 14.9883 15.6962 14.9686C16.3249 14.9507 17.8438 15.0797 18.3256 14.82C18.8074 14.5603 19.3985 13.3763 18.5853 12.0437C17.7721 10.7111 16.8264 10.6735 16.4198 10.7111C16.0132 10.7487 15.8269 11.8216 15.6801 12.341C15.5314 12.8587 15.3845 13.8223 15.329 14.0444C15.2735 14.2665 14.7916 14.451 14.7558 13.971C14.7182 13.4891 14.7934 12.6384 14.8113 12.1565C14.8293 11.6747 14.8597 11.0818 14.5086 10.84Z" fill="#FF605E"/>
<path d="M15.5629 16.3944C15.5629 16.3944 14.1192 15.1531 14.0082 15.3018C13.8971 15.4505 13.675 15.7084 13.6374 16.1168C13.5998 16.5234 13.7359 16.6505 13.7359 16.6505C13.7359 16.6505 15.0811 18.4309 15.3766 18.7641C15.6722 19.0972 16.0913 19.7134 16.1289 20.0089C16.1665 20.3045 16.0214 21.2914 16.154 21.5977C16.3206 21.9864 16.6501 22.2443 17.1499 22.3392C17.4024 22.3876 18.3123 22.3267 18.5541 22.0849C18.7959 21.8431 18.8998 21.3971 18.8998 21.175C18.8998 20.9529 18.7959 20.7917 19.036 20.6806C19.276 20.5696 19.9888 20.6555 20.322 20.471C20.6551 20.2866 20.9149 19.8889 20.897 19.425C20.879 18.9629 20.2271 18.6494 20.1715 18.6494C20.116 18.6494 15.5629 16.3944 15.5629 16.3944Z" fill="#DFBBAA"/>
<path d="M15.7479 14.6606C15.6673 14.605 15.6207 14.5853 15.5598 14.58C15.2947 14.5585 14.9508 14.5817 14.5604 14.8271C14.1502 15.0833 13.8672 15.4881 13.8672 15.4881C13.8672 15.4881 16.1366 18.2823 16.3408 18.5796C16.545 18.8751 16.9139 19.3569 16.9139 19.597C16.9139 19.837 16.7742 20.8221 16.8584 21.0406C16.9874 21.3738 17.4692 21.8359 17.9134 21.8359C18.5439 21.8359 18.7893 21.492 18.8824 21.2502C18.9755 21.0084 18.9702 20.2794 19.117 19.9104C19.3015 19.4483 20.7989 19.8459 20.8921 19.5504C20.9852 19.2548 21.1195 18.4542 20.4694 18.0781C19.9875 17.8004 18.7839 17.9491 18.7839 17.9491C18.7839 17.9491 15.9843 14.82 15.7479 14.6606Z" fill="#FFEBCA"/>
</g>
<defs>
<clipPath id="clip0_265_6611">
<rect width="22.9267" height="22.9267" fill="white"/>
</clipPath>
</defs>
</svg>
