<svg width="32" height="32" viewBox="0 0 32 32" fill="none" xmlns="http://www.w3.org/2000/svg">
<path d="M8.47935 24.2L5.33268 23.6666L2.66602 18.3333L4.13268 17.6C4.50489 17.4124 4.91589 17.3147 5.33268 17.3147C5.74948 17.3147 6.16047 17.4124 6.53268 17.6L6.75935 17.7333C7.13156 17.9209 7.54255 18.0186 7.95935 18.0186C8.37614 18.0186 8.78714 17.9209 9.15935 17.7333L10.666 17L6.66602 8.99996L7.86602 8.39996C8.30958 8.18176 8.80507 8.09114 9.29715 8.13823C9.78924 8.18532 10.2585 8.36826 10.6527 8.66663L16.0127 12.6666C16.4082 12.9676 16.8799 13.152 17.3747 13.1991C17.8694 13.2463 18.3675 13.1542 18.8127 12.9333L24.3993 10.1866C25.1133 9.82675 25.9357 9.74593 26.706 9.95996L27.9993 10.3333C28.2666 10.4075 28.5139 10.5403 28.7234 10.7221C28.9328 10.9039 29.0991 11.13 29.2102 11.3842C29.3213 11.6383 29.3744 11.9139 29.3656 12.1911C29.3568 12.4683 29.2863 12.7401 29.1594 12.9866L28.6527 14C28.346 14.6133 27.8527 15.12 27.226 15.44L10.106 23.9333C9.60261 24.1826 9.03332 24.2666 8.47935 24.1733V24.2Z" stroke="#797781" stroke-width="2" stroke-linecap="round" stroke-linejoin="round"/>
</svg>

