<svg width="17" height="17" viewBox="0 0 17 17" fill="none" xmlns="http://www.w3.org/2000/svg">
<path d="M10.1447 16.2509C9.27076 16.2509 8.97724 15.4899 8.97724 15.1433L8.98255 12.5428C8.98255 12.4804 8.95333 12.4206 8.90287 12.3821C8.86833 12.3555 8.82583 12.3423 8.78333 12.3423C8.76474 12.3423 8.74482 12.3449 8.72622 12.3502C8.53763 12.4073 8.35568 12.4352 8.18701 12.4352C7.68232 12.4352 7.3556 12.1762 7.17099 11.9584C7.09846 11.8738 7.00838 11.806 6.90701 11.7597C6.80564 11.7133 6.69541 11.6896 6.58396 11.6901C6.50162 11.6901 6.4206 11.7034 6.34357 11.7287C6.24662 11.7605 6.14302 11.7765 6.03544 11.7765C5.86412 11.7765 5.67951 11.7353 5.49091 11.6543C5.24123 11.5467 5.05396 11.3568 4.94107 11.2147C4.82154 11.0646 4.57583 10.8123 4.27701 10.8123C4.23185 10.8123 4.18802 10.8176 4.14552 10.8295C4.08177 10.8468 4.00607 10.8561 3.92638 10.8561C3.5638 10.8561 3.08833 10.6755 2.84662 10.1681C2.62748 9.71124 2.63279 7.18249 2.63544 6.35241C2.63943 4.16765 4.14552 1.05585 4.16146 1.02398C4.16677 1.01335 4.17076 1.00273 4.17474 0.990773C4.21458 0.848663 4.34607 0.749054 4.49349 0.749054L9.77013 0.79421C9.92154 0.796866 10.053 0.903116 10.0889 1.05187L10.1287 1.22319C10.3253 2.06921 10.8194 2.82226 11.5565 3.40398C11.7145 3.52882 11.85 3.67757 11.9602 3.84624C12.5499 4.75601 12.8753 5.55554 13.1887 6.32851C13.4849 7.0603 13.7651 7.75093 14.2419 8.46413C14.3482 8.62351 14.4252 9.06179 14.3083 9.41241C14.234 9.6382 14.0932 9.7896 13.8913 9.85999C13.7293 9.9171 13.5818 9.94499 13.4411 9.94499C12.9404 9.94499 12.5021 9.57179 12.0186 8.73374C11.502 7.83991 11.4701 7.60484 11.4688 7.59554C11.4648 7.48796 11.3772 7.40562 11.2696 7.40562H11.2669C11.158 7.40694 11.0717 7.49859 11.0704 7.60749L11.0544 15.1871C11.0544 15.4647 10.8871 16.2509 10.1447 16.2509Z" fill="url(#paint0_linear_284_7020)"/>
<path d="M4.49301 0.549835L4.49567 0.948273L9.767 0.994757C9.82809 0.996085 9.88121 1.03726 9.8945 1.09702L9.93434 1.26835C10.1415 2.15819 10.6595 2.95109 11.4338 3.55937C11.5746 3.67093 11.6954 3.80374 11.7937 3.95382C12.3741 4.84765 12.6942 5.63788 13.005 6.40288C13.3051 7.14398 13.5893 7.8439 14.0768 8.57437C14.1365 8.66468 14.2242 9.03655 14.1193 9.34999C14.0449 9.57179 13.9161 9.64085 13.8244 9.67273C13.6836 9.72319 13.5588 9.7471 13.4406 9.7471C13.1577 9.7471 12.7593 9.62093 12.1908 8.63546C11.7565 7.88241 11.6782 7.61944 11.6675 7.57296C11.6598 7.47582 11.6168 7.38487 11.5465 7.31733C11.4763 7.24978 11.3837 7.21031 11.2864 7.2064H11.2704C11.0632 7.2064 10.8893 7.36577 10.8733 7.57429C10.872 7.58491 10.872 7.59687 10.872 7.60882L10.8561 15.1884C10.8561 15.1964 10.8255 16.0504 10.1455 16.0504C9.34996 16.0504 9.17731 15.3226 9.17731 15.1433L9.18262 12.5415C9.18262 12.4153 9.12285 12.2971 9.02192 12.2214C8.97215 12.1843 8.91437 12.1595 8.85323 12.1489C8.79209 12.1383 8.72931 12.1422 8.66996 12.1603C8.49996 12.2121 8.33793 12.2373 8.18786 12.2373C7.84387 12.2373 7.55301 12.1005 7.32325 11.8309C7.23204 11.7244 7.11877 11.6389 6.99127 11.5804C6.86376 11.5219 6.72508 11.4918 6.58481 11.4923C6.48121 11.4923 6.38028 11.5082 6.282 11.5401C6.20496 11.5653 6.12262 11.5786 6.03496 11.5786C5.8902 11.5786 5.73348 11.5427 5.56879 11.4723C5.35629 11.382 5.19559 11.216 5.09731 11.0925C4.9552 10.9145 4.66035 10.6157 4.27785 10.6157C4.21543 10.6157 4.15301 10.6237 4.09325 10.6409C4.04809 10.6529 3.98832 10.6609 3.9259 10.6609C3.62309 10.6609 3.22864 10.5094 3.02543 10.0858C2.93512 9.89585 2.82754 9.09499 2.83285 6.3564C2.83817 4.21679 4.32434 1.14218 4.33895 1.11163C4.34957 1.09038 4.35754 1.0678 4.36418 1.04523C4.38012 0.988116 4.43325 0.948273 4.49168 0.948273L4.49301 0.549835ZM4.49301 0.549835C4.25528 0.549835 4.04676 0.707882 3.98168 0.93632C3.98168 0.93632 2.43973 4.09593 2.43575 6.35241C2.43309 7.8864 2.45434 9.81085 2.66684 10.2544C2.95371 10.8548 3.51285 11.0553 3.92723 11.0553C4.02817 11.0553 4.12114 11.0434 4.1995 11.0221C4.22606 11.0155 4.25262 11.0115 4.27918 11.0115C4.47043 11.0115 4.66434 11.1841 4.78653 11.3382C4.92598 11.5135 5.1345 11.7167 5.4134 11.8362C5.64981 11.9372 5.85832 11.9744 6.03629 11.9744C6.17973 11.9744 6.30325 11.9505 6.40684 11.9173C6.46528 11.8987 6.52504 11.8894 6.58614 11.8894C6.75082 11.8894 6.91153 11.9598 7.02176 12.0886C7.23957 12.3449 7.6141 12.6344 8.18918 12.6344C8.36848 12.6344 8.56637 12.6066 8.78551 12.5401L8.7802 15.1419C8.7802 15.563 9.12817 16.4488 10.1468 16.4488C10.9889 16.4488 11.2558 15.6068 11.2558 15.1884L11.2718 7.60882C11.2731 7.64069 11.2997 7.8864 11.8468 8.83468C12.3595 9.72319 12.8522 10.1455 13.4419 10.1455C13.6053 10.1455 13.7779 10.1123 13.9586 10.0486C14.7236 9.77632 14.6306 8.68726 14.4088 8.3539C13.4446 6.9089 13.2892 5.52499 12.1284 3.73734C12.007 3.55064 11.8558 3.38509 11.6808 3.24726C11.0128 2.72132 10.5161 2.00679 10.3235 1.17804L10.2836 1.00671C10.2559 0.890836 10.1903 0.787538 10.0972 0.713195C10.0041 0.638852 9.88879 0.59772 9.76965 0.59632L4.49832 0.549835H4.49301Z" fill="#EDA600"/>
<path d="M9.11674 9.86664L9.17783 12.677L8.85244 12.4512C8.77408 12.4512 8.71431 12.3489 8.72361 12.232L8.82588 9.86266C8.84447 9.62758 9.10478 9.63024 9.11674 9.86664Z" fill="#EDA600"/>
<path d="M11.2625 6.54368L11.6357 7.46938L11.7605 7.79743L11.3196 7.68188L10.8906 7.55704L10.9026 6.5636C10.9012 6.38032 11.1881 6.39891 11.2625 6.54368Z" fill="#EDA600"/>
<path d="M6.84463 9.81353L6.94689 11.5494C6.95353 11.6277 6.6122 11.5826 6.6122 11.5826C6.53384 11.5826 6.47408 11.5122 6.48338 11.4325L6.58564 9.80821C6.60291 9.64751 6.83134 9.65149 6.84463 9.81353Z" fill="#EDA600"/>
<path d="M4.63564 9.84406L4.73791 10.7791C4.74455 10.8216 4.40322 10.7963 4.40322 10.7963C4.32486 10.7963 4.2651 10.7591 4.27439 10.7153L4.37666 9.8414C4.39525 9.75507 4.62369 9.75773 4.63564 9.84406Z" fill="#EDA600"/>
<defs>
<linearGradient id="paint0_linear_284_7020" x1="8.48461" y1="16.2466" x2="8.51713" y2="0.760674" gradientUnits="userSpaceOnUse">
<stop offset="0.128" stop-color="#FFB300"/>
<stop offset="0.647" stop-color="#FFCA28"/>
</linearGradient>
</defs>
</svg>
