<svg width="28" height="28" viewBox="0 0 28 28" fill="none" xmlns="http://www.w3.org/2000/svg">
<g clip-path="url(#clip0_351_3675)">
<rect width="28" height="28" rx="14" fill="url(#paint0_linear_351_3675)"/>
<path d="M34.2848 7.63813C34.6648 7.28417 35.1744 7.06763 35.7346 7.06763C36.6038 7.06763 37.3513 7.589 37.6816 8.33618V21.7257H5.26439C5.7421 20.516 6.92142 19.6602 8.30057 19.6602C8.40068 19.6602 8.49974 19.6647 8.59756 19.6735C8.9146 18.9985 9.60038 18.5311 10.3953 18.5311C10.873 18.5311 11.3113 18.6999 11.6538 18.981C11.9058 18.1738 12.659 17.588 13.549 17.588C14.0249 17.588 14.4617 17.7555 14.8037 18.0348C15.0392 16.5874 16.2947 15.4826 17.8082 15.4826C18.6268 15.4826 19.3699 15.8058 19.917 16.3316C20.2228 15.2181 21.2421 14.4 22.4525 14.4L22.4633 14.4C22.4561 14.3091 22.4525 14.2171 22.4525 14.1244C22.4525 12.4446 23.6478 11.0442 25.2339 10.7277C25.3418 8.91197 26.8479 7.47277 28.6902 7.47277C29.9965 7.47277 31.1338 8.19643 31.7235 9.26485C31.8601 9.22243 32.0054 9.19959 32.1559 9.19959L32.1774 9.19975C32.1611 9.11252 32.1526 9.02256 32.1526 8.9306C32.1526 8.12546 32.8051 7.47277 33.61 7.47277C33.8535 7.47277 34.083 7.53251 34.2848 7.63813Z" fill="#CFEEFF"/>
<path d="M33.5596 14.0381C33.8312 13.7851 34.1954 13.6304 34.5958 13.6304C35.217 13.6304 35.7512 14.003 35.9873 14.5369V24.1056L31.7291 29.253L12.8192 24.1056C13.1607 23.2411 14.0035 22.6295 14.9892 22.6295C15.0607 22.6295 15.1315 22.6327 15.2014 22.639C15.428 22.1566 15.9181 21.8226 16.4862 21.8226C16.8276 21.8226 17.1408 21.9432 17.3856 22.1441C17.5658 21.5673 18.1041 21.1486 18.7401 21.1486C19.0803 21.1486 19.3924 21.2683 19.6368 21.4679C19.8052 20.4336 20.7024 19.644 21.7841 19.644C22.3691 19.644 22.9002 19.875 23.2912 20.2508C23.5098 19.455 24.2383 18.8703 25.1033 18.8703L25.111 18.8704C25.1059 18.8054 25.1033 18.7397 25.1033 18.6734C25.1033 17.473 25.9575 16.4722 27.0911 16.246C27.1682 14.9484 28.2446 13.9199 29.5613 13.9199C30.4949 13.9199 31.3077 14.4371 31.7291 15.2006C31.8267 15.1703 31.9306 15.154 32.0382 15.154L32.0535 15.1541C32.0419 15.0917 32.0358 15.0274 32.0358 14.9617C32.0358 14.3863 32.5021 13.9199 33.0774 13.9199C33.2514 13.9199 33.4154 13.9626 33.5596 14.0381Z" fill="#F7FEFE"/>
<path d="M-1.75771 12.369C-2.19032 11.9659 -2.77053 11.7192 -3.40829 11.7192C-4.39791 11.7192 -5.24893 12.3131 -5.625 13.1641V28.4147H31.2816C30.7378 27.0368 29.3951 26.062 27.825 26.062C27.711 26.062 27.5982 26.0672 27.4869 26.0772C27.1259 25.3084 26.3452 24.776 25.4401 24.776C24.8963 24.776 24.3973 24.9683 24.0074 25.2885C23.7204 24.3691 22.8629 23.7018 21.8497 23.7018C21.3079 23.7018 20.8106 23.8926 20.4212 24.2108C20.1531 22.5622 18.7237 21.3038 17.0007 21.3038C16.0687 21.3038 15.2227 21.6719 14.5998 22.2708C14.2516 21.0025 13.0912 20.0707 11.7132 20.0707L11.7009 20.0708C11.7091 19.9672 11.7132 19.8625 11.7132 19.7568C11.7132 17.8436 10.3524 16.2485 8.54657 15.8881C8.42378 13.8199 6.70902 12.1807 4.61167 12.1807C3.12445 12.1807 1.8296 13.0049 1.15831 14.2219C1.00275 14.1735 0.83738 14.1475 0.66594 14.1475L0.641491 14.1477C0.66002 14.0484 0.669719 13.9459 0.669719 13.8412C0.669719 12.9241 -0.0731182 12.1807 -0.989454 12.1807C-1.26667 12.1807 -1.52801 12.2487 -1.75771 12.369Z" fill="#CFEEFF"/>
<path d="M-5.15107 17.3215C-5.46026 17.0337 -5.87493 16.8577 -6.33075 16.8577C-7.03803 16.8577 -7.64626 17.2816 -7.91504 17.889V28.7752H18.4623C18.0736 27.7917 17.114 27.0959 15.9918 27.0959C15.9103 27.0959 15.8297 27.0995 15.7502 27.1067C15.4922 26.5579 14.9342 26.1779 14.2874 26.1779C13.8987 26.1779 13.5421 26.3151 13.2634 26.5437C13.0583 25.8874 12.4454 25.4111 11.7212 25.4111C11.334 25.4111 10.9786 25.5473 10.7003 25.7744C10.5087 24.5976 9.48711 23.6993 8.25562 23.6993C7.58955 23.6993 6.98489 23.9621 6.53974 24.3896C6.29086 23.4843 5.46148 22.8192 4.47667 22.8192L4.46786 22.8192C4.47369 22.7452 4.47667 22.6705 4.47667 22.5951C4.47667 21.2294 3.50407 20.0908 2.21344 19.8335C2.12569 18.3572 0.90014 17.1871 -0.598844 17.1871C-1.66177 17.1871 -2.5872 17.7754 -3.06697 18.6441C-3.17816 18.6096 -3.29635 18.591 -3.41888 18.591L-3.43635 18.5912C-3.42311 18.5202 -3.41618 18.4471 -3.41618 18.3723C-3.41618 17.7177 -3.94708 17.1871 -4.60199 17.1871C-4.80012 17.1871 -4.9869 17.2356 -5.15107 17.3215Z" fill="#F7FEFE"/>
<path d="M5.99245 17.9338C5.99245 17.9338 5.06784 14.1016 8.19603 10.49C11.3242 6.87838 17.0056 7.44863 19.8687 10.5768C22.7317 13.705 22.1591 18.1544 22.1591 18.1544C22.1591 18.1544 23.3043 20.3134 25.0667 21.766C26.2682 22.7587 28.4154 24.3639 27.9297 25.3776C27.4462 26.3914 26.9605 26.1708 26.1227 26.1262C25.2849 26.0817 22.7739 24.8496 22.7739 24.8496C22.7739 24.8496 22.2013 31.1037 14.3163 31.282C6.43129 31.4604 5.19926 24.8919 5.19926 24.8919C5.19926 24.8919 1.93965 25.9057 1.41164 25.9057C0.883623 25.9057 -0.0386414 25.6733 0.00125298 24.629C0.0458408 23.5284 2.16024 22.47 3.04027 21.6346C3.92264 20.7968 5.37526 19.4756 5.99245 17.9338Z" fill="#FFB903"/>
<path d="M19.2699 14.9243C19.3165 14.2428 18.8732 13.6575 18.2797 13.6169C17.6862 13.5762 17.1672 14.0957 17.1206 14.7771C17.0739 15.4586 17.5173 16.0439 18.1108 16.0845C18.7043 16.1252 19.2232 15.6057 19.2699 14.9243Z" fill="#2E302D"/>
<path d="M10.0025 16.1091C10.5922 16.0304 10.9969 15.4177 10.9065 14.7407C10.8161 14.0637 10.2647 13.5787 9.67509 13.6575C9.08543 13.7362 8.68072 14.3489 8.77114 15.0259C8.86155 15.7029 9.41286 16.1879 10.0025 16.1091Z" fill="#2E302D"/>
<path d="M13.9754 15.653C12.3233 15.6905 11.8281 16.5072 11.8281 17.0399C11.8281 17.6665 13.4145 19.0557 13.9425 19.0557C14.4705 19.0557 16.0898 17.6031 16.1062 17.0399C16.1226 16.5119 15.4632 15.6201 13.9754 15.653Z" fill="#FE8F01"/>
<path d="M27.615 25.8774C27.615 25.8774 27.0588 26.5885 26.1999 26.6542C25.273 26.7246 23.7546 26.4899 22.83 25.6638C21.9054 24.8378 21.6754 23.0543 22.004 22.6905C22.3348 22.3268 22.83 23.8545 24.1512 24.6735C25.5827 25.5582 27.615 25.8774 27.615 25.8774Z" fill="#FE8F01"/>
<path d="M3.30541 24.9367C4.55857 24.3711 6.37024 22.1675 6.57675 22.3928C6.94049 22.7894 6.56971 24.6457 5.45267 25.5984C4.32859 26.5559 2.63425 26.6991 1.21213 26.1053C0.433016 25.7791 0.177223 25.4224 0.0669266 25.2018C-0.198254 24.6691 1.62046 25.697 3.30541 24.9367Z" fill="#FE8F01"/>
</g>
<defs>
<linearGradient id="paint0_linear_351_3675" x1="14" y1="0" x2="13.991" y2="13.0354" gradientUnits="userSpaceOnUse">
<stop stop-color="#01C4FA"/>
<stop offset="1" stop-color="#C1ECFE"/>
</linearGradient>
<clipPath id="clip0_351_3675">
<rect width="28" height="28" rx="14" fill="white"/>
</clipPath>
</defs>
</svg>
