<svg width="28" height="28" viewBox="0 0 28 28" fill="none" xmlns="http://www.w3.org/2000/svg">
<g clip-path="url(#clip0_351_3680)">
<rect width="28" height="28" rx="14" fill="url(#paint0_linear_351_3680)"/>
<path d="M34.2848 7.63813C34.6648 7.28417 35.1744 7.06763 35.7346 7.06763C36.6038 7.06763 37.3513 7.589 37.6816 8.33618V21.7257H5.26439C5.7421 20.516 6.92142 19.6602 8.30057 19.6602C8.40068 19.6602 8.49974 19.6647 8.59756 19.6735C8.9146 18.9985 9.60038 18.5311 10.3953 18.5311C10.873 18.5311 11.3113 18.6999 11.6538 18.981C11.9058 18.1738 12.659 17.588 13.549 17.588C14.0249 17.588 14.4617 17.7555 14.8037 18.0348C15.0392 16.5874 16.2947 15.4826 17.8082 15.4826C18.6268 15.4826 19.3699 15.8058 19.917 16.3316C20.2228 15.2181 21.2421 14.4 22.4525 14.4L22.4633 14.4C22.4561 14.3091 22.4525 14.2171 22.4525 14.1244C22.4525 12.4446 23.6478 11.0442 25.2339 10.7277C25.3418 8.91197 26.8479 7.47277 28.6902 7.47277C29.9965 7.47277 31.1338 8.19643 31.7235 9.26485C31.8601 9.22243 32.0054 9.19959 32.1559 9.19959L32.1774 9.19975C32.1611 9.11252 32.1526 9.02256 32.1526 8.9306C32.1526 8.12546 32.8051 7.47277 33.61 7.47277C33.8535 7.47277 34.083 7.53251 34.2848 7.63813Z" fill="#CFEEFF"/>
<path d="M33.5596 14.0381C33.8312 13.7851 34.1954 13.6304 34.5958 13.6304C35.217 13.6304 35.7512 14.003 35.9873 14.5369V24.1056L31.7291 29.253L12.8192 24.1056C13.1607 23.2411 14.0035 22.6295 14.9892 22.6295C15.0607 22.6295 15.1315 22.6327 15.2014 22.639C15.428 22.1566 15.9181 21.8226 16.4862 21.8226C16.8276 21.8226 17.1408 21.9432 17.3856 22.1441C17.5658 21.5673 18.1041 21.1486 18.7401 21.1486C19.0803 21.1486 19.3924 21.2683 19.6368 21.4679C19.8052 20.4336 20.7024 19.644 21.7841 19.644C22.3691 19.644 22.9002 19.875 23.2912 20.2508C23.5098 19.455 24.2383 18.8703 25.1033 18.8703L25.111 18.8704C25.1059 18.8054 25.1033 18.7397 25.1033 18.6734C25.1033 17.473 25.9575 16.4722 27.0911 16.246C27.1682 14.9484 28.2446 13.9199 29.5613 13.9199C30.4949 13.9199 31.3077 14.4371 31.7291 15.2006C31.8267 15.1703 31.9306 15.154 32.0382 15.154L32.0535 15.1541C32.0419 15.0917 32.0358 15.0274 32.0358 14.9617C32.0358 14.3863 32.5021 13.9199 33.0774 13.9199C33.2514 13.9199 33.4154 13.9626 33.5596 14.0381Z" fill="#F7FEFE"/>
<path d="M-1.75771 12.369C-2.19032 11.9659 -2.77053 11.7192 -3.40829 11.7192C-4.39791 11.7192 -5.24893 12.3131 -5.625 13.1641V28.4147H31.2816C30.7378 27.0368 29.3951 26.062 27.825 26.062C27.711 26.062 27.5982 26.0672 27.4869 26.0772C27.1259 25.3084 26.3452 24.776 25.4401 24.776C24.8963 24.776 24.3973 24.9683 24.0074 25.2885C23.7204 24.3691 22.8629 23.7018 21.8497 23.7018C21.3079 23.7018 20.8106 23.8926 20.4212 24.2108C20.1531 22.5622 18.7237 21.3038 17.0007 21.3038C16.0687 21.3038 15.2227 21.6719 14.5998 22.2708C14.2516 21.0025 13.0912 20.0707 11.7132 20.0707L11.7009 20.0708C11.7091 19.9672 11.7132 19.8625 11.7132 19.7568C11.7132 17.8436 10.3524 16.2485 8.54657 15.8881C8.42378 13.8199 6.70902 12.1807 4.61167 12.1807C3.12445 12.1807 1.8296 13.0049 1.15831 14.2219C1.00275 14.1735 0.83738 14.1475 0.66594 14.1475L0.641491 14.1477C0.66002 14.0484 0.669719 13.9459 0.669719 13.8412C0.669719 12.9241 -0.0731182 12.1807 -0.989454 12.1807C-1.26667 12.1807 -1.52801 12.2487 -1.75771 12.369Z" fill="#CFEEFF"/>
<path d="M-5.15107 17.3215C-5.46026 17.0337 -5.87493 16.8577 -6.33075 16.8577C-7.03803 16.8577 -7.64626 17.2816 -7.91504 17.889V28.7752H18.4623C18.0736 27.7917 17.114 27.0959 15.9918 27.0959C15.9103 27.0959 15.8297 27.0995 15.7502 27.1067C15.4922 26.5579 14.9342 26.1779 14.2874 26.1779C13.8987 26.1779 13.5421 26.3151 13.2634 26.5437C13.0583 25.8874 12.4454 25.4111 11.7212 25.4111C11.334 25.4111 10.9786 25.5473 10.7003 25.7744C10.5087 24.5976 9.48711 23.6993 8.25562 23.6993C7.58955 23.6993 6.98489 23.9621 6.53974 24.3896C6.29086 23.4843 5.46148 22.8192 4.47667 22.8192L4.46786 22.8192C4.47369 22.7452 4.47667 22.6705 4.47667 22.5951C4.47667 21.2294 3.50407 20.0908 2.21344 19.8335C2.12569 18.3572 0.90014 17.1871 -0.598844 17.1871C-1.66177 17.1871 -2.5872 17.7754 -3.06697 18.6441C-3.17816 18.6096 -3.29635 18.591 -3.41888 18.591L-3.43635 18.5912C-3.42311 18.5202 -3.41618 18.4471 -3.41618 18.3723C-3.41618 17.7177 -3.94708 17.1871 -4.60199 17.1871C-4.80012 17.1871 -4.9869 17.2356 -5.15107 17.3215Z" fill="#F7FEFE"/>
<path d="M9.53374 17.4164L5.1084 9.82652L5.40455 9.66406L9.68266 17.2844L9.53374 17.4164Z" fill="url(#paint1_linear_351_3680)"/>
<path d="M11.8203 18.4691L11.8914 18.2864L19.9856 17.0984L20.033 17.4335L11.8203 18.4691Z" fill="url(#paint2_linear_351_3680)"/>
<path d="M10.4231 16.9444L10.2539 16.941L10.5281 6.43018L10.6973 6.43356L10.4231 16.9444Z" fill="url(#paint3_linear_351_3680)"/>
<path d="M12.0795 17.8007L12 17.6501L23.1708 11.854L23.2487 12.0046L12.0795 17.8007Z" fill="url(#paint4_linear_351_3680)"/>
<path d="M6.79785 9.53655L6.95523 9.47461L9.99594 17.2055L9.83839 17.2674L6.79785 9.53655Z" fill="#B0BEC5"/>
<path d="M8.92188 10.5112L9.08873 10.4834L10.1693 17.0117L10.0024 17.0393L8.92188 10.5112Z" fill="#B0BEC5"/>
<path d="M11.9492 17.8058L18.1853 15.8167L18.2368 15.9779L12.0007 17.967L11.9492 17.8058Z" fill="#B0BEC5"/>
<path d="M11.8936 17.9955L19.884 16.3303L19.9186 16.4962L11.9281 18.161L11.8936 17.9955Z" fill="#B0BEC5"/>
<path d="M11.7528 18.4116C11.6902 18.8567 11.5802 19.2882 11.4567 19.7147C11.328 20.1411 11.1893 20.5625 10.998 20.9704C11.059 20.5253 11.1707 20.0938 11.2942 19.6673C11.4228 19.2408 11.5633 18.8195 11.7528 18.4116Z" fill="#78909C"/>
<path d="M9.53587 17.3657C9.46649 17.7329 9.34803 18.0833 9.21772 18.4285C9.08234 18.772 8.9368 19.1105 8.74219 19.4303C8.81157 19.0631 8.93003 18.7128 9.06034 18.3676C9.19403 18.024 9.34126 17.6856 9.53587 17.3657Z" fill="#78909C"/>
<path d="M11.1685 20.6286L11.1804 20.6439C11.248 20.7217 11.2379 20.8419 11.1601 20.9096L11.1448 20.9214C11.067 20.9891 10.9468 20.9789 10.8791 20.9011L10.8673 20.8859C10.7996 20.808 10.8097 20.6879 10.8876 20.6202L10.9028 20.6083C10.9824 20.5406 11.1008 20.5491 11.1685 20.6286Z" fill="#504F4F"/>
<path d="M9.04742 18.9463L9.05926 18.9615C9.12696 19.0393 9.1168 19.1595 9.03896 19.2272L9.02373 19.239C8.94588 19.3067 8.82573 19.2966 8.75804 19.2187L8.74619 19.2035C8.6785 19.1256 8.68865 19.0055 8.7665 18.9378L8.78173 18.926C8.85957 18.8583 8.97973 18.8667 9.04742 18.9463Z" fill="#504F4F"/>
<path d="M10.3135 22.0037C10.3167 21.9973 10.3183 21.9924 10.3183 21.9924C10.3183 21.9924 10.3135 22.0053 10.3135 22.0037Z" fill="url(#paint5_linear_351_3680)"/>
<path d="M10.3183 21.9924C10.3183 21.9924 10.3167 21.9973 10.3135 22.0037C10.3151 22.0037 10.3183 21.9924 10.3183 21.9924Z" fill="#EDA600"/>
<path d="M10.1719 20.021C10.4588 20.021 10.6914 19.7884 10.6914 19.5015C10.6914 19.2145 10.4588 18.9819 10.1719 18.9819C9.88495 18.9819 9.65234 19.2145 9.65234 19.5015C9.65234 19.7884 9.88495 20.021 10.1719 20.021Z" fill="url(#paint6_linear_351_3680)"/>
<path opacity="0.22" d="M10.1719 19.0665C10.2869 19.0665 10.3952 19.1105 10.4765 19.1918C10.6474 19.3593 10.6491 19.6352 10.4799 19.8061C10.3969 19.889 10.2886 19.9347 10.1702 19.9347C10.0551 19.9347 9.94679 19.8907 9.86556 19.8095C9.8249 19.7694 9.79256 19.7217 9.77038 19.6691C9.74819 19.6165 9.73661 19.5601 9.7363 19.503C9.73599 19.4459 9.74694 19.3894 9.76854 19.3365C9.79014 19.2837 9.82196 19.2357 9.86217 19.1952C9.9451 19.1139 10.0551 19.0665 10.1719 19.0665ZM10.1719 18.9819C10.0689 18.982 9.96836 19.0127 9.88292 19.07C9.79748 19.1274 9.73103 19.2089 9.69202 19.3042C9.65302 19.3994 9.64322 19.5041 9.66388 19.6049C9.68453 19.7057 9.73471 19.7982 9.80802 19.8704C9.90956 19.9702 10.0416 20.021 10.1736 20.021C10.2765 20.0209 10.3771 19.9903 10.4625 19.9329C10.5479 19.8755 10.6144 19.794 10.6534 19.6988C10.6924 19.6035 10.7022 19.4988 10.6815 19.398C10.6609 19.2972 10.6107 19.2048 10.5374 19.1325C10.4359 19.0327 10.3039 18.9819 10.1719 18.9819Z" fill="#212121"/>
<path d="M10.9099 20.7148C10.7745 20.7181 10.4936 20.818 10.4936 20.818C10.4936 20.818 10.4648 20.7249 10.4547 20.5625C10.4377 20.3018 10.4157 20.07 10.2499 19.9143C10.1653 19.8348 9.92497 19.7078 9.7219 19.6537C9.70159 19.6486 9.68297 19.6452 9.66266 19.6418C9.38005 19.5352 8.78775 19.6266 8.78775 19.6266L8.96883 19.234C8.94006 19.1409 8.78775 19.0648 8.72344 19.1359C8.65745 19.2086 8.55929 19.4235 8.45945 19.6486C8.36468 19.8652 8.4696 19.9871 8.59483 20.0345C8.72006 20.0835 8.93837 20.0835 8.93837 20.0835C8.79791 20.2951 8.62868 20.664 8.62529 20.6708C8.62529 20.6708 8.54406 20.8231 8.53729 20.8366C8.53391 20.8434 8.12776 21.5 8.12776 21.5C8.12776 21.5 7.75884 21.7115 7.48977 21.9484C7.34423 22.0771 7.69115 22.1227 7.69115 22.1227C7.69115 22.1227 8.03637 22.0669 8.35453 21.9535C8.57114 21.8774 8.82498 21.4797 8.87406 21.4746C8.92313 21.4695 8.9519 21.4881 8.9519 21.4881L8.72006 21.9484C8.72006 21.9484 8.51022 22.1295 8.2276 22.3952C8.11253 22.5035 8.44929 22.622 8.44929 22.622C8.44929 22.622 8.80298 22.5661 9.04498 22.3292C9.23621 22.1414 9.74051 21.2495 9.74051 21.2495C9.74051 21.2495 9.78789 21.1768 9.8302 21.1124L10.0316 20.8095C10.0316 20.8095 10.123 20.9601 10.2093 21.0921C10.2871 21.214 10.414 21.2241 10.4733 21.2038C10.6848 21.1277 10.9251 21.0109 10.9996 20.9703C11.074 20.9297 11.0453 20.7097 10.9099 20.7148Z" fill="url(#paint7_linear_351_3680)"/>
<path opacity="0.22" d="M8.79087 19.1933C8.81626 19.1933 8.85349 19.2136 8.8738 19.2373L8.70965 19.5909L8.64365 19.7348L8.79934 19.7111C8.80103 19.7111 9.03287 19.6756 9.26979 19.6756C9.42718 19.6756 9.55241 19.6908 9.63194 19.7213L9.64548 19.7246C9.6624 19.728 9.68102 19.7314 9.69963 19.7365C9.89932 19.7873 10.1244 19.9125 10.1921 19.9768C10.3309 20.1071 10.3546 20.3034 10.3715 20.5691C10.3833 20.74 10.4121 20.8399 10.4138 20.8432L10.4392 20.9279L10.5221 20.8991C10.5965 20.872 10.8115 20.8043 10.913 20.8009C10.9181 20.8009 10.9299 20.8009 10.9418 20.8212C10.9587 20.85 10.9587 20.8872 10.9536 20.9008C10.8707 20.9448 10.6422 21.0548 10.4459 21.1242C10.4442 21.1242 10.4341 21.1275 10.4189 21.1275C10.3935 21.1275 10.3292 21.1191 10.2818 21.0463C10.1972 20.916 10.1058 20.7671 10.1058 20.7671L10.0364 20.6537L9.96363 20.7637L9.76225 21.0666C9.7081 21.1462 9.68271 21.1868 9.66917 21.2088H9.66748C9.52871 21.4542 9.13779 22.1226 8.98718 22.2698C8.79934 22.4526 8.53365 22.5203 8.45749 22.5355C8.39149 22.5101 8.3255 22.4729 8.29842 22.4475C8.57088 22.192 8.77564 22.016 8.77734 22.0143L8.79087 22.0042L8.79764 21.9889L9.02949 21.5286L9.06333 21.4609L8.99903 21.4203C8.98887 21.4135 8.95164 21.3915 8.89072 21.3915C8.88395 21.3915 8.87549 21.3915 8.86872 21.3932C8.81626 21.3983 8.78241 21.4372 8.69272 21.5438C8.60134 21.6522 8.44565 21.8349 8.32719 21.8755C8.05304 21.9737 7.7535 22.0278 7.69089 22.038C7.64181 22.0312 7.59104 22.016 7.55889 22.0025C7.81612 21.7774 8.16642 21.576 8.1698 21.5743L8.18842 21.5642L8.20027 21.5455C8.60811 20.8855 8.61149 20.8788 8.61318 20.8754C8.62165 20.8585 8.6978 20.7163 8.69949 20.7146C8.69949 20.7129 8.70288 20.7062 8.70965 20.6943C8.82472 20.4506 8.93134 20.2509 9.00918 20.1325L9.09718 20.0022H8.9398C8.88395 20.0022 8.71811 19.9937 8.62672 19.9582C8.58949 19.9429 8.54042 19.9159 8.51842 19.8651C8.4998 19.8177 8.50488 19.7585 8.53703 19.6857C8.59626 19.5503 8.72149 19.2677 8.7858 19.1966C8.78411 19.1933 8.7858 19.1933 8.79087 19.1933ZM8.79087 19.1086C8.7638 19.1086 8.74011 19.1171 8.72149 19.1374C8.65549 19.2102 8.55734 19.4251 8.45749 19.6502C8.36273 19.8668 8.46765 19.9886 8.59288 20.036C8.71811 20.0851 8.93641 20.0851 8.93641 20.0851C8.79595 20.2966 8.62672 20.6656 8.62334 20.6723C8.62334 20.6723 8.54211 20.8246 8.53534 20.8382C8.53195 20.8449 8.12581 21.5015 8.12581 21.5015C8.12581 21.5015 7.75689 21.7131 7.48781 21.95C7.34228 22.0786 7.68919 22.1243 7.68919 22.1243C7.68919 22.1243 8.03442 22.0685 8.35257 21.9551C8.56919 21.8789 8.82303 21.4812 8.87211 21.4762H8.88734C8.92795 21.4762 8.94995 21.4914 8.94995 21.4914L8.71811 21.9517C8.71811 21.9517 8.50826 22.1328 8.22565 22.3985C8.11057 22.5068 8.44734 22.6252 8.44734 22.6252C8.44734 22.6252 8.80103 22.5694 9.04303 22.3325C9.23426 22.1446 9.73856 21.2528 9.73856 21.2528C9.73856 21.2528 9.78594 21.18 9.82825 21.1157L10.0296 20.8128C10.0296 20.8128 10.121 20.9634 10.2073 21.0954C10.2666 21.1868 10.3529 21.2155 10.4155 21.2155C10.4375 21.2155 10.4561 21.2122 10.4713 21.2071C10.6829 21.1309 10.9232 21.0142 10.9976 20.9735C11.0721 20.9329 11.0433 20.718 10.9113 20.718H10.9079C10.7725 20.7214 10.4916 20.8212 10.4916 20.8212C10.4916 20.8212 10.4629 20.7282 10.4527 20.5657C10.4358 20.3051 10.4138 20.0732 10.2479 19.9176C10.1633 19.838 9.92302 19.7111 9.71994 19.6569C9.69963 19.6519 9.68102 19.6485 9.66071 19.6451C9.55748 19.6062 9.41195 19.5943 9.26979 19.5943C9.02441 19.5943 8.7858 19.6316 8.7858 19.6316L8.96687 19.2389C8.94657 19.1679 8.86195 19.1086 8.79087 19.1086Z" fill="#212121"/>
<path d="M7.36072 22.2666C7.3658 22.407 7.39118 22.4679 7.47072 22.4832C7.57225 22.5018 7.68225 22.2429 7.68225 22.2429C7.73133 22.1616 7.7821 22.1498 7.7821 22.1498L8.18994 22.033C8.21025 21.6895 7.9801 21.6066 7.91748 21.5947C7.91748 21.5947 7.58749 21.8283 7.51302 21.8773C7.4521 21.918 7.4301 21.9569 7.41656 21.9823C7.40472 22.006 7.35564 22.1058 7.36072 22.2666Z" fill="#424242"/>
<path d="M7.99552 22.7896C7.9769 22.9284 8.00736 22.9876 8.08859 22.9994C8.19013 23.013 8.34075 22.7608 8.34075 22.7608C8.38475 22.6779 8.43551 22.6644 8.43551 22.6644L8.84336 22.5002C8.84843 22.1567 8.5912 22.0856 8.5269 22.0771C8.5269 22.0771 8.22736 22.353 8.15459 22.4055C8.09536 22.4478 8.07506 22.4884 8.06152 22.5138C8.05136 22.5341 8.01583 22.6373 7.99552 22.7896Z" fill="#424242"/>
<path d="M10.2501 20.0463L10.2061 19.9837L11.9762 17.8887L11.6513 18.5944L10.2501 20.0463Z" fill="#4E342E"/>
<path d="M9.5918 19.7045L10.2078 17.0239L10.443 17.1221L9.63749 19.8331L9.5918 19.7045Z" fill="#553A30"/>
<path opacity="0.47" d="M10.3183 21.9924C10.3183 21.9924 10.3167 21.9973 10.3135 22.0037C10.3151 22.0037 10.3183 21.9924 10.3183 21.9924Z" fill="#2B2D2D"/>
<path d="M9.41895 19.8245L9.48156 17.3335L9.86232 17.4012L9.58987 19.8482L9.41895 19.8245Z" fill="#795548"/>
<path d="M10.2941 20.021L10.2129 19.9042L11.5176 18.2847L11.8189 18.3981L10.2941 20.021Z" fill="#795548"/>
<path d="M9.56279 17.4418L9.76756 17.496L9.5171 19.7518L9.50525 19.7501L9.56279 17.4418ZM9.48156 17.3335L9.41895 19.8245L9.59156 19.8482L9.86063 17.4333L9.48156 17.3335Z" fill="#553A30"/>
<path d="M11.5372 18.3203L11.7251 18.4811L10.4102 19.7859L11.5372 18.3203ZM11.5254 18.1985L10.2139 19.906L10.2951 20.0228L11.852 18.4777L11.5254 18.1985Z" fill="#553A30"/>
<path d="M8.87643 21.4748C8.78674 21.4155 8.69366 21.3512 8.62766 21.2565C8.55997 21.1634 8.51935 21.0432 8.52612 20.9231C8.53289 20.6912 8.67166 20.4594 8.8832 20.3782C8.81212 20.4628 8.76135 20.5525 8.72243 20.6439C8.68351 20.7352 8.65981 20.8317 8.64966 20.9282C8.64289 21.0229 8.66151 21.1177 8.70551 21.2074C8.74612 21.3022 8.81381 21.3834 8.87643 21.4748Z" fill="#504F4F"/>
<path d="M9.60808 20.8232C9.74685 20.6252 10.0515 20.0769 10.1868 20.0465C10.3459 20.0092 10.3848 20.148 10.4018 20.2478C10.4102 20.2952 10.4238 20.3426 10.4238 20.3426C10.4525 20.3308 10.4931 20.1954 10.5016 20.0786C10.5151 19.8975 10.4475 19.7977 10.3188 19.7215C10.1902 19.6454 9.625 19.3865 9.625 19.3865C9.45408 19.2866 9.2527 19.4626 9.18162 19.5777L8.62994 20.4238C8.55886 20.5389 8.59271 20.6895 8.70609 20.7606C8.70609 20.7606 9.02424 20.9755 9.20024 21.0703C9.39993 21.1735 9.46931 21.0212 9.60808 20.8232Z" fill="url(#paint8_linear_351_3680)"/>
<path d="M9.19869 19.6167C9.30192 19.4948 9.3933 19.3611 9.56591 19.444C9.73683 19.5253 10.0127 19.6691 10.2141 19.774C10.3731 19.857 10.4831 19.923 10.5001 20.1125C10.5221 19.8536 10.4171 19.7757 10.3207 19.7182C10.1921 19.642 9.62684 19.3831 9.62684 19.3831C9.60314 19.3696 9.57945 19.3645 9.55745 19.3577C9.40345 19.3137 9.24607 19.4762 9.18346 19.5744L8.63177 20.4205C8.62838 20.4256 8.62669 20.4307 8.625 20.4357C8.72823 20.3545 9.19869 19.6167 9.19869 19.6167Z" fill="#757575"/>
<path d="M8.95078 21.4882C8.92202 21.3867 8.92202 21.2716 8.97617 21.165C9.00155 21.1108 9.04724 21.0651 9.09971 21.0313C9.15217 20.9941 9.21309 20.9805 9.27063 20.9687H9.27909C9.34509 20.9636 9.41447 20.9721 9.48386 20.9991C9.55155 21.0279 9.61924 21.0854 9.64801 21.1582C9.67847 21.2293 9.67678 21.3038 9.65985 21.3681C9.64293 21.4307 9.61416 21.495 9.55832 21.5305C9.57355 21.4713 9.56678 21.4121 9.56001 21.3596C9.55155 21.3071 9.53632 21.2598 9.51262 21.2259C9.46863 21.1599 9.38401 21.1328 9.2774 21.1227H9.28586C9.19955 21.1294 9.12171 21.1548 9.06417 21.2225C9.00832 21.2902 8.97109 21.3867 8.95078 21.4882Z" fill="#504F4F"/>
<path d="M8.70603 20.7571C8.70603 20.7571 9.02757 20.967 9.20526 21.0617C9.40495 21.1683 9.48956 21.1328 9.62664 20.9348C9.76541 20.7368 10.0988 20.1225 10.2342 20.0836C10.4102 20.0328 10.4068 20.268 10.4068 20.268C10.4068 20.268 10.4948 20.1377 10.3797 19.9533C10.3476 19.9008 10.1699 19.8196 10.0057 20.0227C9.90587 20.1462 9.54541 20.7063 9.40664 20.9196C9.37618 20.9653 9.31695 20.9788 9.26956 20.95L8.59265 20.5354C8.58588 20.6217 8.59265 20.686 8.70603 20.7571Z" fill="#504F4F"/>
<path opacity="0.24" d="M10.3148 22.001C10.3148 22.001 10.3135 22.0023 10.3135 22.0035C10.3148 22.0023 10.3148 22.001 10.3148 22.001Z" fill="black"/>
<path d="M9.93211 20.9381C9.93211 20.9381 9.85257 20.6318 9.73242 20.5185L9.88811 20.3357C10.0049 20.466 10.0726 20.7215 10.0675 20.818C10.0624 20.8874 9.93211 20.9381 9.93211 20.9381Z" fill="#504F4F"/>
<path d="M7.60404 22.2254C7.62947 22.0838 7.59863 21.9597 7.53515 21.9483C7.47168 21.9369 7.3996 22.0425 7.37417 22.1842C7.34874 22.3258 7.37958 22.4499 7.44306 22.4613C7.50653 22.4727 7.5786 22.3671 7.60404 22.2254Z" fill="#504F4F"/>
<path d="M8.25176 22.7459C8.28395 22.6057 8.25319 22.4789 8.18305 22.4628C8.11291 22.4467 8.02995 22.5474 7.99775 22.6876C7.96555 22.8279 7.99631 22.9547 8.06646 22.9708C8.1366 22.9869 8.21956 22.8862 8.25176 22.7459Z" fill="#504F4F"/>
<path d="M9.57129 17.3135L10.6611 17.6604C10.7728 17.6672 10.981 17.8296 11.0673 17.9024L11.8051 18.4659L12.372 17.5741L11.0199 17.5504C10.9031 17.5352 10.898 17.4912 10.7999 17.4286L10.3311 16.7939L9.57129 17.3135Z" fill="#F4C20D"/>
<path d="M10.3208 16.8494L10.7304 17.3791C10.8319 17.5111 10.9859 17.5856 11.1467 17.5873L12.2348 17.6499L11.8202 18.403L10.9182 17.7362C10.8285 17.6634 10.7202 17.6143 10.6068 17.5923L9.67267 17.3047L10.3208 16.8494ZM10.3377 16.7327L9.48145 17.3334L10.5848 17.6736C10.6864 17.6922 10.7828 17.7362 10.864 17.8022L11.8473 18.5282L12.3736 17.572L11.1517 17.501C11.013 17.501 10.8827 17.435 10.798 17.325L10.3377 16.7327Z" fill="#795548"/>
<path d="M11.8028 11.6034C15.6528 13.2415 19.3893 17.4722 19.3893 17.4722C19.3893 17.4722 20.3759 17.6161 21.1646 17.1795C22.1122 16.6549 23.9653 14.4515 24.3985 14.0877C25.1753 13.4327 24.8622 11.9469 24.3647 11.3749C23.9484 10.8943 21.5149 8.58771 16.9457 7.04434C13.1329 5.75651 10.9922 5.95789 9.87529 6.12035C8.85315 6.26928 8.43177 6.34204 7.00686 7.01727C4.27043 8.31356 5.12842 9.99401 5.12842 9.99401C5.12842 9.99401 7.27763 9.67755 11.8028 11.6034Z" fill="url(#paint9_linear_351_3680)"/>
<path d="M15.2284 6.53006C13.9287 6.19499 12.8745 6.05453 12.0232 6.01392C11.9437 6.0393 11.8625 6.06807 11.7778 6.09684C9.18865 6.98191 7.58097 8.14451 7.05636 8.77573C6.84144 9.03465 6.62483 9.82326 6.66883 10.0636C7.46251 10.1736 8.56588 10.4105 9.99248 10.9046L11.3446 10.3986L15.445 7.0276L15.2284 6.53006Z" fill="url(#paint10_linear_351_3680)"/>
<path d="M16.9469 7.0428C16.1753 6.78219 15.473 6.5825 14.8333 6.43188C14.3611 6.57404 13.6368 6.8245 12.7484 7.24588C11.139 8.00741 9.67179 8.98893 9.41118 9.47293C9.15226 9.95692 9.06934 10.6034 9.06934 10.6034C9.85794 10.8403 10.7684 11.1618 11.8024 11.6018C11.9225 11.6526 12.0444 11.7068 12.1645 11.7643L14.3713 9.40355L17.414 7.20526C17.2617 7.15111 17.106 7.09695 16.9469 7.0428Z" fill="url(#paint11_linear_351_3680)"/>
<path d="M18.0356 16.0762C18.0356 16.0762 18.4062 15.511 18.8327 14.9948C19.7432 13.8931 23.7623 10.7895 23.7623 10.7895C22.8248 9.97041 22.1767 9.50672 20.7754 8.72827L16.037 11.3632L14.6934 12.805L14.7018 13.2771C15.8018 14.0573 17.2453 15.3384 18.0356 16.0762Z" fill="url(#paint12_linear_351_3680)"/>
<path d="M18.5461 7.64697L13.7552 10.1245L12.5977 11.9775C13.7552 12.5732 14.9652 13.4464 15.9552 14.2418C15.9552 14.2418 16.1227 13.5344 16.6744 12.932C17.2904 12.2585 19.7307 9.92987 21.5109 9.1565C20.6953 8.65727 19.7087 8.13435 18.5461 7.64697Z" fill="url(#paint13_linear_351_3680)"/>
<path d="M17.093 7.09351C16.4313 7.2695 15.108 7.67227 14.0706 8.30011C12.6271 9.17164 11.5948 9.90948 11.346 10.3969C11.0972 10.8842 11.0312 11.287 11.0312 11.287L11.0329 11.2887C11.2817 11.3868 11.5372 11.4918 11.8029 11.6035C12.4646 11.8844 13.1212 12.2448 13.7592 12.6442C13.7592 12.6442 14.0689 12.0028 14.4903 11.5019C15.0707 10.8132 17.4975 8.65887 19.3912 8.02257C18.6973 7.69765 17.9324 7.38289 17.093 7.09351Z" fill="url(#paint14_linear_351_3680)"/>
<path d="M15.9262 8.72663C12.7616 7.03603 10.0032 6.57403 8.26181 6.48096C7.82351 6.63496 7.39874 6.82618 6.97906 7.02757C6.2886 7.35926 5.57445 7.82125 5.21061 8.52355C5.02446 8.88401 4.95169 9.29862 5.03292 9.698C5.04646 9.764 5.06338 9.918 5.11584 9.96877C5.15984 10.0128 5.24446 9.98061 5.31553 9.97723C6.19214 9.93661 7.08567 10.1008 7.9352 10.2988C8.93196 10.5306 9.90841 10.8521 10.8629 11.2211C11.8292 11.5934 12.7599 12.0249 13.6382 12.5749C14.5791 13.1638 15.4693 13.8323 16.3171 14.5498C17.1006 15.2115 17.8672 15.8935 18.5882 16.6245C18.8268 16.8665 19.062 17.1119 19.2905 17.3624C19.3971 17.4791 19.4157 17.4775 19.5815 17.4876C20.3312 17.5299 21.0234 17.337 21.6089 16.8665C22.1741 16.413 22.6801 15.8816 23.1777 15.3553C23.3046 15.2216 23.4281 15.0863 23.5533 14.9492C22.2841 13.4515 19.6526 10.7168 15.9262 8.72663Z" fill="url(#paint15_radial_351_3680)"/>
<path opacity="0.8" d="M15.9253 7.9125C18.9985 9.33233 21.1833 10.5829 22.7571 11.8538C23.8452 12.7321 23.7606 14.597 23.7606 14.597C24.9841 13.7594 24.9537 12.9064 24.776 12.2261C24.6964 11.9232 24.5712 11.6118 24.3631 11.3732C23.8368 10.7657 23.1531 10.2462 22.4982 9.78417C21.7248 9.23925 20.8905 8.76879 20.0477 8.34234C18.3131 7.46235 16.4533 6.78882 14.5529 6.36913C13.5646 6.15082 12.556 6.00867 11.544 6.00021C10.7554 5.99513 9.96845 6.08313 9.19338 6.22698C8.41323 6.37251 6.92063 7.05789 6.89355 7.07143C6.89355 7.07143 8.20508 6.63651 9.41507 6.72959C11.9992 6.92589 13.991 7.01897 15.9253 7.9125Z" fill="url(#paint16_radial_351_3680)"/>
</g>
<defs>
<linearGradient id="paint0_linear_351_3680" x1="14" y1="0" x2="13.991" y2="13.0354" gradientUnits="userSpaceOnUse">
<stop stop-color="#01C4FA"/>
<stop offset="1" stop-color="#C1ECFE"/>
</linearGradient>
<linearGradient id="paint1_linear_351_3680" x1="6.48795" y1="11.9026" x2="9.48082" y2="17.3528" gradientUnits="userSpaceOnUse">
<stop stop-color="#78909C"/>
<stop offset="1" stop-color="#B0BEC5"/>
</linearGradient>
<linearGradient id="paint2_linear_351_3680" x1="20.4352" y1="17.1943" x2="12.4203" y2="18.3869" gradientUnits="userSpaceOnUse">
<stop stop-color="#78909C"/>
<stop offset="1" stop-color="#B0BEC5"/>
</linearGradient>
<linearGradient id="paint3_linear_351_3680" x1="10.4565" y1="12.3183" x2="10.4084" y2="13.9202" gradientUnits="userSpaceOnUse">
<stop stop-color="#546E7A"/>
<stop offset="1" stop-color="#90A4AE"/>
</linearGradient>
<linearGradient id="paint4_linear_351_3680" x1="16.3483" y1="15.4903" x2="14.2911" y2="16.559" gradientUnits="userSpaceOnUse">
<stop stop-color="#546E7A"/>
<stop offset="1" stop-color="#90A4AE"/>
</linearGradient>
<linearGradient id="paint5_linear_351_3680" x1="10.3071" y1="21.9928" x2="10.3071" y2="21.9928" gradientUnits="userSpaceOnUse">
<stop stop-color="#FFB300"/>
<stop offset="0.401" stop-color="#FFCA28"/>
</linearGradient>
<linearGradient id="paint6_linear_351_3680" x1="9.95566" y1="19.9508" x2="10.3005" y2="19.2344" gradientUnits="userSpaceOnUse">
<stop stop-color="#1A237E" stop-opacity="0.971"/>
<stop offset="1" stop-color="#4885ED" stop-opacity="0.971"/>
</linearGradient>
<linearGradient id="paint7_linear_351_3680" x1="10.0521" y1="19.8795" x2="8.21633" y2="21.5465" gradientUnits="userSpaceOnUse">
<stop stop-color="#A11919"/>
<stop offset="0.496" stop-color="#DB3236"/>
</linearGradient>
<linearGradient id="paint8_linear_351_3680" x1="9.31383" y1="20.7126" x2="10.5197" y2="18.8625" gradientUnits="userSpaceOnUse">
<stop stop-color="#616161"/>
<stop offset="0.398" stop-color="#2B2D2D"/>
<stop offset="0.951"/>
</linearGradient>
<linearGradient id="paint9_linear_351_3680" x1="13.3796" y1="14.1621" x2="15.2611" y2="10.5317" gradientUnits="userSpaceOnUse">
<stop offset="0.25" stop-color="#FFA000"/>
<stop offset="0.357" stop-color="#FDA703"/>
<stop offset="0.74" stop-color="#F6BB0A"/>
<stop offset="1" stop-color="#F4C20D"/>
</linearGradient>
<linearGradient id="paint10_linear_351_3680" x1="11.3071" y1="7.84466" x2="8.23064" y2="10.9041" gradientUnits="userSpaceOnUse">
<stop stop-color="#DB3236"/>
<stop offset="1" stop-color="#B71C1C"/>
</linearGradient>
<linearGradient id="paint11_linear_351_3680" x1="13.9844" y1="7.79823" x2="10.1103" y2="11.2104" gradientUnits="userSpaceOnUse">
<stop stop-color="#3CBA54"/>
<stop offset="1" stop-color="#388E3C"/>
</linearGradient>
<linearGradient id="paint12_linear_351_3680" x1="21.7096" y1="9.78244" x2="16.3319" y2="14.3217" gradientUnits="userSpaceOnUse">
<stop stop-color="#DB3236"/>
<stop offset="1" stop-color="#B71C1C"/>
</linearGradient>
<linearGradient id="paint13_linear_351_3680" x1="18.5981" y1="8.93765" x2="14.2233" y2="12.7396" gradientUnits="userSpaceOnUse">
<stop stop-color="#3CBA54"/>
<stop offset="1" stop-color="#388E3C"/>
</linearGradient>
<linearGradient id="paint14_linear_351_3680" x1="16.1798" y1="8.42586" x2="12.3499" y2="11.8782" gradientUnits="userSpaceOnUse">
<stop stop-color="#4885ED"/>
<stop offset="1" stop-color="#1565C0"/>
</linearGradient>
<radialGradient id="paint15_radial_351_3680" cx="0" cy="0" r="1" gradientTransform="matrix(16.7551 7.70531 2.9711 -6.46228 11.4605 13.5426)" gradientUnits="userSpaceOnUse">
<stop offset="0.166" stop-color="#212121" stop-opacity="0.957"/>
<stop offset="0.553" stop-color="#212121" stop-opacity="0"/>
</radialGradient>
<radialGradient id="paint16_radial_351_3680" cx="0" cy="0" r="1" gradientTransform="matrix(16.0675 5.14943 1.56406 -4.87947 14.0207 10.9165)" gradientUnits="userSpaceOnUse">
<stop offset="0.657" stop-color="#FFECB4" stop-opacity="0.034"/>
<stop offset="1" stop-color="#FFF9C4"/>
</radialGradient>
<clipPath id="clip0_351_3680">
<rect width="28" height="28" rx="14" fill="white"/>
</clipPath>
</defs>
</svg>
