<svg width="23" height="23" viewBox="0 0 23 23" fill="none" xmlns="http://www.w3.org/2000/svg">
<g clip-path="url(#clip0_265_6623)">
<path d="M21.4511 12.4271C21.4511 12.4271 21.7574 10.0896 21.2003 9.03285C20.6433 7.97607 18.9238 5.64221 15.3576 5.22129C13.4661 4.99919 12.1855 5.24995 11.0176 5.38786C10.2779 5.47563 8.9005 5.02068 6.42693 5.5831C4.59279 6.00044 1.80935 7.61426 0.904819 11.0927C0.428373 12.925 0.609279 14.9042 1.42067 16.5718C2.97897 19.7708 5.87167 20.5499 5.87167 20.5499L11.6857 21.0228L18.7249 18.0459L21.4511 12.4271Z" fill="#FF2A23"/>
<path d="M14.6921 21.329C18.3926 20.6054 21.5916 17.2954 22.1487 13.7901C22.6699 10.5105 20.7534 8.31274 20.7534 8.31274C20.7534 8.31274 20.9719 10.0627 20.5635 11.9273C20.1247 13.9226 18.8548 17.2488 14.8318 19.1331C9.89364 21.4454 4.48438 19.9212 4.48438 19.9212C4.48438 19.9212 8.15981 22.6061 14.6921 21.329Z" fill="#DC0D27"/>
<path d="M4.4626 9.45011C3.47926 9.19577 2.25232 9.93909 2.075 12.1153C1.912 14.1089 2.99207 16.5108 4.05063 16.2242C4.94979 15.9806 4.08467 14.3149 4.40528 12.9482C4.72948 11.5816 5.96179 9.83879 4.4626 9.45011Z" fill="#FED3B0"/>
<path d="M5.70684 8.24826C5.56713 8.42917 5.89133 9.22444 7.5374 9.21369C9.18167 9.20294 9.45751 8.7068 10.1901 8.9289C10.9227 9.151 11.494 10.0322 12.3036 10.5141C13.4356 11.1875 15.0692 11.0156 15.0584 10.7165C15.0477 10.4156 14.6483 10.5696 14.3044 10.1487C13.9605 9.72596 13.3515 8.61007 13.3515 8.61007C13.3515 8.61007 13.5216 8.08706 13.8816 8.10676C14.7127 8.15154 15.637 7.98676 16.1457 7.66793C16.7546 7.28821 16.9839 6.7025 16.8729 6.56817C16.7618 6.43562 16.4161 6.79385 16.228 6.75982C16.04 6.72579 14.8166 6.74907 14.8166 6.74907L13.3389 6.50906C13.3389 6.50906 13.5413 5.64393 13.9408 5.19973C14.3402 4.75552 14.9671 4.14474 14.9545 4.06772C14.942 3.9907 14.4387 4.05877 14.4387 4.05877L12.8822 4.76985L11.7932 6.20277L9.72618 6.46965L7.73621 5.13525C7.73621 5.13525 6.59525 4.2146 6.54331 4.23609C6.25493 4.35431 6.69377 4.79314 7.02513 5.32332C7.31171 5.78364 7.37082 6.0147 7.75771 6.33532C8.13564 6.64698 8.76971 6.95685 8.76971 6.95685L8.31475 7.77898C8.31475 7.77898 6.8478 8.35752 6.59167 8.35752C6.33733 8.35931 5.78386 8.14975 5.70684 8.24826Z" fill="#BDCF44"/>
<path d="M10.2992 7.75209C10.8992 7.79687 11.3327 8.59393 11.8736 9.13665C12.6635 9.92654 13.2815 10.3385 13.946 10.4943C14.2791 10.5714 15.044 10.6985 15.044 10.6985C15.044 10.6985 15.155 10.6215 14.7771 10.4102C14.3991 10.1988 14.1717 9.794 14.1161 9.60593C14.0606 9.41786 13.8869 8.79991 13.5215 8.28764C13.1561 7.77537 12.7405 7.55865 12.8731 7.3258C13.0056 7.09295 14.152 7.487 15.2553 7.30968C16.7115 7.07683 16.9336 6.60934 16.8673 6.55381C16.8011 6.49829 15.9001 6.76517 15.4452 6.66486C14.9902 6.56456 14.5998 6.2529 13.912 6.2529C13.4427 6.2529 12.9841 6.42306 12.8605 6.16692C12.7567 5.95199 13.1471 5.23374 13.4445 4.96327C14.1663 4.30771 14.9454 4.15188 14.9454 4.06232C14.9454 3.87784 13.6791 3.77395 12.8014 4.47429C11.9274 5.17105 12.0921 6.08632 10.9566 6.08632C10.5786 6.08632 10.4335 5.99676 10.4335 5.99676C10.4335 5.99676 9.92665 5.57943 9.2496 5.21224C8.57254 4.84506 8.06207 5.00805 7.6716 4.81998C7.28292 4.63191 6.59332 4.14472 6.52705 4.24323C6.46078 4.34174 7.04469 5.00805 7.77906 5.55256C8.51343 6.09707 9.33557 6.3747 9.10093 6.5968C8.86808 6.8189 8.4794 6.96398 8.11222 7.24161C7.74503 7.51924 7.42263 7.91867 6.97842 8.06375C6.53422 8.20883 5.80343 8.10674 5.70312 8.22853C5.60282 8.35033 6.4769 8.77125 7.84355 8.51691C9.20661 8.26257 9.21019 7.67149 10.2992 7.75209Z" fill="#94A61D"/>
<path d="M11.6632 0.884781C11.364 0.870452 10.9861 1.10688 10.9861 1.10688C10.9861 1.10688 10.438 1.77498 10.2213 3.43358C10.121 4.2002 10.2302 5.23011 10.2087 5.7979C10.1872 6.3639 10.0637 6.57526 10.0977 6.86543C10.1317 7.1538 10.4344 7.47979 11.1348 7.47262C11.6972 7.46725 11.9873 7.032 11.9766 6.87617C11.9659 6.72034 11.484 5.13159 11.6202 3.73092C11.7473 2.42875 12.222 1.52959 12.2417 1.34152C12.2524 1.23943 12.1181 0.906275 11.6632 0.884781Z" fill="#728035"/>
</g>
<defs>
<clipPath id="clip0_265_6623">
<rect width="22.9267" height="22.9267" fill="white"/>
</clipPath>
</defs>
</svg>
