<svg width="24" height="24" viewBox="0 0 24 24" fill="none" xmlns="http://www.w3.org/2000/svg">
<path fill-rule="evenodd" clip-rule="evenodd" d="M18.3773 5.61567C16.6855 3.92979 14.4353 3.00088 12.0378 3C7.09758 3 3.07694 7.00092 3.07521 11.9187C3.07436 13.4909 3.48734 15.0253 4.27161 16.3777L3 21L7.7512 19.7597C9.06015 20.4706 10.5341 20.8447 12.034 20.8452H12.0378C16.9772 20.8452 20.9983 16.8439 21 11.926C21.0008 9.54262 20.0696 7.30201 18.3773 5.61609V5.61567ZM12.0378 19.3389H12.0348C10.6983 19.3385 9.38719 18.9809 8.24323 18.3057L7.97122 18.1449L5.15171 18.8809L5.90418 16.145L5.72711 15.8645C4.98152 14.6841 4.58746 13.3198 4.58831 11.9192C4.59004 7.83187 7.93169 4.50626 12.0409 4.50626C14.0305 4.50713 15.9008 5.27911 17.3072 6.68058C18.7138 8.08164 19.4877 9.94462 19.4869 11.9252C19.4851 16.0129 16.1436 19.3385 12.0378 19.3385V19.3389ZM16.1238 13.7869C15.8998 13.6752 14.7989 13.1363 14.5935 13.0619C14.3881 12.9875 14.239 12.9503 14.0898 13.1735C13.9407 13.3968 13.5114 13.8989 13.3808 14.0473C13.2501 14.1961 13.1195 14.2145 12.8956 14.1029C12.6717 13.9912 11.9501 13.756 11.0945 12.9969C10.4289 12.4058 9.97935 11.6763 9.84877 11.453C9.71811 11.2298 9.835 11.1091 9.94671 10.9984C10.0473 10.8983 10.1706 10.738 10.2828 10.6079C10.3949 10.4779 10.4319 10.3847 10.5067 10.2363C10.5815 10.0874 10.5441 9.95748 10.4882 9.84578C10.4323 9.73419 9.98454 8.63717 9.79759 8.19112C9.61579 7.75663 9.43106 7.81564 9.29398 7.80837C9.16328 7.80194 9.0142 7.80068 8.86466 7.80068C8.71512 7.80068 8.47272 7.85624 8.2673 8.07953C8.06189 8.30272 7.48346 8.84206 7.48346 9.93858C7.48346 11.0352 8.2858 12.0954 8.39796 12.2442C8.51009 12.3931 9.9772 14.6439 12.2235 15.6096C12.7576 15.8393 13.1749 15.9765 13.5002 16.0792C14.0366 16.249 14.5247 16.225 14.9106 16.1677C15.3408 16.1036 16.2355 15.6284 16.422 15.1079C16.6085 14.5874 16.6085 14.1409 16.5526 14.0481C16.4968 13.9553 16.3473 13.8993 16.1234 13.7877L16.1238 13.7869Z" fill="#6A6A6E"/>
</svg>
