<svg width="105" height="21" viewBox="0 0 105 21" fill="none" xmlns="http://www.w3.org/2000/svg">
<path d="M34.9246 14.3523H40.3003V16H32.6778V14.5188L38.0368 6.08076H32.6778V4.4331H40.3003V5.91433L34.9246 14.3523ZM41.7418 11.3732C41.7418 10.4523 41.9305 9.63682 42.3077 8.92671C42.696 8.21661 43.2175 7.66739 43.8721 7.27905C44.5379 6.87962 45.2702 6.67991 46.069 6.67991C46.7902 6.67991 47.4171 6.82414 47.9497 7.11262C48.4934 7.39001 48.9261 7.73951 49.2478 8.16113V6.82969H51.1618V16H49.2478V14.6353C48.9261 15.068 48.4878 15.4286 47.933 15.7171C47.3783 16.0055 46.7458 16.1498 46.0357 16.1498C45.248 16.1498 44.5268 15.9501 43.8721 15.5506C43.2175 15.1401 42.696 14.5742 42.3077 13.853C41.9305 13.1208 41.7418 12.2942 41.7418 11.3732ZM49.2478 11.4065C49.2478 10.7741 49.1147 10.2249 48.8484 9.75886C48.5932 9.29286 48.2548 8.93781 47.8332 8.69371C47.4116 8.44961 46.9567 8.32756 46.4685 8.32756C45.9803 8.32756 45.5254 8.44961 45.1037 8.69371C44.6821 8.92671 44.3382 9.27622 44.0719 9.74222C43.8167 10.1971 43.6891 10.7408 43.6891 11.3732C43.6891 12.0057 43.8167 12.5604 44.0719 13.0375C44.3382 13.5146 44.6821 13.8808 45.1037 14.136C45.5365 14.3801 45.9914 14.5021 46.4685 14.5021C46.9567 14.5021 47.4116 14.3801 47.8332 14.136C48.2548 13.8919 48.5932 13.5368 48.8484 13.0708C49.1147 12.5937 49.2478 12.039 49.2478 11.4065ZM55.5511 8.17778C55.8729 7.75615 56.3112 7.4011 56.8659 7.11262C57.4207 6.82414 58.0476 6.67991 58.7466 6.67991C59.5455 6.67991 60.2722 6.87962 60.9268 7.27905C61.5926 7.66739 62.114 8.21661 62.4913 8.92671C62.8685 9.63682 63.0571 10.4523 63.0571 11.3732C63.0571 12.2942 62.8685 13.1208 62.4913 13.853C62.114 14.5742 61.5926 15.1401 60.9268 15.5506C60.2722 15.9501 59.5455 16.1498 58.7466 16.1498C58.0476 16.1498 57.4262 16.0111 56.8826 15.7337C56.3389 15.4452 55.8951 15.0902 55.5511 14.6686V20.3605H53.6538V6.82969H55.5511V8.17778ZM61.1265 11.3732C61.1265 10.7408 60.9934 10.1971 60.7271 9.74222C60.4719 9.27622 60.128 8.92671 59.6952 8.69371C59.2736 8.44961 58.8187 8.32756 58.3305 8.32756C57.8534 8.32756 57.3985 8.44961 56.9658 8.69371C56.5442 8.93781 56.2002 9.29286 55.9339 9.75886C55.6787 10.2249 55.5511 10.7741 55.5511 11.4065C55.5511 12.039 55.6787 12.5937 55.9339 13.0708C56.2002 13.5368 56.5442 13.8919 56.9658 14.136C57.3985 14.3801 57.8534 14.5021 58.3305 14.5021C58.8187 14.5021 59.2736 14.3801 59.6952 14.136C60.128 13.8808 60.4719 13.5146 60.7271 13.0375C60.9934 12.5604 61.1265 12.0057 61.1265 11.3732ZM66.8307 8.17778C67.1524 7.75615 67.5907 7.4011 68.1455 7.11262C68.7003 6.82414 69.3271 6.67991 70.0261 6.67991C70.825 6.67991 71.5518 6.87962 72.2064 7.27905C72.8721 7.66739 73.3936 8.21661 73.7708 8.92671C74.1481 9.63682 74.3367 10.4523 74.3367 11.3732C74.3367 12.2942 74.1481 13.1208 73.7708 13.853C73.3936 14.5742 72.8721 15.1401 72.2064 15.5506C71.5518 15.9501 70.825 16.1498 70.0261 16.1498C69.3271 16.1498 68.7058 16.0111 68.1621 15.7337C67.6185 15.4452 67.1746 15.0902 66.8307 14.6686V20.3605H64.9334V6.82969H66.8307V8.17778ZM72.4061 11.3732C72.4061 10.7408 72.273 10.1971 72.0067 9.74222C71.7515 9.27622 71.4075 8.92671 70.9748 8.69371C70.5532 8.44961 70.0983 8.32756 69.6101 8.32756C69.133 8.32756 68.6781 8.44961 68.2453 8.69371C67.8237 8.93781 67.4798 9.29286 67.2135 9.75886C66.9583 10.2249 66.8307 10.7741 66.8307 11.4065C66.8307 12.039 66.9583 12.5937 67.2135 13.0708C67.4798 13.5368 67.8237 13.8919 68.2453 14.136C68.6781 14.3801 69.133 14.5021 69.6101 14.5021C70.0983 14.5021 70.5532 14.3801 70.9748 14.136C71.4075 13.8808 71.7515 13.5146 72.0067 13.0375C72.273 12.5604 72.4061 12.0057 72.4061 11.3732ZM84.6177 11.1902C84.6177 11.5341 84.5955 11.8448 84.5511 12.1222H77.5444C77.5998 12.8545 77.8717 13.4425 78.3599 13.8863C78.8481 14.3301 79.4472 14.5521 80.1573 14.5521C81.1781 14.5521 81.8993 14.1249 82.3209 13.2705H84.368C84.0906 14.1138 83.5858 14.8072 82.8535 15.3509C82.1323 15.8835 81.2336 16.1498 80.1573 16.1498C79.2808 16.1498 78.493 15.9556 77.794 15.5673C77.1061 15.1678 76.5624 14.6131 76.163 13.903C75.7747 13.1818 75.5805 12.3496 75.5805 11.4065C75.5805 10.4634 75.7691 9.63682 76.1464 8.92671C76.5347 8.20552 77.0728 7.65075 77.7607 7.26241C78.4597 6.87407 79.2586 6.67991 80.1573 6.67991C81.0228 6.67991 81.7939 6.86853 82.4707 7.24577C83.1475 7.62301 83.6746 8.15559 84.0518 8.8435C84.429 9.52031 84.6177 10.3025 84.6177 11.1902ZM82.6371 10.591C82.626 9.89201 82.3764 9.33169 81.8882 8.91007C81.4 8.48845 80.7953 8.27764 80.0741 8.27764C79.4195 8.27764 78.8592 8.48845 78.3932 8.91007C77.9272 9.3206 77.6498 9.88091 77.561 10.591H82.6371ZM88.3821 3.68416V16H86.4848V3.68416H88.3821ZM91.8384 5.61475C91.4944 5.61475 91.206 5.49825 90.973 5.26525C90.74 5.03225 90.6235 4.74377 90.6235 4.39981C90.6235 4.05585 90.74 3.76738 90.973 3.53437C91.206 3.30137 91.4944 3.18487 91.8384 3.18487C92.1713 3.18487 92.4542 3.30137 92.6872 3.53437C92.9202 3.76738 93.0367 4.05585 93.0367 4.39981C93.0367 4.74377 92.9202 5.03225 92.6872 5.26525C92.4542 5.49825 92.1713 5.61475 91.8384 5.61475ZM92.7704 6.82969V16H90.8731V6.82969H92.7704ZM99.8882 6.67991C100.609 6.67991 101.253 6.82969 101.819 7.12927C102.396 7.42884 102.845 7.87265 103.167 8.46071C103.489 9.04876 103.649 9.75886 103.649 10.591V16H101.769V10.8739C101.769 10.0529 101.564 9.426 101.153 8.99329C100.742 8.54947 100.182 8.32756 99.4721 8.32756C98.762 8.32756 98.1961 8.54947 97.7745 8.99329C97.364 9.426 97.1587 10.0529 97.1587 10.8739V16H95.2614V6.82969H97.1587V7.8782C97.4694 7.50096 97.8633 7.20693 98.3404 6.99612C98.8286 6.78531 99.3445 6.67991 99.8882 6.67991Z" fill="url(#paint0_linear_192_10819)"/>
<path d="M15.8751 19.9184H11.1793C10.8737 19.9184 10.5957 19.7665 10.4678 19.5309L8.90271 16.6335C8.72212 16.2985 8.89472 15.9052 9.28739 15.7515C9.68065 15.5987 10.145 15.7457 10.3256 16.0785L16.7374 16.2362C16.9278 15.9062 17.3955 15.769 17.7853 15.9305C18.1729 16.0912 18.3345 16.4894 18.1453 16.8185L16.5791 19.5446C16.4485 19.7724 16.1756 19.9184 15.8751 19.9184Z" fill="url(#paint1_linear_192_10819)"/>
<path d="M17.4731 16.2363C17.6634 15.9063 17.3954 15.7692 17.7852 15.9307C18.1727 16.0913 18.3345 16.4895 18.1454 16.8186L16.5791 19.5447C16.4485 19.7725 16.1756 19.9186 15.8752 19.9186H14.5444C14.8448 19.9186 15.1178 19.7725 15.2484 19.5447L16.8146 16.8186C16.9277 16.6218 16.9152 16.4004 16.8042 16.2198L17.4731 16.2363Z" fill="url(#paint2_linear_192_10819)"/>
<path d="M0.621899 17.6944C1.76205 17.6357 3.18337 17.0382 4.88638 15.9022C5.01279 15.8179 5.17533 15.8081 5.3114 15.8759C3.10136 14.4854 1.60834 12.9748 1.13809 12.3933C1.26365 12.5815 1.34977 12.7959 1.35324 13.0219C1.37124 14.1906 0.996222 15.406 0.225888 16.6683L0.119857 16.8387C-0.045735 17.099 0.0316195 17.4438 0.292961 17.6088C0.390971 17.6706 0.506025 17.7003 0.621899 17.6944Z" fill="url(#paint3_linear_192_10819)"/>
<path d="M26.3214 8.80697C26.3214 3.94301 20.4292 0 13.1607 0C5.89226 0 0 3.94301 0 8.80697C0 10.0842 0.406613 11.2978 1.13752 12.3933C1.86843 13.4888 3.9814 15.2137 5.31083 15.8759C7.50241 16.9675 10.2187 17.6139 13.1607 17.6139C20.4292 17.6139 26.3214 13.6709 26.3214 8.80697Z" fill="url(#paint4_linear_192_10819)"/>
<path d="M13.3084 0.698242C16.5043 0.698242 19.4189 1.46369 21.6228 2.72184C19.5285 2.03475 17.1128 1.64299 14.5407 1.64299C8.53454 1.64299 3.38128 3.77924 1.18018 6.82374C2.45292 3.31466 7.39985 0.698244 13.3084 0.698242Z" fill="#F3FDC3"/>
<g filter="url(#filter0_d_192_10819)">
<path d="M16.4795 9.79571C15.9183 9.79571 15.4633 9.34077 15.4633 8.77957C15.4633 8.21837 15.9183 7.76343 16.4795 7.76343C17.0407 7.76343 17.4956 8.21837 17.4956 8.77957C17.4956 9.34077 17.0407 9.79571 16.4795 9.79571Z" fill="#FFFDFA"/>
</g>
<g filter="url(#filter1_d_192_10819)">
<path d="M13.1543 9.79571C12.5931 9.79571 12.1381 9.34077 12.1381 8.77957C12.1381 8.21837 12.5931 7.76343 13.1543 7.76343C13.7155 7.76343 14.1704 8.21837 14.1704 8.77957C14.1704 9.34077 13.7155 9.79571 13.1543 9.79571Z" fill="#FFFDFA"/>
</g>
<g filter="url(#filter2_d_192_10819)">
<path d="M9.84763 9.79571C9.28642 9.79571 8.83148 9.34077 8.83148 8.77957C8.83148 8.21837 9.28642 7.76343 9.84763 7.76343C10.4088 7.76343 10.8638 8.21837 10.8638 8.77957C10.8638 9.34077 10.4088 9.79571 9.84763 9.79571Z" fill="#FFFDFA"/>
</g>
<path d="M23.9615 3.77905C25.4409 5.2033 26.31 6.93169 26.31 8.79765C26.31 10.6605 25.4431 12.3857 23.9682 13.8086C23.6544 13.3238 23.3872 12.841 23.2288 12.4415C22.7927 11.3409 22.5503 10.1214 22.5503 8.83826C22.5503 6.9566 23.0727 5.21295 23.9615 3.77905Z" fill="#A4F0A6"/>
<path d="M23.9614 3.77893C24.3625 4.16503 24.7168 4.57509 25.0229 5.00256C24.5262 6.16288 24.2466 7.46395 24.2466 8.8385C24.2466 10.1214 24.4893 11.3407 24.9253 12.441C24.9483 12.4991 24.976 12.5584 25.0034 12.6198C24.7035 13.0347 24.3578 13.4324 23.9683 13.8082C23.6545 13.3235 23.3873 12.8405 23.229 12.441C22.793 11.3407 22.5503 10.1214 22.5503 8.8385C22.5503 6.9569 23.0727 5.2128 23.9614 3.77893Z" fill="#95E097"/>
<path d="M25.2871 10.7313C24.0058 14.2329 19.0691 16.8436 13.1689 16.8436C10.3867 16.8436 7.81768 16.2634 5.74512 15.2831C5.36459 15.1031 4.91653 14.8351 4.45703 14.5223C6.66228 15.3149 9.25722 15.7733 12.0352 15.7733C17.9478 15.7733 23.0302 13.7002 25.2871 10.7313Z" fill="white" fill-opacity="0.3"/>
<defs>
<filter id="filter0_d_192_10819" x="15.3402" y="7.76343" width="2.36083" height="2.40191" filterUnits="userSpaceOnUse" color-interpolation-filters="sRGB">
<feFlood flood-opacity="0" result="BackgroundImageFix"/>
<feColorMatrix in="SourceAlpha" type="matrix" values="0 0 0 0 0 0 0 0 0 0 0 0 0 0 0 0 0 0 127 0" result="hardAlpha"/>
<feOffset dx="0.041076" dy="0.20538"/>
<feGaussianBlur stdDeviation="0.082152"/>
<feComposite in2="hardAlpha" operator="out"/>
<feColorMatrix type="matrix" values="0 0 0 0 0 0 0 0 0 0 0 0 0 0 0 0 0 0 0.25 0"/>
<feBlend mode="normal" in2="BackgroundImageFix" result="effect1_dropShadow_192_10819"/>
<feBlend mode="normal" in="SourceGraphic" in2="effect1_dropShadow_192_10819" result="shape"/>
</filter>
<filter id="filter1_d_192_10819" x="12.015" y="7.76343" width="2.36083" height="2.40191" filterUnits="userSpaceOnUse" color-interpolation-filters="sRGB">
<feFlood flood-opacity="0" result="BackgroundImageFix"/>
<feColorMatrix in="SourceAlpha" type="matrix" values="0 0 0 0 0 0 0 0 0 0 0 0 0 0 0 0 0 0 127 0" result="hardAlpha"/>
<feOffset dx="0.041076" dy="0.20538"/>
<feGaussianBlur stdDeviation="0.082152"/>
<feComposite in2="hardAlpha" operator="out"/>
<feColorMatrix type="matrix" values="0 0 0 0 0 0 0 0 0 0 0 0 0 0 0 0 0 0 0.25 0"/>
<feBlend mode="normal" in2="BackgroundImageFix" result="effect1_dropShadow_192_10819"/>
<feBlend mode="normal" in="SourceGraphic" in2="effect1_dropShadow_192_10819" result="shape"/>
</filter>
<filter id="filter2_d_192_10819" x="8.70831" y="7.76343" width="2.36083" height="2.40191" filterUnits="userSpaceOnUse" color-interpolation-filters="sRGB">
<feFlood flood-opacity="0" result="BackgroundImageFix"/>
<feColorMatrix in="SourceAlpha" type="matrix" values="0 0 0 0 0 0 0 0 0 0 0 0 0 0 0 0 0 0 127 0" result="hardAlpha"/>
<feOffset dx="0.041076" dy="0.20538"/>
<feGaussianBlur stdDeviation="0.082152"/>
<feComposite in2="hardAlpha" operator="out"/>
<feColorMatrix type="matrix" values="0 0 0 0 0 0 0 0 0 0 0 0 0 0 0 0 0 0 0.25 0"/>
<feBlend mode="normal" in2="BackgroundImageFix" result="effect1_dropShadow_192_10819"/>
<feBlend mode="normal" in="SourceGraphic" in2="effect1_dropShadow_192_10819" result="shape"/>
</filter>
<linearGradient id="paint0_linear_192_10819" x1="31.8335" y1="10" x2="104.833" y2="10" gradientUnits="userSpaceOnUse">
<stop stop-color="#1E8846"/>
<stop offset="1" stop-color="#1AC159"/>
</linearGradient>
<linearGradient id="paint1_linear_192_10819" x1="13.5168" y1="16.2373" x2="13.5168" y2="19.0635" gradientUnits="userSpaceOnUse">
<stop stop-color="#17762E"/>
<stop offset="1" stop-color="#2DBC4F"/>
</linearGradient>
<linearGradient id="paint2_linear_192_10819" x1="16.8436" y1="19.3834" x2="17.5509" y2="16.6957" gradientUnits="userSpaceOnUse">
<stop stop-color="#31C955"/>
<stop offset="1" stop-color="#207F3B"/>
</linearGradient>
<linearGradient id="paint3_linear_192_10819" x1="2.67012" y1="16.4714" x2="5.66867" y2="13.3086" gradientUnits="userSpaceOnUse">
<stop stop-color="#3BC14D"/>
<stop offset="1" stop-color="#107026"/>
</linearGradient>
<linearGradient id="paint4_linear_192_10819" x1="7.80444" y1="-1.68412" x2="8.19467" y2="14.2945" gradientUnits="userSpaceOnUse">
<stop stop-color="#BFF56D"/>
<stop offset="1" stop-color="#28B34F"/>
</linearGradient>
</defs>
</svg>
